<?xml version="1.0" encoding="UTF-8"?>
<svg width="966px" height="64px" viewBox="0 0 966 64" version="1.1" xmlns="http://www.w3.org/2000/svg" xmlns:xlink="http://www.w3.org/1999/xlink">
    <title>Group 6</title>
    <g id="Page-1" stroke="none" stroke-width="1" fill="none" fill-rule="evenodd">
        <g id="Group-6">
            <g id="Atomic-Element-No.-7-Copy" transform="translate(7.000000, 17.543111)" fill="#000000" fill-rule="nonzero">
                <path d="M16.632,15.672 L9.168,1.488 L8.064,1.488 L1.728,15.864 L0,17.088 L0,17.568 L4.248,17.568 L4.248,17.088 L2.304,15.864 L3.672,12.744 L10.44,12.744 L11.952,15.72 L10.656,17.088 L10.656,17.568 L18.024,17.568 L18.024,17.088 L16.632,15.672 Z M3.888,12.264 L6.72,5.784 L6.888,5.784 L10.176,12.264 L3.888,12.264 Z" id="A"></path>
                <path d="M26.856,13.896 C26.544,15.12 25.992,15.84 25.008,15.84 C24.096,15.84 23.472,15.096 23.472,13.968 L23.472,5.976 L27.072,5.976 L27.072,5.496 L23.472,5.496 L23.472,1.608 L22.992,1.608 L19.488,5.496 L17.976,5.496 L17.976,5.976 L19.488,5.976 L19.488,13.8 C19.488,16.488 21.216,17.904 23.352,17.904 C25.728,17.904 26.952,16.128 27.288,13.992 L26.856,13.896 Z" id="t"></path>
                <path d="M34.944,5.184 C31.176,5.184 28.056,7.752 28.056,11.52 C28.056,15.288 31.176,17.904 34.944,17.904 C38.736,17.904 41.832,15.288 41.832,11.52 C41.832,7.752 38.736,5.184 34.944,5.184 Z M34.944,17.424 C33.24,17.424 32.352,15.912 32.352,11.52 C32.352,7.08 33.24,5.664 34.944,5.664 C36.672,5.664 37.56,7.08 37.56,11.52 C37.56,15.912 36.672,17.424 34.944,17.424 Z" id="o"></path>
                <path d="M64.344,15.816 L64.344,9.6 C64.344,6.552 62.832,5.184 60.552,5.184 C58.224,5.184 57,6.528 56.448,8.424 C56.088,6.192 54.696,5.184 52.776,5.184 C50.4,5.184 49.176,6.648 48.696,8.64 L48.696,5.496 L42.936,5.496 L42.936,5.976 L44.688,7.248 L44.688,15.816 L42.936,17.088 L42.936,17.568 L50.112,17.568 L50.112,17.088 L48.696,15.816 L48.696,10.296 C48.696,8.688 49.368,7.272 50.808,7.272 C51.96,7.272 52.512,8.064 52.512,9.624 L52.512,15.816 L51.12,17.088 L51.12,17.568 L57.912,17.568 L57.912,17.088 L56.52,15.816 L56.52,10.224 C56.52,8.664 57.144,7.272 58.584,7.272 C59.76,7.272 60.336,8.088 60.336,9.696 L60.336,15.816 L58.944,17.088 L58.944,17.568 L66.072,17.568 L66.072,17.088 L64.344,15.816 Z" id="m"></path>
                <path d="M70.584,4.152 C71.832,4.152 72.72,3.264 72.72,2.088 C72.72,0.984 71.832,0 70.584,0 C69.336,0 68.448,0.984 68.448,2.088 C68.448,3.264 69.336,4.152 70.584,4.152 Z M72.6,15.816 L72.6,5.496 L66.84,5.496 L66.84,5.976 L68.592,7.248 L68.592,15.816 L66.84,17.088 L66.84,17.568 L74.328,17.568 L74.328,17.088 L72.6,15.816 Z" id="i"></path>
                <path d="M87.312,13.56 C86.4,15.192 85.2,15.768 83.76,15.768 C81.072,15.768 79.56,13.872 79.56,10.248 C79.56,7.872 80.256,5.664 82.44,5.664 C83.016,5.664 83.472,5.784 83.928,6.192 L86.952,11.016 L87.384,11.016 L87.384,5.376 L86.928,5.376 L85.512,5.784 C84.36,5.352 83.232,5.184 82.128,5.184 C78.336,5.184 75.288,7.776 75.288,11.496 C75.288,15.336 78,17.904 81.744,17.904 C84.48,17.904 86.736,16.44 87.696,13.728 L87.312,13.56 Z" id="c"></path>
                <polygon id="E" points="107.784 12.168 104.88 17.088 100.008 17.088 100.008 9.72 103.44 9.72 105.576 12.36 106.08 12.36 106.08 6.624 105.576 6.624 103.44 9.24 100.008 9.24 100.008 1.968 104.64 1.968 107.544 6.888 108.048 6.888 108.048 1.488 94.152 1.488 94.152 1.968 95.88 3.216 95.88 15.816 94.152 17.088 94.152 17.568 108.288 17.568 108.288 12.168"></polygon>
                <path d="M117.984,14.976 C117.672,15.456 117.168,15.84 116.424,15.84 C115.368,15.84 114.72,15.096 114.72,13.968 L114.72,1.488 L108.984,1.488 L108.984,1.872 L110.736,3.216 L110.736,13.776 C110.736,16.512 112.536,17.904 114.576,17.904 C116.64,17.904 117.816,16.68 118.272,15.096 L117.984,14.976 Z" id="l"></path>
                <path d="M127.104,15.768 C124.56,15.768 122.976,13.704 122.832,11.52 L131.424,11.52 C131.424,7.584 129,5.184 125.28,5.184 C121.536,5.184 118.512,7.752 118.512,11.52 C118.512,15.288 121.56,17.904 125.352,17.904 C128.208,17.904 130.296,16.344 131.256,13.56 L130.896,13.416 C129.912,15.12 128.64,15.768 127.104,15.768 Z M125.28,5.568 C126.864,5.568 127.536,6.912 127.584,11.04 L122.808,11.04 C122.832,7.32 123.648,5.568 125.28,5.568 Z" id="e"></path>
                <path d="M153.912,15.816 L153.912,9.6 C153.912,6.552 152.4,5.184 150.12,5.184 C147.792,5.184 146.568,6.528 146.016,8.424 C145.656,6.192 144.264,5.184 142.344,5.184 C139.968,5.184 138.744,6.648 138.264,8.64 L138.264,5.496 L132.504,5.496 L132.504,5.976 L134.256,7.248 L134.256,15.816 L132.504,17.088 L132.504,17.568 L139.68,17.568 L139.68,17.088 L138.264,15.816 L138.264,10.296 C138.264,8.688 138.936,7.272 140.376,7.272 C141.528,7.272 142.08,8.064 142.08,9.624 L142.08,15.816 L140.688,17.088 L140.688,17.568 L147.48,17.568 L147.48,17.088 L146.088,15.816 L146.088,10.224 C146.088,8.664 146.712,7.272 148.152,7.272 C149.328,7.272 149.904,8.088 149.904,9.696 L149.904,15.816 L148.512,17.088 L148.512,17.568 L155.64,17.568 L155.64,17.088 L153.912,15.816 Z" id="m"></path>
                <path d="M165.168,15.768 C162.624,15.768 161.04,13.704 160.896,11.52 L169.488,11.52 C169.488,7.584 167.064,5.184 163.344,5.184 C159.6,5.184 156.576,7.752 156.576,11.52 C156.576,15.288 159.624,17.904 163.416,17.904 C166.272,17.904 168.36,16.344 169.32,13.56 L168.96,13.416 C167.976,15.12 166.704,15.768 165.168,15.768 Z M163.344,5.568 C164.928,5.568 165.6,6.912 165.648,11.04 L160.872,11.04 C160.896,7.32 161.712,5.568 163.344,5.568 Z" id="e"></path>
                <path d="M184.344,15.816 L184.344,9.6 C184.344,6.552 182.808,5.184 180.504,5.184 C178.032,5.184 176.856,6.696 176.328,8.808 L176.328,5.496 L170.568,5.496 L170.568,5.976 L172.32,7.248 L172.32,15.816 L170.568,17.088 L170.568,17.568 L177.696,17.568 L177.696,17.088 L176.328,15.816 L176.328,10.344 C176.328,8.736 177.12,7.272 178.584,7.272 C179.76,7.272 180.36,8.088 180.36,9.696 L180.36,15.816 L178.968,17.088 L178.968,17.568 L186.096,17.568 L186.096,17.088 L184.344,15.816 Z" id="n"></path>
                <path d="M195.192,13.896 C194.88,15.12 194.328,15.84 193.344,15.84 C192.432,15.84 191.808,15.096 191.808,13.968 L191.808,5.976 L195.408,5.976 L195.408,5.496 L191.808,5.496 L191.808,1.608 L191.328,1.608 L187.824,5.496 L186.312,5.496 L186.312,5.976 L187.824,5.976 L187.824,13.8 C187.824,16.488 189.552,17.904 191.688,17.904 C194.064,17.904 195.288,16.128 195.624,13.992 L195.192,13.896 Z" id="t"></path>
                <polygon id="N" points="217.896 1.488 213.864 1.488 213.864 1.968 215.616 3.216 215.616 11.544 207.672 1.488 201.696 1.488 201.696 1.968 203.4 3.504 203.4 15.816 201.672 17.088 201.672 17.568 205.68 17.568 205.68 17.088 203.928 15.816 203.928 4.08 214.68 17.568 216.144 17.568 216.144 3.216 217.896 1.968"></polygon>
                <path d="M225.864,5.184 C222.096,5.184 218.976,7.752 218.976,11.52 C218.976,15.288 222.096,17.904 225.864,17.904 C229.656,17.904 232.752,15.288 232.752,11.52 C232.752,7.752 229.656,5.184 225.864,5.184 Z M225.864,17.424 C224.16,17.424 223.272,15.912 223.272,11.52 C223.272,7.08 224.16,5.664 225.864,5.664 C227.592,5.664 228.48,7.08 228.48,11.52 C228.48,15.912 227.592,17.424 225.864,17.424 Z" id="o"></path>
                <path d="M236.04,13.2 C234.72,13.2 233.784,14.232 233.784,15.456 C233.784,16.704 234.72,17.688 236.04,17.688 C237.336,17.688 238.296,16.704 238.296,15.456 C238.296,14.232 237.336,13.2 236.04,13.2 Z" id="."></path>
                <polygon id="7" points="256.344 3.576 244.68 3.576 244.68 9.408 245.208 9.408 249 4.944 255.288 6.6 245.928 18.696 246.096 19.176 251.616 19.176 256.344 4.032"></polygon>
                <path d="M270.48,14.64 L270.48,14.136 L267.24,14.136 L267.24,3.504 L263.976,3.504 L255.768,14.136 L255.768,14.64 L263.232,14.64 L263.232,17.376 L261.024,18.624 L261.024,19.104 L269.16,19.104 L269.16,18.624 L267.24,17.376 L267.24,14.64 L270.48,14.64 Z M263.232,14.136 L256.44,14.136 L263.232,5.376 L263.232,14.136 Z" id="4"></path>
            </g>
            <rect id="Rectangle-Copy-2" x="0" y="0" width="966" height="64"></rect>
        </g>
    </g>
</svg>