<?xml version="1.0" encoding="UTF-8"?>
<svg width="966px" height="84px" viewBox="0 0 966 84" version="1.1" xmlns="http://www.w3.org/2000/svg" xmlns:xlink="http://www.w3.org/1999/xlink">
    <title>Group 4</title>
    <g id="Page-1" stroke="none" stroke-width="1" fill="none" fill-rule="evenodd">
        <g id="Group-4">
            <g id="Atomic-Element-No.-7-Copy-6" transform="translate(7.000000, 24.458667)" fill="#000000" fill-rule="nonzero">
                <path d="M30.492,28.732 L16.808,2.728 L14.784,2.728 L3.168,29.084 L0,31.328 L0,32.208 L7.788,32.208 L7.788,31.328 L4.224,29.084 L6.732,23.364 L19.14,23.364 L21.912,28.82 L19.536,31.328 L19.536,32.208 L33.044,32.208 L33.044,31.328 L30.492,28.732 Z M7.128,22.484 L12.32,10.604 L12.628,10.604 L18.656,22.484 L7.128,22.484 Z" id="A"></path>
                <path d="M49.236,25.476 C48.664,27.72 47.652,29.04 45.848,29.04 C44.176,29.04 43.032,27.676 43.032,25.608 L43.032,10.956 L49.632,10.956 L49.632,10.076 L43.032,10.076 L43.032,2.948 L42.152,2.948 L35.728,10.076 L32.956,10.076 L32.956,10.956 L35.728,10.956 L35.728,25.3 C35.728,30.228 38.896,32.824 42.812,32.824 C47.168,32.824 49.412,29.568 50.028,25.652 L49.236,25.476 Z" id="t"></path>
                <path d="M64.064,9.504 C57.156,9.504 51.436,14.212 51.436,21.12 C51.436,28.028 57.156,32.824 64.064,32.824 C71.016,32.824 76.692,28.028 76.692,21.12 C76.692,14.212 71.016,9.504 64.064,9.504 Z M64.064,31.944 C60.94,31.944 59.312,29.172 59.312,21.12 C59.312,12.98 60.94,10.384 64.064,10.384 C67.232,10.384 68.86,12.98 68.86,21.12 C68.86,29.172 67.232,31.944 64.064,31.944 Z" id="o"></path>
                <path d="M117.964,28.996 L117.964,17.6 C117.964,12.012 115.192,9.504 111.012,9.504 C106.744,9.504 104.5,11.968 103.488,15.444 C102.828,11.352 100.276,9.504 96.756,9.504 C92.4,9.504 90.156,12.188 89.276,15.84 L89.276,10.076 L78.716,10.076 L78.716,10.956 L81.928,13.288 L81.928,28.996 L78.716,31.328 L78.716,32.208 L91.872,32.208 L91.872,31.328 L89.276,28.996 L89.276,18.876 C89.276,15.928 90.508,13.332 93.148,13.332 C95.26,13.332 96.272,14.784 96.272,17.644 L96.272,28.996 L93.72,31.328 L93.72,32.208 L106.172,32.208 L106.172,31.328 L103.62,28.996 L103.62,18.744 C103.62,15.884 104.764,13.332 107.404,13.332 C109.56,13.332 110.616,14.828 110.616,17.776 L110.616,28.996 L108.064,31.328 L108.064,32.208 L121.132,32.208 L121.132,31.328 L117.964,28.996 Z" id="m"></path>
                <path d="M129.404,7.612 C131.692,7.612 133.32,5.984 133.32,3.828 C133.32,1.804 131.692,0 129.404,0 C127.116,0 125.488,1.804 125.488,3.828 C125.488,5.984 127.116,7.612 129.404,7.612 Z M133.1,28.996 L133.1,10.076 L122.54,10.076 L122.54,10.956 L125.752,13.288 L125.752,28.996 L122.54,31.328 L122.54,32.208 L136.268,32.208 L136.268,31.328 L133.1,28.996 Z" id="i"></path>
                <path d="M160.072,24.86 C158.4,27.852 156.2,28.908 153.56,28.908 C148.632,28.908 145.86,25.432 145.86,18.788 C145.86,14.432 147.136,10.384 151.14,10.384 C152.196,10.384 153.032,10.604 153.868,11.352 L159.412,20.196 L160.204,20.196 L160.204,9.856 L159.368,9.856 L156.772,10.604 C154.66,9.812 152.592,9.504 150.568,9.504 C143.616,9.504 138.028,14.256 138.028,21.076 C138.028,28.116 143,32.824 149.864,32.824 C154.88,32.824 159.016,30.14 160.776,25.168 L160.072,24.86 Z" id="c"></path>
                <polygon id="E" points="197.604 22.308 192.28 31.328 183.348 31.328 183.348 17.82 189.64 17.82 193.556 22.66 194.48 22.66 194.48 12.144 193.556 12.144 189.64 16.94 183.348 16.94 183.348 3.608 191.84 3.608 197.164 12.628 198.088 12.628 198.088 2.728 172.612 2.728 172.612 3.608 175.78 5.896 175.78 28.996 172.612 31.328 172.612 32.208 198.528 32.208 198.528 22.308"></polygon>
                <path d="M216.304,27.456 C215.732,28.336 214.808,29.04 213.444,29.04 C211.508,29.04 210.32,27.676 210.32,25.608 L210.32,2.728 L199.804,2.728 L199.804,3.432 L203.016,5.896 L203.016,25.256 C203.016,30.272 206.316,32.824 210.056,32.824 C213.84,32.824 215.996,30.58 216.832,27.676 L216.304,27.456 Z" id="l"></path>
                <path d="M233.024,28.908 C228.36,28.908 225.456,25.124 225.192,21.12 L240.944,21.12 C240.944,13.904 236.5,9.504 229.68,9.504 C222.816,9.504 217.272,14.212 217.272,21.12 C217.272,28.028 222.86,32.824 229.812,32.824 C235.048,32.824 238.876,29.964 240.636,24.86 L239.976,24.596 C238.172,27.72 235.84,28.908 233.024,28.908 Z M229.68,10.208 C232.584,10.208 233.816,12.672 233.904,20.24 L225.148,20.24 C225.192,13.42 226.688,10.208 229.68,10.208 Z" id="e"></path>
                <path d="M282.172,28.996 L282.172,17.6 C282.172,12.012 279.4,9.504 275.22,9.504 C270.952,9.504 268.708,11.968 267.696,15.444 C267.036,11.352 264.484,9.504 260.964,9.504 C256.608,9.504 254.364,12.188 253.484,15.84 L253.484,10.076 L242.924,10.076 L242.924,10.956 L246.136,13.288 L246.136,28.996 L242.924,31.328 L242.924,32.208 L256.08,32.208 L256.08,31.328 L253.484,28.996 L253.484,18.876 C253.484,15.928 254.716,13.332 257.356,13.332 C259.468,13.332 260.48,14.784 260.48,17.644 L260.48,28.996 L257.928,31.328 L257.928,32.208 L270.38,32.208 L270.38,31.328 L267.828,28.996 L267.828,18.744 C267.828,15.884 268.972,13.332 271.612,13.332 C273.768,13.332 274.824,14.828 274.824,17.776 L274.824,28.996 L272.272,31.328 L272.272,32.208 L285.34,32.208 L285.34,31.328 L282.172,28.996 Z" id="m"></path>
                <path d="M302.808,28.908 C298.144,28.908 295.24,25.124 294.976,21.12 L310.728,21.12 C310.728,13.904 306.284,9.504 299.464,9.504 C292.6,9.504 287.056,14.212 287.056,21.12 C287.056,28.028 292.644,32.824 299.596,32.824 C304.832,32.824 308.66,29.964 310.42,24.86 L309.76,24.596 C307.956,27.72 305.624,28.908 302.808,28.908 Z M299.464,10.208 C302.368,10.208 303.6,12.672 303.688,20.24 L294.932,20.24 C294.976,13.42 296.472,10.208 299.464,10.208 Z" id="e"></path>
                <path d="M337.964,28.996 L337.964,17.6 C337.964,12.012 335.148,9.504 330.924,9.504 C326.392,9.504 324.236,12.276 323.268,16.148 L323.268,10.076 L312.708,10.076 L312.708,10.956 L315.92,13.288 L315.92,28.996 L312.708,31.328 L312.708,32.208 L325.776,32.208 L325.776,31.328 L323.268,28.996 L323.268,18.964 C323.268,16.016 324.72,13.332 327.404,13.332 C329.56,13.332 330.66,14.828 330.66,17.776 L330.66,28.996 L328.108,31.328 L328.108,32.208 L341.176,32.208 L341.176,31.328 L337.964,28.996 Z" id="n"></path>
                <path d="M357.852,25.476 C357.28,27.72 356.268,29.04 354.464,29.04 C352.792,29.04 351.648,27.676 351.648,25.608 L351.648,10.956 L358.248,10.956 L358.248,10.076 L351.648,10.076 L351.648,2.948 L350.768,2.948 L344.344,10.076 L341.572,10.076 L341.572,10.956 L344.344,10.956 L344.344,25.3 C344.344,30.228 347.512,32.824 351.428,32.824 C355.784,32.824 358.028,29.568 358.644,25.652 L357.852,25.476 Z" id="t"></path>
                <polygon id="N" points="399.476 2.728 392.084 2.728 392.084 3.608 395.296 5.896 395.296 21.164 380.732 2.728 369.776 2.728 369.776 3.608 372.9 6.424 372.9 28.996 369.732 31.328 369.732 32.208 377.08 32.208 377.08 31.328 373.868 28.996 373.868 7.48 393.58 32.208 396.264 32.208 396.264 5.896 399.476 3.608"></polygon>
                <path d="M414.084,9.504 C407.176,9.504 401.456,14.212 401.456,21.12 C401.456,28.028 407.176,32.824 414.084,32.824 C421.036,32.824 426.712,28.028 426.712,21.12 C426.712,14.212 421.036,9.504 414.084,9.504 Z M414.084,31.944 C410.96,31.944 409.332,29.172 409.332,21.12 C409.332,12.98 410.96,10.384 414.084,10.384 C417.252,10.384 418.88,12.98 418.88,21.12 C418.88,29.172 417.252,31.944 414.084,31.944 Z" id="o"></path>
                <path d="M432.74,24.2 C430.32,24.2 428.604,26.092 428.604,28.336 C428.604,30.624 430.32,32.428 432.74,32.428 C435.116,32.428 436.876,30.624 436.876,28.336 C436.876,26.092 435.116,24.2 432.74,24.2 Z" id="."></path>
                <polygon id="7" points="469.964 6.556 448.58 6.556 448.58 17.248 449.548 17.248 456.5 9.064 468.028 12.1 450.868 34.276 451.176 35.156 461.296 35.156 469.964 7.392"></polygon>
                <path d="M495.88,26.84 L495.88,25.916 L489.94,25.916 L489.94,6.424 L483.956,6.424 L468.908,25.916 L468.908,26.84 L482.592,26.84 L482.592,31.856 L478.544,34.144 L478.544,35.024 L493.46,35.024 L493.46,34.144 L489.94,31.856 L489.94,26.84 L495.88,26.84 Z M482.592,25.916 L470.14,25.916 L482.592,9.856 L482.592,25.916 Z" id="4"></path>
            </g>
            <rect id="Rectangle-Copy-4" x="0" y="0" width="966" height="84"></rect>
        </g>
    </g>
</svg>