<?xml version="1.0" encoding="UTF-8"?>
<svg width="966px" height="74px" viewBox="0 0 966 74" version="1.1" xmlns="http://www.w3.org/2000/svg" xmlns:xlink="http://www.w3.org/1999/xlink">
    <title>Group 5</title>
    <g id="Page-1" stroke="none" stroke-width="1" fill="none" fill-rule="evenodd">
        <g id="Group-5">
            <g id="Atomic-Element-No.-7-Copy-3" transform="translate(7.000000, 21.000889)" fill="#000000" fill-rule="nonzero">
                <path d="M23.562,22.202 L12.988,2.108 L11.424,2.108 L2.448,22.474 L0,24.208 L0,24.888 L6.018,24.888 L6.018,24.208 L3.264,22.474 L5.202,18.054 L14.79,18.054 L16.932,22.27 L15.096,24.208 L15.096,24.888 L25.534,24.888 L25.534,24.208 L23.562,22.202 Z M5.508,17.374 L9.52,8.194 L9.758,8.194 L14.416,17.374 L5.508,17.374 Z" id="A"></path>
                <path d="M38.046,19.686 C37.604,21.42 36.822,22.44 35.428,22.44 C34.136,22.44 33.252,21.386 33.252,19.788 L33.252,8.466 L38.352,8.466 L38.352,7.786 L33.252,7.786 L33.252,2.278 L32.572,2.278 L27.608,7.786 L25.466,7.786 L25.466,8.466 L27.608,8.466 L27.608,19.55 C27.608,23.358 30.056,25.364 33.082,25.364 C36.448,25.364 38.182,22.848 38.658,19.822 L38.046,19.686 Z" id="t"></path>
                <path d="M49.504,7.344 C44.166,7.344 39.746,10.982 39.746,16.32 C39.746,21.658 44.166,25.364 49.504,25.364 C54.876,25.364 59.262,21.658 59.262,16.32 C59.262,10.982 54.876,7.344 49.504,7.344 Z M49.504,24.684 C47.09,24.684 45.832,22.542 45.832,16.32 C45.832,10.03 47.09,8.024 49.504,8.024 C51.952,8.024 53.21,10.03 53.21,16.32 C53.21,22.542 51.952,24.684 49.504,24.684 Z" id="o"></path>
                <path d="M91.154,22.406 L91.154,13.6 C91.154,9.282 89.012,7.344 85.782,7.344 C82.484,7.344 80.75,9.248 79.968,11.934 C79.458,8.772 77.486,7.344 74.766,7.344 C71.4,7.344 69.666,9.418 68.986,12.24 L68.986,7.786 L60.826,7.786 L60.826,8.466 L63.308,10.268 L63.308,22.406 L60.826,24.208 L60.826,24.888 L70.992,24.888 L70.992,24.208 L68.986,22.406 L68.986,14.586 C68.986,12.308 69.938,10.302 71.978,10.302 C73.61,10.302 74.392,11.424 74.392,13.634 L74.392,22.406 L72.42,24.208 L72.42,24.888 L82.042,24.888 L82.042,24.208 L80.07,22.406 L80.07,14.484 C80.07,12.274 80.954,10.302 82.994,10.302 C84.66,10.302 85.476,11.458 85.476,13.736 L85.476,22.406 L83.504,24.208 L83.504,24.888 L93.602,24.888 L93.602,24.208 L91.154,22.406 Z" id="m"></path>
                <path d="M99.994,5.882 C101.762,5.882 103.02,4.624 103.02,2.958 C103.02,1.394 101.762,0 99.994,0 C98.226,0 96.968,1.394 96.968,2.958 C96.968,4.624 98.226,5.882 99.994,5.882 Z M102.85,22.406 L102.85,7.786 L94.69,7.786 L94.69,8.466 L97.172,10.268 L97.172,22.406 L94.69,24.208 L94.69,24.888 L105.298,24.888 L105.298,24.208 L102.85,22.406 Z" id="i"></path>
                <path d="M123.692,19.21 C122.4,21.522 120.7,22.338 118.66,22.338 C114.852,22.338 112.71,19.652 112.71,14.518 C112.71,11.152 113.696,8.024 116.79,8.024 C117.606,8.024 118.252,8.194 118.898,8.772 L123.182,15.606 L123.794,15.606 L123.794,7.616 L123.148,7.616 L121.142,8.194 C119.51,7.582 117.912,7.344 116.348,7.344 C110.976,7.344 106.658,11.016 106.658,16.286 C106.658,21.726 110.5,25.364 115.804,25.364 C119.68,25.364 122.876,23.29 124.236,19.448 L123.692,19.21 Z" id="c"></path>
                <polygon id="E" points="152.694 17.238 148.58 24.208 141.678 24.208 141.678 13.77 146.54 13.77 149.566 17.51 150.28 17.51 150.28 9.384 149.566 9.384 146.54 13.09 141.678 13.09 141.678 2.788 148.24 2.788 152.354 9.758 153.068 9.758 153.068 2.108 133.382 2.108 133.382 2.788 135.83 4.556 135.83 22.406 133.382 24.208 133.382 24.888 153.408 24.888 153.408 17.238"></polygon>
                <path d="M167.144,21.216 C166.702,21.896 165.988,22.44 164.934,22.44 C163.438,22.44 162.52,21.386 162.52,19.788 L162.52,2.108 L154.394,2.108 L154.394,2.652 L156.876,4.556 L156.876,19.516 C156.876,23.392 159.426,25.364 162.316,25.364 C165.24,25.364 166.906,23.63 167.552,21.386 L167.144,21.216 Z" id="l"></path>
                <path d="M180.064,22.338 C176.46,22.338 174.216,19.414 174.012,16.32 L186.184,16.32 C186.184,10.744 182.75,7.344 177.48,7.344 C172.176,7.344 167.892,10.982 167.892,16.32 C167.892,21.658 172.21,25.364 177.582,25.364 C181.628,25.364 184.586,23.154 185.946,19.21 L185.436,19.006 C184.042,21.42 182.24,22.338 180.064,22.338 Z M177.48,7.888 C179.724,7.888 180.676,9.792 180.744,15.64 L173.978,15.64 C174.012,10.37 175.168,7.888 177.48,7.888 Z" id="e"></path>
                <path d="M218.042,22.406 L218.042,13.6 C218.042,9.282 215.9,7.344 212.67,7.344 C209.372,7.344 207.638,9.248 206.856,11.934 C206.346,8.772 204.374,7.344 201.654,7.344 C198.288,7.344 196.554,9.418 195.874,12.24 L195.874,7.786 L187.714,7.786 L187.714,8.466 L190.196,10.268 L190.196,22.406 L187.714,24.208 L187.714,24.888 L197.88,24.888 L197.88,24.208 L195.874,22.406 L195.874,14.586 C195.874,12.308 196.826,10.302 198.866,10.302 C200.498,10.302 201.28,11.424 201.28,13.634 L201.28,22.406 L199.308,24.208 L199.308,24.888 L208.93,24.888 L208.93,24.208 L206.958,22.406 L206.958,14.484 C206.958,12.274 207.842,10.302 209.882,10.302 C211.548,10.302 212.364,11.458 212.364,13.736 L212.364,22.406 L210.392,24.208 L210.392,24.888 L220.49,24.888 L220.49,24.208 L218.042,22.406 Z" id="m"></path>
                <path d="M233.988,22.338 C230.384,22.338 228.14,19.414 227.936,16.32 L240.108,16.32 C240.108,10.744 236.674,7.344 231.404,7.344 C226.1,7.344 221.816,10.982 221.816,16.32 C221.816,21.658 226.134,25.364 231.506,25.364 C235.552,25.364 238.51,23.154 239.87,19.21 L239.36,19.006 C237.966,21.42 236.164,22.338 233.988,22.338 Z M231.404,7.888 C233.648,7.888 234.6,9.792 234.668,15.64 L227.902,15.64 C227.936,10.37 229.092,7.888 231.404,7.888 Z" id="e"></path>
                <path d="M261.154,22.406 L261.154,13.6 C261.154,9.282 258.978,7.344 255.714,7.344 C252.212,7.344 250.546,9.486 249.798,12.478 L249.798,7.786 L241.638,7.786 L241.638,8.466 L244.12,10.268 L244.12,22.406 L241.638,24.208 L241.638,24.888 L251.736,24.888 L251.736,24.208 L249.798,22.406 L249.798,14.654 C249.798,12.376 250.92,10.302 252.994,10.302 C254.66,10.302 255.51,11.458 255.51,13.736 L255.51,22.406 L253.538,24.208 L253.538,24.888 L263.636,24.888 L263.636,24.208 L261.154,22.406 Z" id="n"></path>
                <path d="M276.522,19.686 C276.08,21.42 275.298,22.44 273.904,22.44 C272.612,22.44 271.728,21.386 271.728,19.788 L271.728,8.466 L276.828,8.466 L276.828,7.786 L271.728,7.786 L271.728,2.278 L271.048,2.278 L266.084,7.786 L263.942,7.786 L263.942,8.466 L266.084,8.466 L266.084,19.55 C266.084,23.358 268.532,25.364 271.558,25.364 C274.924,25.364 276.658,22.848 277.134,19.822 L276.522,19.686 Z" id="t"></path>
                <polygon id="N" points="308.686 2.108 302.974 2.108 302.974 2.788 305.456 4.556 305.456 16.354 294.202 2.108 285.736 2.108 285.736 2.788 288.15 4.964 288.15 22.406 285.702 24.208 285.702 24.888 291.38 24.888 291.38 24.208 288.898 22.406 288.898 5.78 304.13 24.888 306.204 24.888 306.204 4.556 308.686 2.788"></polygon>
                <path d="M319.974,7.344 C314.636,7.344 310.216,10.982 310.216,16.32 C310.216,21.658 314.636,25.364 319.974,25.364 C325.346,25.364 329.732,21.658 329.732,16.32 C329.732,10.982 325.346,7.344 319.974,7.344 Z M319.974,24.684 C317.56,24.684 316.302,22.542 316.302,16.32 C316.302,10.03 317.56,8.024 319.974,8.024 C322.422,8.024 323.68,10.03 323.68,16.32 C323.68,22.542 322.422,24.684 319.974,24.684 Z" id="o"></path>
                <path d="M334.39,18.7 C332.52,18.7 331.194,20.162 331.194,21.896 C331.194,23.664 332.52,25.058 334.39,25.058 C336.226,25.058 337.586,23.664 337.586,21.896 C337.586,20.162 336.226,18.7 334.39,18.7 Z" id="."></path>
                <polygon id="7" points="363.154 5.066 346.63 5.066 346.63 13.328 347.378 13.328 352.75 7.004 361.658 9.35 348.398 26.486 348.636 27.166 356.456 27.166 363.154 5.712"></polygon>
                <path d="M383.18,20.74 L383.18,20.026 L378.59,20.026 L378.59,4.964 L373.966,4.964 L362.338,20.026 L362.338,20.74 L372.912,20.74 L372.912,24.616 L369.784,26.384 L369.784,27.064 L381.31,27.064 L381.31,26.384 L378.59,24.616 L378.59,20.74 L383.18,20.74 Z M372.912,20.026 L363.29,20.026 L372.912,7.616 L372.912,20.026 Z" id="4"></path>
            </g>
            <rect id="Rectangle-Copy-3" x="0" y="0" width="966" height="74"></rect>
        </g>
    </g>
</svg>