<?xml version="1.0" encoding="UTF-8"?>
<svg width="966px" height="94px" viewBox="0 0 966 94" version="1.1" xmlns="http://www.w3.org/2000/svg" xmlns:xlink="http://www.w3.org/1999/xlink">
    <title>Group 3</title>
    <g id="Page-1" stroke="none" stroke-width="1" fill="none" fill-rule="evenodd">
        <g id="Group-3">
            <g id="Atomic-Element-No.-7-Copy-5" transform="translate(7.000000, 25.916444)" fill="#000000" fill-rule="nonzero">
                <path d="M37.422,35.262 L20.628,3.348 L18.144,3.348 L3.888,35.694 L0,38.448 L0,39.528 L9.558,39.528 L9.558,38.448 L5.184,35.694 L8.262,28.674 L23.49,28.674 L26.892,35.37 L23.976,38.448 L23.976,39.528 L40.554,39.528 L40.554,38.448 L37.422,35.262 Z M8.748,27.594 L15.12,13.014 L15.498,13.014 L22.896,27.594 L8.748,27.594 Z" id="A"></path>
                <path d="M60.426,31.266 C59.724,34.02 58.482,35.64 56.268,35.64 C54.216,35.64 52.812,33.966 52.812,31.428 L52.812,13.446 L60.912,13.446 L60.912,12.366 L52.812,12.366 L52.812,3.618 L51.732,3.618 L43.848,12.366 L40.446,12.366 L40.446,13.446 L43.848,13.446 L43.848,31.05 C43.848,37.098 47.736,40.284 52.542,40.284 C57.888,40.284 60.642,36.288 61.398,31.482 L60.426,31.266 Z" id="t"></path>
                <path d="M78.624,11.664 C70.146,11.664 63.126,17.442 63.126,25.92 C63.126,34.398 70.146,40.284 78.624,40.284 C87.156,40.284 94.122,34.398 94.122,25.92 C94.122,17.442 87.156,11.664 78.624,11.664 Z M78.624,39.204 C74.79,39.204 72.792,35.802 72.792,25.92 C72.792,15.93 74.79,12.744 78.624,12.744 C82.512,12.744 84.51,15.93 84.51,25.92 C84.51,35.802 82.512,39.204 78.624,39.204 Z" id="o"></path>
                <path d="M144.774,35.586 L144.774,21.6 C144.774,14.742 141.372,11.664 136.242,11.664 C131.004,11.664 128.25,14.688 127.008,18.954 C126.198,13.932 123.066,11.664 118.746,11.664 C113.4,11.664 110.646,14.958 109.566,19.44 L109.566,12.366 L96.606,12.366 L96.606,13.446 L100.548,16.308 L100.548,35.586 L96.606,38.448 L96.606,39.528 L112.752,39.528 L112.752,38.448 L109.566,35.586 L109.566,23.166 C109.566,19.548 111.078,16.362 114.318,16.362 C116.91,16.362 118.152,18.144 118.152,21.654 L118.152,35.586 L115.02,38.448 L115.02,39.528 L130.302,39.528 L130.302,38.448 L127.17,35.586 L127.17,23.004 C127.17,19.494 128.574,16.362 131.814,16.362 C134.46,16.362 135.756,18.198 135.756,21.816 L135.756,35.586 L132.624,38.448 L132.624,39.528 L148.662,39.528 L148.662,38.448 L144.774,35.586 Z" id="m"></path>
                <path d="M158.814,9.342 C161.622,9.342 163.62,7.344 163.62,4.698 C163.62,2.214 161.622,0 158.814,0 C156.006,0 154.008,2.214 154.008,4.698 C154.008,7.344 156.006,9.342 158.814,9.342 Z M163.35,35.586 L163.35,12.366 L150.39,12.366 L150.39,13.446 L154.332,16.308 L154.332,35.586 L150.39,38.448 L150.39,39.528 L167.238,39.528 L167.238,38.448 L163.35,35.586 Z" id="i"></path>
                <path d="M196.452,30.51 C194.4,34.182 191.7,35.478 188.46,35.478 C182.412,35.478 179.01,31.212 179.01,23.058 C179.01,17.712 180.576,12.744 185.49,12.744 C186.786,12.744 187.812,13.014 188.838,13.932 L195.642,24.786 L196.614,24.786 L196.614,12.096 L195.588,12.096 L192.402,13.014 C189.81,12.042 187.272,11.664 184.788,11.664 C176.256,11.664 169.398,17.496 169.398,25.866 C169.398,34.506 175.5,40.284 183.924,40.284 C190.08,40.284 195.156,36.99 197.316,30.888 L196.452,30.51 Z" id="c"></path>
                <polygon id="E" points="242.514 27.378 235.98 38.448 225.018 38.448 225.018 21.87 232.74 21.87 237.546 27.81 238.68 27.81 238.68 14.904 237.546 14.904 232.74 20.79 225.018 20.79 225.018 4.428 235.44 4.428 241.974 15.498 243.108 15.498 243.108 3.348 211.842 3.348 211.842 4.428 215.73 7.236 215.73 35.586 211.842 38.448 211.842 39.528 243.648 39.528 243.648 27.378"></polygon>
                <path d="M265.464,33.696 C264.762,34.776 263.628,35.64 261.954,35.64 C259.578,35.64 258.12,33.966 258.12,31.428 L258.12,3.348 L245.214,3.348 L245.214,4.212 L249.156,7.236 L249.156,30.996 C249.156,37.152 253.206,40.284 257.796,40.284 C262.44,40.284 265.086,37.53 266.112,33.966 L265.464,33.696 Z" id="l"></path>
                <path d="M285.984,35.478 C280.26,35.478 276.696,30.834 276.372,25.92 L295.704,25.92 C295.704,17.064 290.25,11.664 281.88,11.664 C273.456,11.664 266.652,17.442 266.652,25.92 C266.652,34.398 273.51,40.284 282.042,40.284 C288.468,40.284 293.166,36.774 295.326,30.51 L294.516,30.186 C292.302,34.02 289.44,35.478 285.984,35.478 Z M281.88,12.528 C285.444,12.528 286.956,15.552 287.064,24.84 L276.318,24.84 C276.372,16.47 278.208,12.528 281.88,12.528 Z" id="e"></path>
                <path d="M346.302,35.586 L346.302,21.6 C346.302,14.742 342.9,11.664 337.77,11.664 C332.532,11.664 329.778,14.688 328.536,18.954 C327.726,13.932 324.594,11.664 320.274,11.664 C314.928,11.664 312.174,14.958 311.094,19.44 L311.094,12.366 L298.134,12.366 L298.134,13.446 L302.076,16.308 L302.076,35.586 L298.134,38.448 L298.134,39.528 L314.28,39.528 L314.28,38.448 L311.094,35.586 L311.094,23.166 C311.094,19.548 312.606,16.362 315.846,16.362 C318.438,16.362 319.68,18.144 319.68,21.654 L319.68,35.586 L316.548,38.448 L316.548,39.528 L331.83,39.528 L331.83,38.448 L328.698,35.586 L328.698,23.004 C328.698,19.494 330.102,16.362 333.342,16.362 C335.988,16.362 337.284,18.198 337.284,21.816 L337.284,35.586 L334.152,38.448 L334.152,39.528 L350.19,39.528 L350.19,38.448 L346.302,35.586 Z" id="m"></path>
                <path d="M371.628,35.478 C365.904,35.478 362.34,30.834 362.016,25.92 L381.348,25.92 C381.348,17.064 375.894,11.664 367.524,11.664 C359.1,11.664 352.296,17.442 352.296,25.92 C352.296,34.398 359.154,40.284 367.686,40.284 C374.112,40.284 378.81,36.774 380.97,30.51 L380.16,30.186 C377.946,34.02 375.084,35.478 371.628,35.478 Z M367.524,12.528 C371.088,12.528 372.6,15.552 372.708,24.84 L361.962,24.84 C362.016,16.47 363.852,12.528 367.524,12.528 Z" id="e"></path>
                <path d="M414.774,35.586 L414.774,21.6 C414.774,14.742 411.318,11.664 406.134,11.664 C400.572,11.664 397.926,15.066 396.738,19.818 L396.738,12.366 L383.778,12.366 L383.778,13.446 L387.72,16.308 L387.72,35.586 L383.778,38.448 L383.778,39.528 L399.816,39.528 L399.816,38.448 L396.738,35.586 L396.738,23.274 C396.738,19.656 398.52,16.362 401.814,16.362 C404.46,16.362 405.81,18.198 405.81,21.816 L405.81,35.586 L402.678,38.448 L402.678,39.528 L418.716,39.528 L418.716,38.448 L414.774,35.586 Z" id="n"></path>
                <path d="M439.182,31.266 C438.48,34.02 437.238,35.64 435.024,35.64 C432.972,35.64 431.568,33.966 431.568,31.428 L431.568,13.446 L439.668,13.446 L439.668,12.366 L431.568,12.366 L431.568,3.618 L430.488,3.618 L422.604,12.366 L419.202,12.366 L419.202,13.446 L422.604,13.446 L422.604,31.05 C422.604,37.098 426.492,40.284 431.298,40.284 C436.644,40.284 439.398,36.288 440.154,31.482 L439.182,31.266 Z" id="t"></path>
                <polygon id="N" points="490.266 3.348 481.194 3.348 481.194 4.428 485.136 7.236 485.136 25.974 467.262 3.348 453.816 3.348 453.816 4.428 457.65 7.884 457.65 35.586 453.762 38.448 453.762 39.528 462.78 39.528 462.78 38.448 458.838 35.586 458.838 9.18 483.03 39.528 486.324 39.528 486.324 7.236 490.266 4.428"></polygon>
                <path d="M508.194,11.664 C499.716,11.664 492.696,17.442 492.696,25.92 C492.696,34.398 499.716,40.284 508.194,40.284 C516.726,40.284 523.692,34.398 523.692,25.92 C523.692,17.442 516.726,11.664 508.194,11.664 Z M508.194,39.204 C504.36,39.204 502.362,35.802 502.362,25.92 C502.362,15.93 504.36,12.744 508.194,12.744 C512.082,12.744 514.08,15.93 514.08,25.92 C514.08,35.802 512.082,39.204 508.194,39.204 Z" id="o"></path>
                <path d="M531.09,29.7 C528.12,29.7 526.014,32.022 526.014,34.776 C526.014,37.584 528.12,39.798 531.09,39.798 C534.006,39.798 536.166,37.584 536.166,34.776 C536.166,32.022 534.006,29.7 531.09,29.7 Z" id="."></path>
                <polygon id="7" points="576.774 8.046 550.53 8.046 550.53 21.168 551.718 21.168 560.25 11.124 574.398 14.85 553.338 42.066 553.716 43.146 566.136 43.146 576.774 9.072"></polygon>
                <path d="M608.58,32.94 L608.58,31.806 L601.29,31.806 L601.29,7.884 L593.946,7.884 L575.478,31.806 L575.478,32.94 L592.272,32.94 L592.272,39.096 L587.304,41.904 L587.304,42.984 L605.61,42.984 L605.61,41.904 L601.29,39.096 L601.29,32.94 L608.58,32.94 Z M592.272,31.806 L576.99,31.806 L592.272,12.096 L592.272,31.806 Z" id="4"></path>
            </g>
            <rect id="Rectangle-Copy-5" x="0" y="0" width="966" height="94"></rect>
        </g>
    </g>
</svg>