<?xml version="1.0" encoding="UTF-8"?>
<svg width="966px" height="94px" viewBox="0 0 966 94" version="1.1" xmlns="http://www.w3.org/2000/svg" xmlns:xlink="http://www.w3.org/1999/xlink">
    <title>Group 2</title>
    <g id="Page-1" stroke="none" stroke-width="1" fill="none" fill-rule="evenodd">
        <g id="Group-2">
            <g id="Atomic-Element-No.-7-Copy-4" transform="translate(7.000000, 19.374222)" fill="#000000" fill-rule="nonzero">
                <path d="M44.352,41.792 L24.448,3.968 L21.504,3.968 L4.608,42.304 L0,45.568 L0,46.848 L11.328,46.848 L11.328,45.568 L6.144,42.304 L9.792,33.984 L27.84,33.984 L31.872,41.92 L28.416,45.568 L28.416,46.848 L48.064,46.848 L48.064,45.568 L44.352,41.792 Z M10.368,32.704 L17.92,15.424 L18.368,15.424 L27.136,32.704 L10.368,32.704 Z" id="A"></path>
                <path d="M71.616,37.056 C70.784,40.32 69.312,42.24 66.688,42.24 C64.256,42.24 62.592,40.256 62.592,37.248 L62.592,15.936 L72.192,15.936 L72.192,14.656 L62.592,14.656 L62.592,4.288 L61.312,4.288 L51.968,14.656 L47.936,14.656 L47.936,15.936 L51.968,15.936 L51.968,36.8 C51.968,43.968 56.576,47.744 62.272,47.744 C68.608,47.744 71.872,43.008 72.768,37.312 L71.616,37.056 Z" id="t"></path>
                <path d="M93.184,13.824 C83.136,13.824 74.816,20.672 74.816,30.72 C74.816,40.768 83.136,47.744 93.184,47.744 C103.296,47.744 111.552,40.768 111.552,30.72 C111.552,20.672 103.296,13.824 93.184,13.824 Z M93.184,46.464 C88.64,46.464 86.272,42.432 86.272,30.72 C86.272,18.88 88.64,15.104 93.184,15.104 C97.792,15.104 100.16,18.88 100.16,30.72 C100.16,42.432 97.792,46.464 93.184,46.464 Z" id="o"></path>
                <path d="M171.584,42.176 L171.584,25.6 C171.584,17.472 167.552,13.824 161.472,13.824 C155.264,13.824 152,17.408 150.528,22.464 C149.568,16.512 145.856,13.824 140.736,13.824 C134.4,13.824 131.136,17.728 129.856,23.04 L129.856,14.656 L114.496,14.656 L114.496,15.936 L119.168,19.328 L119.168,42.176 L114.496,45.568 L114.496,46.848 L133.632,46.848 L133.632,45.568 L129.856,42.176 L129.856,27.456 C129.856,23.168 131.648,19.392 135.488,19.392 C138.56,19.392 140.032,21.504 140.032,25.664 L140.032,42.176 L136.32,45.568 L136.32,46.848 L154.432,46.848 L154.432,45.568 L150.72,42.176 L150.72,27.264 C150.72,23.104 152.384,19.392 156.224,19.392 C159.36,19.392 160.896,21.568 160.896,25.856 L160.896,42.176 L157.184,45.568 L157.184,46.848 L176.192,46.848 L176.192,45.568 L171.584,42.176 Z" id="m"></path>
                <path d="M188.224,11.072 C191.552,11.072 193.92,8.704 193.92,5.568 C193.92,2.624 191.552,0 188.224,0 C184.896,0 182.528,2.624 182.528,5.568 C182.528,8.704 184.896,11.072 188.224,11.072 Z M193.6,42.176 L193.6,14.656 L178.24,14.656 L178.24,15.936 L182.912,19.328 L182.912,42.176 L178.24,45.568 L178.24,46.848 L198.208,46.848 L198.208,45.568 L193.6,42.176 Z" id="i"></path>
                <path d="M232.832,36.16 C230.4,40.512 227.2,42.048 223.36,42.048 C216.192,42.048 212.16,36.992 212.16,27.328 C212.16,20.992 214.016,15.104 219.84,15.104 C221.376,15.104 222.592,15.424 223.808,16.512 L231.872,29.376 L233.024,29.376 L233.024,14.336 L231.808,14.336 L228.032,15.424 C224.96,14.272 221.952,13.824 219.008,13.824 C208.896,13.824 200.768,20.736 200.768,30.656 C200.768,40.896 208,47.744 217.984,47.744 C225.28,47.744 231.296,43.84 233.856,36.608 L232.832,36.16 Z" id="c"></path>
                <polygon id="E" points="287.424 32.448 279.68 45.568 266.688 45.568 266.688 25.92 275.84 25.92 281.536 32.96 282.88 32.96 282.88 17.664 281.536 17.664 275.84 24.64 266.688 24.64 266.688 5.248 279.04 5.248 286.784 18.368 288.128 18.368 288.128 3.968 251.072 3.968 251.072 5.248 255.68 8.576 255.68 42.176 251.072 45.568 251.072 46.848 288.768 46.848 288.768 32.448"></polygon>
                <path d="M314.624,39.936 C313.792,41.216 312.448,42.24 310.464,42.24 C307.648,42.24 305.92,40.256 305.92,37.248 L305.92,3.968 L290.624,3.968 L290.624,4.992 L295.296,8.576 L295.296,36.736 C295.296,44.032 300.096,47.744 305.536,47.744 C311.04,47.744 314.176,44.48 315.392,40.256 L314.624,39.936 Z" id="l"></path>
                <path d="M338.944,42.048 C332.16,42.048 327.936,36.544 327.552,30.72 L350.464,30.72 C350.464,20.224 344,13.824 334.08,13.824 C324.096,13.824 316.032,20.672 316.032,30.72 C316.032,40.768 324.16,47.744 334.272,47.744 C341.888,47.744 347.456,43.584 350.016,36.16 L349.056,35.776 C346.432,40.32 343.04,42.048 338.944,42.048 Z M334.08,14.848 C338.304,14.848 340.096,18.432 340.224,29.44 L327.488,29.44 C327.552,19.52 329.728,14.848 334.08,14.848 Z" id="e"></path>
                <path d="M410.432,42.176 L410.432,25.6 C410.432,17.472 406.4,13.824 400.32,13.824 C394.112,13.824 390.848,17.408 389.376,22.464 C388.416,16.512 384.704,13.824 379.584,13.824 C373.248,13.824 369.984,17.728 368.704,23.04 L368.704,14.656 L353.344,14.656 L353.344,15.936 L358.016,19.328 L358.016,42.176 L353.344,45.568 L353.344,46.848 L372.48,46.848 L372.48,45.568 L368.704,42.176 L368.704,27.456 C368.704,23.168 370.496,19.392 374.336,19.392 C377.408,19.392 378.88,21.504 378.88,25.664 L378.88,42.176 L375.168,45.568 L375.168,46.848 L393.28,46.848 L393.28,45.568 L389.568,42.176 L389.568,27.264 C389.568,23.104 391.232,19.392 395.072,19.392 C398.208,19.392 399.744,21.568 399.744,25.856 L399.744,42.176 L396.032,45.568 L396.032,46.848 L415.04,46.848 L415.04,45.568 L410.432,42.176 Z" id="m"></path>
                <path d="M440.448,42.048 C433.664,42.048 429.44,36.544 429.056,30.72 L451.968,30.72 C451.968,20.224 445.504,13.824 435.584,13.824 C425.6,13.824 417.536,20.672 417.536,30.72 C417.536,40.768 425.664,47.744 435.776,47.744 C443.392,47.744 448.96,43.584 451.52,36.16 L450.56,35.776 C447.936,40.32 444.544,42.048 440.448,42.048 Z M435.584,14.848 C439.808,14.848 441.6,18.432 441.728,29.44 L428.992,29.44 C429.056,19.52 431.232,14.848 435.584,14.848 Z" id="e"></path>
                <path d="M491.584,42.176 L491.584,25.6 C491.584,17.472 487.488,13.824 481.344,13.824 C474.752,13.824 471.616,17.856 470.208,23.488 L470.208,14.656 L454.848,14.656 L454.848,15.936 L459.52,19.328 L459.52,42.176 L454.848,45.568 L454.848,46.848 L473.856,46.848 L473.856,45.568 L470.208,42.176 L470.208,27.584 C470.208,23.296 472.32,19.392 476.224,19.392 C479.36,19.392 480.96,21.568 480.96,25.856 L480.96,42.176 L477.248,45.568 L477.248,46.848 L496.256,46.848 L496.256,45.568 L491.584,42.176 Z" id="n"></path>
                <path d="M520.512,37.056 C519.68,40.32 518.208,42.24 515.584,42.24 C513.152,42.24 511.488,40.256 511.488,37.248 L511.488,15.936 L521.088,15.936 L521.088,14.656 L511.488,14.656 L511.488,4.288 L510.208,4.288 L500.864,14.656 L496.832,14.656 L496.832,15.936 L500.864,15.936 L500.864,36.8 C500.864,43.968 505.472,47.744 511.168,47.744 C517.504,47.744 520.768,43.008 521.664,37.312 L520.512,37.056 Z" id="t"></path>
                <polygon id="N" points="581.056 3.968 570.304 3.968 570.304 5.248 574.976 8.576 574.976 30.784 553.792 3.968 537.856 3.968 537.856 5.248 542.4 9.344 542.4 42.176 537.792 45.568 537.792 46.848 548.48 46.848 548.48 45.568 543.808 42.176 543.808 10.88 572.48 46.848 576.384 46.848 576.384 8.576 581.056 5.248"></polygon>
                <path d="M602.304,13.824 C592.256,13.824 583.936,20.672 583.936,30.72 C583.936,40.768 592.256,47.744 602.304,47.744 C612.416,47.744 620.672,40.768 620.672,30.72 C620.672,20.672 612.416,13.824 602.304,13.824 Z M602.304,46.464 C597.76,46.464 595.392,42.432 595.392,30.72 C595.392,18.88 597.76,15.104 602.304,15.104 C606.912,15.104 609.28,18.88 609.28,30.72 C609.28,42.432 606.912,46.464 602.304,46.464 Z" id="o"></path>
                <path d="M629.44,35.2 C625.92,35.2 623.424,37.952 623.424,41.216 C623.424,44.544 625.92,47.168 629.44,47.168 C632.896,47.168 635.456,44.544 635.456,41.216 C635.456,37.952 632.896,35.2 629.44,35.2 Z" id="."></path>
                <polygon id="7" points="683.584 9.536 652.48 9.536 652.48 25.088 653.888 25.088 664 13.184 680.768 17.6 655.808 49.856 656.256 51.136 670.976 51.136 683.584 10.752"></polygon>
                <path d="M721.28,39.04 L721.28,37.696 L712.64,37.696 L712.64,9.344 L703.936,9.344 L682.048,37.696 L682.048,39.04 L701.952,39.04 L701.952,46.336 L696.064,49.664 L696.064,50.944 L717.76,50.944 L717.76,49.664 L712.64,46.336 L712.64,39.04 L721.28,39.04 Z M701.952,37.696 L683.84,37.696 L701.952,14.336 L701.952,37.696 Z" id="4"></path>
            </g>
            <rect id="Rectangle-Copy" x="0" y="0" width="966" height="94"></rect>
        </g>
    </g>
</svg>