<?xml version="1.0" encoding="UTF-8"?>
<svg width="966px" height="94px" viewBox="0 0 966 94" version="1.1" xmlns="http://www.w3.org/2000/svg" xmlns:xlink="http://www.w3.org/1999/xlink">
    <title>Group</title>
    <g id="Page-1" stroke="none" stroke-width="1" fill="none" fill-rule="evenodd">
        <g id="Group">
            <g id="Atomic-Element-No.-7-Copy-2" transform="translate(7.000000, 11.512000)" fill="#000000" fill-rule="nonzero">
                <path d="M58.212,54.852 L32.088,5.208 L28.224,5.208 L6.048,55.524 L0,59.808 L0,61.488 L14.868,61.488 L14.868,59.808 L8.064,55.524 L12.852,44.604 L36.54,44.604 L41.832,55.02 L37.296,59.808 L37.296,61.488 L63.084,61.488 L63.084,59.808 L58.212,54.852 Z M13.608,42.924 L23.52,20.244 L24.108,20.244 L35.616,42.924 L13.608,42.924 Z" id="A"></path>
                <path d="M93.996,48.636 C92.904,52.92 90.972,55.44 87.528,55.44 C84.336,55.44 82.152,52.836 82.152,48.888 L82.152,20.916 L94.752,20.916 L94.752,19.236 L82.152,19.236 L82.152,5.628 L80.472,5.628 L68.208,19.236 L62.916,19.236 L62.916,20.916 L68.208,20.916 L68.208,48.3 C68.208,57.708 74.256,62.664 81.732,62.664 C90.048,62.664 94.332,56.448 95.508,48.972 L93.996,48.636 Z" id="t"></path>
                <path d="M122.304,18.144 C109.116,18.144 98.196,27.132 98.196,40.32 C98.196,53.508 109.116,62.664 122.304,62.664 C135.576,62.664 146.412,53.508 146.412,40.32 C146.412,27.132 135.576,18.144 122.304,18.144 Z M122.304,60.984 C116.34,60.984 113.232,55.692 113.232,40.32 C113.232,24.78 116.34,19.824 122.304,19.824 C128.352,19.824 131.46,24.78 131.46,40.32 C131.46,55.692 128.352,60.984 122.304,60.984 Z" id="o"></path>
                <path d="M225.204,55.356 L225.204,33.6 C225.204,22.932 219.912,18.144 211.932,18.144 C203.784,18.144 199.5,22.848 197.568,29.484 C196.308,21.672 191.436,18.144 184.716,18.144 C176.4,18.144 172.116,23.268 170.436,30.24 L170.436,19.236 L150.276,19.236 L150.276,20.916 L156.408,25.368 L156.408,55.356 L150.276,59.808 L150.276,61.488 L175.392,61.488 L175.392,59.808 L170.436,55.356 L170.436,36.036 C170.436,30.408 172.788,25.452 177.828,25.452 C181.86,25.452 183.792,28.224 183.792,33.684 L183.792,55.356 L178.92,59.808 L178.92,61.488 L202.692,61.488 L202.692,59.808 L197.82,55.356 L197.82,35.784 C197.82,30.324 200.004,25.452 205.044,25.452 C209.16,25.452 211.176,28.308 211.176,33.936 L211.176,55.356 L206.304,59.808 L206.304,61.488 L231.252,61.488 L231.252,59.808 L225.204,55.356 Z" id="m"></path>
                <path d="M247.044,14.532 C251.412,14.532 254.52,11.424 254.52,7.308 C254.52,3.444 251.412,0 247.044,0 C242.676,0 239.568,3.444 239.568,7.308 C239.568,11.424 242.676,14.532 247.044,14.532 Z M254.1,55.356 L254.1,19.236 L233.94,19.236 L233.94,20.916 L240.072,25.368 L240.072,55.356 L233.94,59.808 L233.94,61.488 L260.148,61.488 L260.148,59.808 L254.1,55.356 Z" id="i"></path>
                <path d="M305.592,47.46 C302.4,53.172 298.2,55.188 293.16,55.188 C283.752,55.188 278.46,48.552 278.46,35.868 C278.46,27.552 280.896,19.824 288.54,19.824 C290.556,19.824 292.152,20.244 293.748,21.672 L304.332,38.556 L305.844,38.556 L305.844,18.816 L304.248,18.816 L299.292,20.244 C295.26,18.732 291.312,18.144 287.448,18.144 C274.176,18.144 263.508,27.216 263.508,40.236 C263.508,53.676 273,62.664 286.104,62.664 C295.68,62.664 303.576,57.54 306.936,48.048 L305.592,47.46 Z" id="c"></path>
                <polygon id="E" points="377.244 42.588 367.08 59.808 350.028 59.808 350.028 34.02 362.04 34.02 369.516 43.26 371.28 43.26 371.28 23.184 369.516 23.184 362.04 32.34 350.028 32.34 350.028 6.888 366.24 6.888 376.404 24.108 378.168 24.108 378.168 5.208 329.532 5.208 329.532 6.888 335.58 11.256 335.58 55.356 329.532 59.808 329.532 61.488 379.008 61.488 379.008 42.588"></polygon>
                <path d="M412.944,52.416 C411.852,54.096 410.088,55.44 407.484,55.44 C403.788,55.44 401.52,52.836 401.52,48.888 L401.52,5.208 L381.444,5.208 L381.444,6.552 L387.576,11.256 L387.576,48.216 C387.576,57.792 393.876,62.664 401.016,62.664 C408.24,62.664 412.356,58.38 413.952,52.836 L412.944,52.416 Z" id="l"></path>
                <path d="M444.864,55.188 C435.96,55.188 430.416,47.964 429.912,40.32 L459.984,40.32 C459.984,26.544 451.5,18.144 438.48,18.144 C425.376,18.144 414.792,27.132 414.792,40.32 C414.792,53.508 425.46,62.664 438.732,62.664 C448.728,62.664 456.036,57.204 459.396,47.46 L458.136,46.956 C454.692,52.92 450.24,55.188 444.864,55.188 Z M438.48,19.488 C444.024,19.488 446.376,24.192 446.544,38.64 L429.828,38.64 C429.912,25.62 432.768,19.488 438.48,19.488 Z" id="e"></path>
                <path d="M538.692,55.356 L538.692,33.6 C538.692,22.932 533.4,18.144 525.42,18.144 C517.272,18.144 512.988,22.848 511.056,29.484 C509.796,21.672 504.924,18.144 498.204,18.144 C489.888,18.144 485.604,23.268 483.924,30.24 L483.924,19.236 L463.764,19.236 L463.764,20.916 L469.896,25.368 L469.896,55.356 L463.764,59.808 L463.764,61.488 L488.88,61.488 L488.88,59.808 L483.924,55.356 L483.924,36.036 C483.924,30.408 486.276,25.452 491.316,25.452 C495.348,25.452 497.28,28.224 497.28,33.684 L497.28,55.356 L492.408,59.808 L492.408,61.488 L516.18,61.488 L516.18,59.808 L511.308,55.356 L511.308,35.784 C511.308,30.324 513.492,25.452 518.532,25.452 C522.648,25.452 524.664,28.308 524.664,33.936 L524.664,55.356 L519.792,59.808 L519.792,61.488 L544.74,61.488 L544.74,59.808 L538.692,55.356 Z" id="m"></path>
                <path d="M578.088,55.188 C569.184,55.188 563.64,47.964 563.136,40.32 L593.208,40.32 C593.208,26.544 584.724,18.144 571.704,18.144 C558.6,18.144 548.016,27.132 548.016,40.32 C548.016,53.508 558.684,62.664 571.956,62.664 C581.952,62.664 589.26,57.204 592.62,47.46 L591.36,46.956 C587.916,52.92 583.464,55.188 578.088,55.188 Z M571.704,19.488 C577.248,19.488 579.6,24.192 579.768,38.64 L563.052,38.64 C563.136,25.62 565.992,19.488 571.704,19.488 Z" id="e"></path>
                <path d="M645.204,55.356 L645.204,33.6 C645.204,22.932 639.828,18.144 631.764,18.144 C623.112,18.144 618.996,23.436 617.148,30.828 L617.148,19.236 L596.988,19.236 L596.988,20.916 L603.12,25.368 L603.12,55.356 L596.988,59.808 L596.988,61.488 L621.936,61.488 L621.936,59.808 L617.148,55.356 L617.148,36.204 C617.148,30.576 619.92,25.452 625.044,25.452 C629.16,25.452 631.26,28.308 631.26,33.936 L631.26,55.356 L626.388,59.808 L626.388,61.488 L651.336,61.488 L651.336,59.808 L645.204,55.356 Z" id="n"></path>
                <path d="M683.172,48.636 C682.08,52.92 680.148,55.44 676.704,55.44 C673.512,55.44 671.328,52.836 671.328,48.888 L671.328,20.916 L683.928,20.916 L683.928,19.236 L671.328,19.236 L671.328,5.628 L669.648,5.628 L657.384,19.236 L652.092,19.236 L652.092,20.916 L657.384,20.916 L657.384,48.3 C657.384,57.708 663.432,62.664 670.908,62.664 C679.224,62.664 683.508,56.448 684.684,48.972 L683.172,48.636 Z" id="t"></path>
                <polygon id="N" points="762.636 5.208 748.524 5.208 748.524 6.888 754.656 11.256 754.656 40.404 726.852 5.208 705.936 5.208 705.936 6.888 711.9 12.264 711.9 55.356 705.852 59.808 705.852 61.488 719.88 61.488 719.88 59.808 713.748 55.356 713.748 14.28 751.38 61.488 756.504 61.488 756.504 11.256 762.636 6.888"></polygon>
                <path d="M790.524,18.144 C777.336,18.144 766.416,27.132 766.416,40.32 C766.416,53.508 777.336,62.664 790.524,62.664 C803.796,62.664 814.632,53.508 814.632,40.32 C814.632,27.132 803.796,18.144 790.524,18.144 Z M790.524,60.984 C784.56,60.984 781.452,55.692 781.452,40.32 C781.452,24.78 784.56,19.824 790.524,19.824 C796.572,19.824 799.68,24.78 799.68,40.32 C799.68,55.692 796.572,60.984 790.524,60.984 Z" id="o"></path>
                <path d="M826.14,46.2 C821.52,46.2 818.244,49.812 818.244,54.096 C818.244,58.464 821.52,61.908 826.14,61.908 C830.676,61.908 834.036,58.464 834.036,54.096 C834.036,49.812 830.676,46.2 826.14,46.2 Z" id="."></path>
                <polygon id="7" points="897.204 12.516 856.38 12.516 856.38 32.928 858.228 32.928 871.5 17.304 893.508 23.1 860.748 65.436 861.336 67.116 880.656 67.116 897.204 14.112"></polygon>
                <path d="M946.68,51.24 L946.68,49.476 L935.34,49.476 L935.34,12.264 L923.916,12.264 L895.188,49.476 L895.188,51.24 L921.312,51.24 L921.312,60.816 L913.584,65.184 L913.584,66.864 L942.06,66.864 L942.06,65.184 L935.34,60.816 L935.34,51.24 L946.68,51.24 Z M921.312,49.476 L897.54,49.476 L921.312,18.816 L921.312,49.476 Z" id="4"></path>
            </g>
            <rect id="Rectangle" x="0" y="0" width="966" height="94"></rect>
        </g>
    </g>
</svg>