<svg id="Layer_1" data-name="Layer 1" xmlns="http://www.w3.org/2000/svg" viewBox="0 0 2084 44"><defs><style>.cls-1{fill:#fff;}</style></defs><path class="cls-1" d="M.69,17.2c1-6,5.34-10,11.76-10,5.92,0,8.81,3.67,7.93,9-.59,3.66-2.24,6.26-5.5,6.43-1.76.13-2.32-.57-2.32-1.6h-.08c-.5.9-2.15,1.61-3.83,1.51-2.32-.12-4-1.92-3.46-5.43a6.12,6.12,0,0,1,5-5.39c1.72-.26,3.19.36,3.35,1h.1l.14-.83h2.33l-1.21,7.28c-.09.69.16,1.08.67,1.08,1,0,1.79-1.33,2.26-4.25.79-4.68-2.28-6.4-5.87-6.4-5,0-7.92,3.22-8.63,7.49C2.6,21.82,4.82,24.4,9.68,24.4A13.47,13.47,0,0,0,14,23.64l.39,2.17a13.35,13.35,0,0,1-5.32,1C2.75,26.84-.3,23.29.69,17.2ZM12.83,17c.29-1.79-.1-2.79-2-2.79A3.06,3.06,0,0,0,7.78,17c-.25,1.58.15,3.07,2.1,3.07S12.52,19,12.83,17Z"/><path class="cls-1" d="M33.23,9.29,31.47,20a5.71,5.71,0,0,1-6,4.82c-2.78,0-4.74-1.47-4.24-4.51h3.19c-.16,1.24.42,1.92,1.54,1.92s2-.81,2.29-2.27L30,9.29Z"/><path class="cls-1" d="M40.39,24.78c-4.16,0-6.85-3-6-8,.8-4.9,4.27-7.67,8.26-7.67s6.83,3,6,8.06C47.8,22,44.35,24.78,40.39,24.78Zm2.12-12.85c-2.45,0-4.39,1.89-4.92,5.21-.55,3.15.68,4.78,2.92,4.78,2.44,0,4.36-1.85,4.9-5.17C45.93,13.61,44.77,11.93,42.51,11.93Z"/><path class="cls-1" d="M62.55,24.57H59.76l-5-9.62h-.12L53,24.57H49.77L52.31,9.29h2.83l5,9.61h.12l1.59-9.61h3.22Z"/><path class="cls-1" d="M74.22,27h-10l.39-2.41h10Z"/><path class="cls-1" d="M78.47,9.29h6c3.47,0,5.12,2.13,4.62,5.17s-2.89,5.15-6.42,5.15H80l-.83,5H75.93ZM82.6,17a2.94,2.94,0,0,0,3.19-2.56c.24-1.53-.47-2.53-2.34-2.53H81.27L80.42,17Z"/><path class="cls-1" d="M86.92,24.57,94.73,9.29H98.9l2.73,15.28H98.17l-.55-3.49H92.1l-1.72,3.49Zm10.3-6-.91-5.78h-.12l-2.85,5.78Z"/><path class="cls-1" d="M103.53,9.29h12.55L115.63,12H111l-2.09,12.62h-3.2L107.76,12h-4.68Z"/><path class="cls-1" d="M117.57,9.29h12.55L129.67,12H125L122.9,24.57h-3.19L121.8,12h-4.68Z"/><path class="cls-1" d="M132.18,9.29h10.3L142,12H135l-.6,3.64h6.54l-.45,2.66h-6.54l-.59,3.65h7.09L140,24.57H129.65Z"/><path class="cls-1" d="M145.05,9.29h6c3.47,0,5.14,2,4.64,5a5.41,5.41,0,0,1-3.42,4.35l2.26,5.94H151l-2-5.42h-2.35l-.9,5.42h-3.23Zm4.22,7.26c1.86,0,2.88-.76,3.13-2.27s-.52-2.35-2.37-2.35h-2.18l-.77,4.62Z"/><path class="cls-1" d="M164.22,11.78c-1.59,0-2.57.71-2.74,1.71s.84,1.59,2.11,1.89l1.31.33c2.55.6,4.26,1.95,3.84,4.49-.47,2.8-3,4.58-6.69,4.58s-5.8-1.72-5.33-5h3.13c-.16,1.53.93,2.31,2.61,2.31s2.84-.77,3-1.88-.68-1.53-2.29-1.91l-1.59-.42c-2.47-.63-3.84-1.91-3.48-4.17.47-2.78,3.22-4.62,6.57-4.62S170,11,169.6,13.73h-3.1C166.55,12.48,165.76,11.78,164.22,11.78Z"/><path class="cls-1" d="M177.21,24.78c-4.16,0-6.85-3-6-8,.81-4.9,4.28-7.67,8.26-7.67,4.14,0,6.83,3,6,8.06C184.62,22,181.18,24.78,177.21,24.78Zm2.12-12.85c-2.45,0-4.38,1.89-4.92,5.21-.55,3.15.68,4.78,2.92,4.78,2.44,0,4.36-1.85,4.91-5.17C182.75,13.61,181.59,11.93,179.33,11.93Z"/><path class="cls-1" d="M199.37,24.57h-2.79l-5-9.62h-.12l-1.61,9.62h-3.23l2.54-15.28H192l5,9.61h.12l1.59-9.61h3.22Z"/><path class="cls-1" d="M232.78,16.88a4,4,0,0,1,3.77-3.24A2.76,2.76,0,0,1,239.33,17a4,4,0,0,1-3.79,3.24A2.75,2.75,0,0,1,232.78,16.88Z"/><path class="cls-1" d="M282.05,9.29,280.29,20a5.71,5.71,0,0,1-6,4.82c-2.78,0-4.74-1.47-4.24-4.51h3.2c-.17,1.24.42,1.92,1.53,1.92s2-.81,2.29-2.27l1.76-10.63Z"/><path class="cls-1" d="M289.22,24.78c-4.17,0-6.86-3-6-8,.81-4.9,4.28-7.67,8.26-7.67,4.14,0,6.83,3,6,8.06C296.63,22,293.18,24.78,289.22,24.78Zm2.11-12.85c-2.45,0-4.38,1.89-4.92,5.21-.54,3.15.69,4.78,2.93,4.78,2.44,0,4.35-1.85,4.9-5.17C294.75,13.61,293.59,11.93,291.33,11.93Z"/><path class="cls-1" d="M311.38,24.57h-2.8l-5-9.62h-.12l-1.61,9.62h-3.23l2.54-15.28H304l5,9.61h.13l1.59-9.61h3.21Z"/><path class="cls-1" d="M315,17.2c1-6,5.33-10,11.75-10,5.92,0,8.82,3.67,7.94,9-.59,3.66-2.25,6.26-5.51,6.43-1.75.13-2.32-.57-2.31-1.6h-.09c-.49.9-2.14,1.61-3.82,1.51-2.32-.12-4.05-1.92-3.46-5.43a6.12,6.12,0,0,1,5-5.39c1.73-.26,3.2.36,3.35,1H328l.13-.83h2.33l-1.2,7.28c-.1.69.15,1.08.66,1.08,1,0,1.79-1.33,2.26-4.25.79-4.68-2.27-6.4-5.86-6.4-5,0-7.93,3.22-8.64,7.49-.76,4.71,1.45,7.29,6.32,7.29a13.58,13.58,0,0,0,4.35-.76l.39,2.17a13.43,13.43,0,0,1-5.32,1C317.05,26.84,314,23.29,315,17.2ZM327.13,17c.28-1.79-.11-2.79-2-2.79A3.07,3.07,0,0,0,322.07,17c-.25,1.58.15,3.07,2.1,3.07S326.81,19,327.13,17Z"/><path class="cls-1" d="M347.52,9.29,345.76,20a5.71,5.71,0,0,1-6,4.82c-2.78,0-4.74-1.47-4.24-4.51h3.2c-.17,1.24.41,1.92,1.53,1.92s2-.81,2.29-2.27l1.76-10.63Z"/><path class="cls-1" d="M354.69,24.78c-4.17,0-6.86-3-6-8,.81-4.9,4.28-7.67,8.26-7.67,4.14,0,6.83,3,6,8.06C362.09,22,358.65,24.78,354.69,24.78Zm2.11-12.85c-2.45,0-4.38,1.89-4.92,5.21-.55,3.15.69,4.78,2.92,4.78,2.44,0,4.36-1.85,4.91-5.17C360.22,13.61,359.06,11.93,356.8,11.93Z"/><path class="cls-1" d="M376.84,24.57h-2.79L369,15h-.12l-1.61,9.62h-3.23L366.6,9.29h2.83l5,9.61h.13l1.59-9.61h3.21Z"/><path class="cls-1" d="M378.67,24.57l7.81-15.28h4.17l2.73,15.28h-3.46l-.56-3.49h-5.51l-1.72,3.49Zm10.3-6-.91-5.78h-.12l-2.85,5.78Z"/><path class="cls-1" d="M395.28,9.29h12.55L407.38,12h-4.67l-2.09,12.62h-3.2L399.51,12h-4.68Z"/><path class="cls-1" d="M409.9,9.29h3.23l-1.05,6.3h6.56l1.05-6.3h3.22l-2.54,15.28h-3.22l1-6.32h-6.55l-1.05,6.32h-3.23Z"/><path class="cls-1" d="M422.2,24.57,430,9.29h4.17l2.73,15.28h-3.47l-.55-3.49h-5.51l-1.72,3.49Zm10.3-6-.91-5.78h-.12l-2.85,5.78Z"/><path class="cls-1" d="M451.51,24.57h-2.79l-5-9.62h-.12L442,24.57h-3.23l2.54-15.28h2.84l5,9.61h.13l1.59-9.61h3.21Z"/><path class="cls-1" d="M456.71,9.29h6c3.47,0,5.12,2.13,4.62,5.17s-2.89,5.15-6.42,5.15h-2.71l-.83,5h-3.23ZM460.84,17A2.94,2.94,0,0,0,464,14.46c.24-1.53-.47-2.53-2.34-2.53h-2.18L458.66,17Z"/><path class="cls-1" d="M465.16,24.57,473,9.29h4.16l2.73,15.28h-3.46l-.55-3.49h-5.52l-1.72,3.49Zm10.3-6-.91-5.78h-.12l-2.85,5.78Z"/><path class="cls-1" d="M481.77,9.29h12.55L493.88,12H489.2l-2.09,12.62h-3.2L486,12h-4.68Z"/><path class="cls-1" d="M495.81,9.29h12.55L507.91,12h-4.68l-2.09,12.62H498L500,12h-4.68Z"/><path class="cls-1" d="M510.42,9.29h10.3L520.27,12h-7.06l-.6,3.64h6.54l-.45,2.66h-6.54l-.59,3.65h7.09l-.45,2.67H507.89Z"/><path class="cls-1" d="M523.29,9.29h6c3.47,0,5.14,2,4.64,5a5.41,5.41,0,0,1-3.42,4.35l2.26,5.94h-3.57l-2-5.42h-2.35l-.9,5.42h-3.23Zm4.22,7.26c1.86,0,2.88-.76,3.13-2.27s-.52-2.35-2.37-2.35h-2.18l-.77,4.62Z"/><path class="cls-1" d="M542.46,11.78c-1.59,0-2.57.71-2.74,1.71s.84,1.59,2.11,1.89l1.31.33c2.55.6,4.26,1.95,3.84,4.49-.47,2.8-3,4.58-6.69,4.58s-5.8-1.72-5.33-5h3.13c-.16,1.53.93,2.31,2.61,2.31s2.84-.77,3-1.88-.68-1.53-2.29-1.91l-1.59-.42c-2.47-.63-3.84-1.91-3.48-4.17.47-2.78,3.22-4.62,6.57-4.62s5.32,1.87,4.9,4.65h-3.09C544.79,12.48,544,11.78,542.46,11.78Z"/><path class="cls-1" d="M555.45,24.78c-4.16,0-6.85-3-6-8,.81-4.9,4.28-7.67,8.26-7.67,4.14,0,6.83,3,6,8.06C562.86,22,559.42,24.78,555.45,24.78Zm2.12-12.85c-2.45,0-4.38,1.89-4.92,5.21-.55,3.15.68,4.78,2.92,4.78,2.44,0,4.36-1.85,4.91-5.17C561,13.61,559.83,11.93,557.57,11.93Z"/><path class="cls-1" d="M577.61,24.57h-2.79l-5-9.62h-.12l-1.61,9.62h-3.23l2.54-15.28h2.83l5,9.61h.12l1.59-9.61h3.22Z"/><path class="cls-1" d="M580.54,23a1.94,1.94,0,0,1,1.94-1.76A1.63,1.63,0,0,1,584.12,23a2,2,0,0,1-1.91,1.79A1.64,1.64,0,0,1,580.54,23Z"/><path class="cls-1" d="M598.41,14.64a2.47,2.47,0,0,0-2.7-2.71c-2.45,0-4.39,1.91-4.94,5.19s.69,4.8,2.92,4.8a4,4,0,0,0,3.93-2.58h3.25a7.62,7.62,0,0,1-7.35,5.44c-4.17,0-6.79-3-6-8,.83-4.91,4.27-7.65,8.21-7.65,3.64,0,6,2,5.87,5.56Z"/><path class="cls-1" d="M609.36,24.78c-4.17,0-6.86-3-6-8,.81-4.9,4.28-7.67,8.26-7.67,4.14,0,6.83,3,6,8.06C616.77,22,613.32,24.78,609.36,24.78Zm2.12-12.85c-2.46,0-4.39,1.89-4.93,5.21-.54,3.15.69,4.78,2.93,4.78,2.44,0,4.35-1.85,4.9-5.17C614.89,13.61,613.73,11.93,611.48,11.93Z"/><path class="cls-1" d="M625.25,9.29l2.52,10.26H628l5.9-10.26h4L635.3,24.57h-3.14l1.66-10h-.13l-5.58,9.87H626l-2.29-9.91h-.13l-1.67,10h-3.14l2.54-15.28Z"/><path class="cls-1" d="M668.7,16.88a4,4,0,0,1,3.77-3.24A2.76,2.76,0,0,1,675.25,17a4,4,0,0,1-3.79,3.24A2.74,2.74,0,0,1,668.7,16.88Z"/><path class="cls-1" d="M707.07,17.2c1-6,5.34-10,11.76-10,5.92,0,8.82,3.67,7.94,9-.59,3.66-2.25,6.26-5.51,6.43-1.76.13-2.32-.57-2.31-1.6h-.09c-.5.9-2.15,1.61-3.82,1.51-2.33-.12-4-1.92-3.47-5.43a6.14,6.14,0,0,1,5-5.39c1.72-.26,3.19.36,3.35,1h.1l.14-.83h2.33l-1.2,7.28c-.1.69.15,1.08.66,1.08,1,0,1.79-1.33,2.26-4.25.79-4.68-2.28-6.4-5.86-6.4-5,0-7.93,3.22-8.64,7.49-.77,4.71,1.45,7.29,6.32,7.29a13.58,13.58,0,0,0,4.35-.76l.38,2.17a13.35,13.35,0,0,1-5.32,1C709.13,26.84,706.08,23.29,707.07,17.2ZM719.21,17c.29-1.79-.1-2.79-2-2.79A3.06,3.06,0,0,0,714.16,17c-.25,1.58.15,3.07,2.1,3.07S718.9,19,719.21,17Z"/><path class="cls-1" d="M739.61,9.29,737.85,20a5.71,5.71,0,0,1-6,4.82c-2.78,0-4.74-1.47-4.24-4.51h3.19c-.16,1.24.42,1.92,1.54,1.92s2-.81,2.29-2.27l1.76-10.63Z"/><path class="cls-1" d="M746.77,24.78c-4.16,0-6.85-3-6-8,.81-4.9,4.28-7.67,8.26-7.67,4.14,0,6.83,3,6,8.06C754.18,22,750.74,24.78,746.77,24.78Zm2.12-12.85c-2.45,0-4.39,1.89-4.92,5.21-.55,3.15.68,4.78,2.92,4.78,2.44,0,4.36-1.85,4.9-5.17C752.31,13.61,751.15,11.93,748.89,11.93Z"/><path class="cls-1" d="M768.93,24.57h-2.79l-5-9.62H761l-1.61,9.62h-3.23l2.54-15.28h2.83l5,9.61h.12l1.59-9.61h3.22Z"/><path class="cls-1" d="M780.6,27h-10l.39-2.41h10Z"/><path class="cls-1" d="M784.85,9.29h6c3.47,0,5.12,2.13,4.62,5.17s-2.89,5.15-6.42,5.15h-2.71l-.83,5h-3.23ZM789,17a2.94,2.94,0,0,0,3.19-2.56c.24-1.53-.47-2.53-2.34-2.53h-2.18L786.8,17Z"/><path class="cls-1" d="M793.3,24.57l7.82-15.28h4.16L808,24.57h-3.46L804,21.08h-5.52l-1.71,3.49Zm10.3-6-.91-5.78h-.12l-2.85,5.78Z"/><path class="cls-1" d="M809.91,9.29h12.55L822,12h-4.68l-2.09,12.62h-3.2L814.14,12h-4.68Z"/><path class="cls-1" d="M824,9.29H836.5L836.05,12h-4.68l-2.09,12.62h-3.19L828.18,12H823.5Z"/><path class="cls-1" d="M838.56,9.29h10.3L848.41,12h-7.06l-.6,3.64h6.54l-.45,2.66H840.3l-.59,3.65h7.09l-.45,2.67H836Z"/><path class="cls-1" d="M851.43,9.29h6c3.47,0,5.15,2,4.65,5a5.43,5.43,0,0,1-3.43,4.35l2.26,5.94h-3.57l-2-5.42H853l-.9,5.42h-3.23Zm4.22,7.26c1.86,0,2.88-.76,3.13-2.27s-.52-2.35-2.37-2.35h-2.18l-.77,4.62Z"/><path class="cls-1" d="M870.6,11.78c-1.59,0-2.57.71-2.73,1.71s.83,1.59,2.1,1.89l1.31.33c2.55.6,4.26,1.95,3.84,4.49-.47,2.8-3,4.58-6.69,4.58s-5.8-1.72-5.33-5h3.13c-.16,1.53.93,2.31,2.61,2.31s2.84-.77,3-1.88-.68-1.53-2.29-1.91L868,17.87c-2.47-.63-3.84-1.91-3.48-4.17.47-2.78,3.22-4.62,6.57-4.62S876.39,11,876,13.73h-3.1C872.93,12.48,872.14,11.78,870.6,11.78Z"/><path class="cls-1" d="M883.59,24.78c-4.16,0-6.85-3-6-8,.81-4.9,4.28-7.67,8.26-7.67,4.14,0,6.83,3,6,8.06C891,22,887.56,24.78,883.59,24.78Zm2.12-12.85c-2.45,0-4.38,1.89-4.92,5.21-.55,3.15.69,4.78,2.92,4.78,2.44,0,4.36-1.85,4.91-5.17C889.13,13.61,888,11.93,885.71,11.93Z"/><path class="cls-1" d="M905.75,24.57H903l-5-9.62h-.12l-1.61,9.62H893l2.54-15.28h2.83l5,9.61h.13l1.58-9.61h3.22Z"/><path class="cls-1" d="M939.16,16.88a4,4,0,0,1,3.77-3.24A2.76,2.76,0,0,1,945.71,17a4,4,0,0,1-3.79,3.24A2.75,2.75,0,0,1,939.16,16.88Z"/><path class="cls-1" d="M988.43,9.29,986.67,20a5.71,5.71,0,0,1-6,4.82c-2.78,0-4.74-1.47-4.24-4.51h3.2c-.17,1.24.42,1.92,1.54,1.92s2-.81,2.29-2.27l1.75-10.63Z"/><path class="cls-1" d="M995.6,24.78c-4.17,0-6.86-3-6-8,.81-4.9,4.28-7.67,8.26-7.67,4.14,0,6.83,3,6,8.06C1003,22,999.56,24.78,995.6,24.78Zm2.12-12.85c-2.46,0-4.39,1.89-4.93,5.21-.54,3.15.69,4.78,2.93,4.78,2.44,0,4.35-1.85,4.9-5.17C1001.13,13.61,1000,11.93,997.72,11.93Z"/><path class="cls-1" d="M1017.76,24.57H1015l-5-9.62h-.12l-1.6,9.62H1005l2.54-15.28h2.84l5,9.61h.13l1.59-9.61h3.21Z"/><path class="cls-1" d="M1021.37,17.2c1-6,5.33-10,11.75-10,5.92,0,8.82,3.67,7.94,9-.59,3.66-2.25,6.26-5.51,6.43-1.75.13-2.32-.57-2.31-1.6h-.09c-.49.9-2.14,1.61-3.82,1.51-2.32-.12-4-1.92-3.46-5.43a6.12,6.12,0,0,1,5-5.39c1.73-.26,3.2.36,3.35,1h.11l.13-.83h2.33l-1.2,7.28c-.1.69.15,1.08.66,1.08,1,0,1.79-1.33,2.26-4.25.79-4.68-2.27-6.4-5.86-6.4-5,0-7.93,3.22-8.64,7.49-.76,4.71,1.45,7.29,6.32,7.29a13.58,13.58,0,0,0,4.35-.76l.39,2.17a13.43,13.43,0,0,1-5.32,1C1023.43,26.84,1020.37,23.29,1021.37,17.2Zm12.14-.21c.28-1.79-.11-2.79-2-2.79a3.05,3.05,0,0,0-3,2.82c-.26,1.58.14,3.07,2.09,3.07S1033.19,19,1033.51,17Z"/><path class="cls-1" d="M1053.9,9.29,1052.14,20a5.71,5.71,0,0,1-6,4.82c-2.78,0-4.74-1.47-4.24-4.51h3.2c-.17,1.24.41,1.92,1.53,1.92s2-.81,2.3-2.27l1.75-10.63Z"/><path class="cls-1" d="M1061.07,24.78c-4.17,0-6.86-3-6-8,.81-4.9,4.28-7.67,8.26-7.67,4.14,0,6.83,3,6,8.06C1068.47,22,1065,24.78,1061.07,24.78Zm2.11-12.85c-2.45,0-4.38,1.89-4.92,5.21-.55,3.15.69,4.78,2.92,4.78,2.44,0,4.36-1.85,4.91-5.17C1066.6,13.61,1065.44,11.93,1063.18,11.93Z"/><path class="cls-1" d="M1083.22,24.57h-2.79l-5-9.62h-.12l-1.61,9.62h-3.23L1073,9.29h2.84l5,9.61h.13l1.59-9.61h3.21Z"/><path class="cls-1" d="M1085.05,24.57l7.81-15.28H1097l2.73,15.28h-3.46l-.56-3.49h-5.51l-1.72,3.49Zm10.3-6-.91-5.78h-.12l-2.85,5.78Z"/><path class="cls-1" d="M1101.66,9.29h12.55l-.45,2.66h-4.68L1107,24.57h-3.2L1105.89,12h-4.68Z"/><path class="cls-1" d="M1116.28,9.29h3.23l-1,6.3H1125l1-6.3h3.22l-2.54,15.28h-3.22l1-6.32H1118l-1,6.32h-3.23Z"/><path class="cls-1" d="M1128.58,24.57l7.81-15.28h4.17l2.73,15.28h-3.47l-.55-3.49h-5.51L1132,24.57Zm10.3-6-.91-5.78h-.12L1135,18.56Z"/><path class="cls-1" d="M1157.89,24.57h-2.79l-5-9.62H1150l-1.61,9.62h-3.23l2.54-15.28h2.84l5,9.61h.13l1.59-9.61h3.21Z"/><path class="cls-1" d="M1163.09,9.29h6c3.47,0,5.12,2.13,4.62,5.17s-2.89,5.15-6.42,5.15h-2.71l-.83,5h-3.23Zm4.13,7.73a2.94,2.94,0,0,0,3.19-2.56c.24-1.53-.47-2.53-2.34-2.53h-2.18L1165,17Z"/><path class="cls-1" d="M1171.54,24.57l7.82-15.28h4.16l2.73,15.28h-3.46l-.55-3.49h-5.52L1175,24.57Zm10.3-6-.91-5.78h-.12L1178,18.56Z"/><path class="cls-1" d="M1188.15,9.29h12.55l-.45,2.66h-4.67l-2.09,12.62h-3.2L1192.38,12h-4.68Z"/><path class="cls-1" d="M1202.19,9.29h12.55l-.45,2.66h-4.68l-2.09,12.62h-3.19L1206.42,12h-4.68Z"/><path class="cls-1" d="M1216.8,9.29h10.3l-.45,2.66h-7.06l-.6,3.64h6.54l-.45,2.66h-6.54L1218,21.9H1225l-.45,2.67h-10.32Z"/><path class="cls-1" d="M1229.67,9.29h6c3.47,0,5.14,2,4.64,5a5.41,5.41,0,0,1-3.42,4.35l2.26,5.94h-3.57l-2-5.42h-2.35l-.9,5.42h-3.23Zm4.22,7.26c1.86,0,2.88-.76,3.13-2.27s-.52-2.35-2.37-2.35h-2.18l-.77,4.62Z"/><path class="cls-1" d="M1248.83,11.78c-1.58,0-2.56.71-2.73,1.71s.84,1.59,2.11,1.89l1.31.33c2.55.6,4.26,1.95,3.84,4.49-.47,2.8-2.95,4.58-6.69,4.58s-5.8-1.72-5.33-5h3.13c-.16,1.53.93,2.31,2.61,2.31s2.84-.77,3-1.88-.68-1.53-2.29-1.91l-1.59-.42c-2.47-.63-3.84-1.91-3.48-4.17.47-2.78,3.22-4.62,6.57-4.62s5.32,1.87,4.9,4.65h-3.09C1251.17,12.48,1250.38,11.78,1248.83,11.78Z"/><path class="cls-1" d="M1261.83,24.78c-4.16,0-6.85-3-6-8,.81-4.9,4.28-7.67,8.26-7.67,4.14,0,6.83,3,6,8.06C1269.24,22,1265.8,24.78,1261.83,24.78ZM1264,11.93c-2.45,0-4.38,1.89-4.92,5.21-.55,3.15.68,4.78,2.92,4.78,2.44,0,4.36-1.85,4.91-5.17C1267.37,13.61,1266.21,11.93,1264,11.93Z"/><path class="cls-1" d="M1284,24.57h-2.79l-5-9.62h-.12l-1.61,9.62h-3.23l2.54-15.28h2.83l5,9.61h.12l1.59-9.61h3.22Z"/><path class="cls-1" d="M1286.92,23a1.94,1.94,0,0,1,1.94-1.76A1.63,1.63,0,0,1,1290.5,23a2,2,0,0,1-1.91,1.79A1.64,1.64,0,0,1,1286.92,23Z"/><path class="cls-1" d="M1304.79,14.64a2.47,2.47,0,0,0-2.7-2.71c-2.45,0-4.4,1.91-4.94,5.19s.69,4.8,2.92,4.8a4,4,0,0,0,3.93-2.58h3.25a7.62,7.62,0,0,1-7.35,5.44c-4.18,0-6.79-3-6-8,.82-4.91,4.27-7.65,8.21-7.65,3.64,0,6,2,5.87,5.56Z"/><path class="cls-1" d="M1315.74,24.78c-4.17,0-6.86-3-6-8,.81-4.9,4.28-7.67,8.26-7.67,4.14,0,6.83,3,6,8.06C1323.14,22,1319.7,24.78,1315.74,24.78Zm2.11-12.85c-2.45,0-4.38,1.89-4.92,5.21-.55,3.15.69,4.78,2.92,4.78,2.44,0,4.36-1.85,4.91-5.17C1321.27,13.61,1320.11,11.93,1317.85,11.93Z"/><path class="cls-1" d="M1331.63,9.29l2.52,10.26h.18l5.9-10.26h4l-2.53,15.28h-3.14l1.66-10h-.13l-5.58,9.87h-2.15l-2.3-9.91h-.12l-1.67,10h-3.14l2.54-15.28Z"/><path class="cls-1" d="M1375.08,16.88a4,4,0,0,1,3.77-3.24,2.76,2.76,0,0,1,2.78,3.33,4,4,0,0,1-3.79,3.24A2.74,2.74,0,0,1,1375.08,16.88Z"/><path class="cls-1" d="M1413.45,17.2c1-6,5.34-10,11.76-10,5.92,0,8.81,3.67,7.93,9-.59,3.66-2.24,6.26-5.5,6.43-1.76.13-2.32-.57-2.32-1.6h-.08c-.5.9-2.15,1.61-3.82,1.51-2.33-.12-4.05-1.92-3.47-5.43a6.12,6.12,0,0,1,5-5.39c1.72-.26,3.19.36,3.35,1h.1l.14-.83h2.33l-1.2,7.28c-.1.69.15,1.08.66,1.08,1,0,1.79-1.33,2.26-4.25.79-4.68-2.28-6.4-5.87-6.4-5,0-7.92,3.22-8.63,7.49-.77,4.71,1.45,7.29,6.31,7.29a13.47,13.47,0,0,0,4.35-.76l.39,2.17a13.35,13.35,0,0,1-5.32,1C1415.51,26.84,1412.46,23.29,1413.45,17.2Zm12.14-.21c.29-1.79-.1-2.79-2-2.79a3.06,3.06,0,0,0-3.06,2.82c-.25,1.58.15,3.07,2.1,3.07S1425.28,19,1425.59,17Z"/><path class="cls-1" d="M1446,9.29,1444.23,20a5.71,5.71,0,0,1-6,4.82c-2.78,0-4.74-1.47-4.24-4.51h3.19c-.16,1.24.42,1.92,1.54,1.92s2-.81,2.29-2.27l1.75-10.63Z"/><path class="cls-1" d="M1453.15,24.78c-4.16,0-6.86-3-6-8,.8-4.9,4.27-7.67,8.26-7.67s6.83,3,6,8.06C1460.56,22,1457.11,24.78,1453.15,24.78Zm2.12-12.85c-2.45,0-4.39,1.89-4.92,5.21-.55,3.15.68,4.78,2.92,4.78,2.44,0,4.36-1.85,4.9-5.17C1458.69,13.61,1457.52,11.93,1455.27,11.93Z"/><path class="cls-1" d="M1475.31,24.57h-2.79l-5-9.62h-.11l-1.61,9.62h-3.23l2.54-15.28h2.83l5,9.61h.12l1.59-9.61h3.22Z"/><path class="cls-1" d="M1487,27h-10l.39-2.41h10Z"/><path class="cls-1" d="M1491.23,9.29h6c3.47,0,5.12,2.13,4.62,5.17s-2.89,5.15-6.42,5.15h-2.71l-.83,5h-3.23Zm4.13,7.73a2.94,2.94,0,0,0,3.19-2.56c.24-1.53-.47-2.53-2.34-2.53H1494l-.85,5.09Z"/><path class="cls-1" d="M1499.68,24.57l7.82-15.28h4.16l2.73,15.28h-3.46l-.55-3.49h-5.52l-1.72,3.49Zm10.3-6-.91-5.78H1509l-2.85,5.78Z"/><path class="cls-1" d="M1516.29,9.29h12.55l-.45,2.66h-4.67l-2.09,12.62h-3.2L1520.52,12h-4.68Z"/><path class="cls-1" d="M1530.33,9.29h12.55l-.45,2.66h-4.68l-2.09,12.62h-3.19L1534.56,12h-4.68Z"/><path class="cls-1" d="M1544.94,9.29h10.3l-.45,2.66h-7.06l-.6,3.64h6.54l-.45,2.66h-6.54l-.6,3.65h7.1l-.45,2.67h-10.32Z"/><path class="cls-1" d="M1557.81,9.29h6c3.47,0,5.14,2,4.65,5a5.43,5.43,0,0,1-3.43,4.35l2.26,5.94h-3.57l-2-5.42h-2.35l-.9,5.42h-3.23Zm4.22,7.26c1.86,0,2.88-.76,3.13-2.27s-.52-2.35-2.37-2.35h-2.18l-.77,4.62Z"/><path class="cls-1" d="M1577,11.78c-1.59,0-2.57.71-2.73,1.71s.83,1.59,2.1,1.89l1.31.33c2.55.6,4.26,1.95,3.84,4.49-.47,2.8-3,4.58-6.69,4.58s-5.8-1.72-5.33-5h3.13c-.16,1.53.93,2.31,2.61,2.31s2.84-.77,3-1.88-.68-1.53-2.29-1.91l-1.59-.42c-2.47-.63-3.84-1.91-3.48-4.17.47-2.78,3.22-4.62,6.57-4.62s5.32,1.87,4.91,4.65h-3.1C1579.31,12.48,1578.52,11.78,1577,11.78Z"/><path class="cls-1" d="M1590,24.78c-4.16,0-6.85-3-6-8,.81-4.9,4.28-7.67,8.26-7.67,4.14,0,6.83,3,6,8.06C1597.38,22,1593.94,24.78,1590,24.78Zm2.12-12.85c-2.45,0-4.38,1.89-4.92,5.21-.55,3.15.68,4.78,2.92,4.78,2.44,0,4.36-1.85,4.91-5.17C1595.51,13.61,1594.35,11.93,1592.09,11.93Z"/><path class="cls-1" d="M1612.13,24.57h-2.79l-5-9.62h-.12l-1.61,9.62h-3.23l2.54-15.28h2.83l5,9.61h.13l1.58-9.61h3.22Z"/><path class="cls-1" d="M1645.54,16.88a4,4,0,0,1,3.77-3.24,2.76,2.76,0,0,1,2.78,3.33,4,4,0,0,1-3.79,3.24A2.75,2.75,0,0,1,1645.54,16.88Z"/><path class="cls-1" d="M1694.81,9.29,1693.05,20a5.71,5.71,0,0,1-6,4.82c-2.78,0-4.74-1.47-4.24-4.51h3.2c-.17,1.24.42,1.92,1.53,1.92s2-.81,2.3-2.27l1.75-10.63Z"/><path class="cls-1" d="M1702,24.78c-4.17,0-6.86-3-6-8,.81-4.9,4.28-7.67,8.26-7.67,4.14,0,6.83,3,6,8.06C1709.38,22,1705.94,24.78,1702,24.78Zm2.11-12.85c-2.45,0-4.38,1.89-4.92,5.21-.55,3.15.69,4.78,2.92,4.78,2.45,0,4.36-1.85,4.91-5.17C1707.51,13.61,1706.35,11.93,1704.09,11.93Z"/><path class="cls-1" d="M1724.13,24.57h-2.79l-5-9.62h-.12l-1.61,9.62h-3.23l2.54-15.28h2.84l5,9.61h.13l1.59-9.61h3.21Z"/><path class="cls-1" d="M1727.75,17.2c1-6,5.33-10,11.75-10,5.92,0,8.82,3.67,7.94,9-.59,3.66-2.25,6.26-5.51,6.43-1.75.13-2.32-.57-2.31-1.6h-.09c-.5.9-2.14,1.61-3.82,1.51-2.32-.12-4-1.92-3.47-5.43a6.14,6.14,0,0,1,5-5.39c1.72-.26,3.19.36,3.35,1h.11l.13-.83h2.33l-1.2,7.28c-.1.69.15,1.08.66,1.08,1,0,1.79-1.33,2.26-4.25.79-4.68-2.27-6.4-5.86-6.4-5,0-7.93,3.22-8.64,7.49-.76,4.71,1.45,7.29,6.32,7.29a13.58,13.58,0,0,0,4.35-.76l.38,2.17a13.35,13.35,0,0,1-5.32,1C1729.8,26.84,1726.75,23.29,1727.75,17.2Zm12.13-.21c.29-1.79-.1-2.79-2-2.79a3.06,3.06,0,0,0-3.06,2.82c-.25,1.58.15,3.07,2.1,3.07S1739.57,19,1739.88,17Z"/><path class="cls-1" d="M1760.28,9.29,1758.52,20a5.71,5.71,0,0,1-6,4.82c-2.78,0-4.74-1.47-4.24-4.51h3.2c-.17,1.24.41,1.92,1.53,1.92s2-.81,2.29-2.27l1.76-10.63Z"/><path class="cls-1" d="M1767.44,24.78c-4.16,0-6.85-3-6-8,.81-4.9,4.28-7.67,8.26-7.67,4.14,0,6.83,3,6,8.06C1774.85,22,1771.41,24.78,1767.44,24.78Zm2.12-12.85c-2.45,0-4.38,1.89-4.92,5.21-.55,3.15.69,4.78,2.92,4.78,2.44,0,4.36-1.85,4.91-5.17C1773,13.61,1771.82,11.93,1769.56,11.93Z"/><path class="cls-1" d="M1789.6,24.57h-2.79l-5-9.62h-.12l-1.61,9.62h-3.23l2.54-15.28h2.83l5,9.61h.13l1.58-9.61h3.22Z"/><path class="cls-1" d="M1791.43,24.57l7.81-15.28h4.17l2.73,15.28h-3.47l-.55-3.49h-5.51l-1.72,3.49Zm10.3-6-.91-5.78h-.12l-2.85,5.78Z"/><path class="cls-1" d="M1808,9.29h12.55l-.45,2.66h-4.68l-2.08,12.62h-3.2L1812.27,12h-4.68Z"/><path class="cls-1" d="M1822.66,9.29h3.23l-1.05,6.3h6.56l1-6.3h3.22l-2.54,15.28h-3.22l1-6.32h-6.55l-1.05,6.32h-3.23Z"/><path class="cls-1" d="M1835,24.57l7.81-15.28h4.17l2.73,15.28h-3.47l-.55-3.49h-5.51l-1.72,3.49Zm10.3-6-.91-5.78h-.12l-2.85,5.78Z"/><path class="cls-1" d="M1864.27,24.57h-2.79l-5-9.62h-.12l-1.61,9.62h-3.23L1854,9.29h2.84l5,9.61h.13l1.59-9.61h3.21Z"/><path class="cls-1" d="M1869.47,9.29h6c3.46,0,5.11,2.13,4.61,5.17s-2.88,5.15-6.41,5.15H1871l-.83,5h-3.23ZM1873.6,17a2.94,2.94,0,0,0,3.19-2.56c.24-1.53-.47-2.53-2.34-2.53h-2.18l-.85,5.09Z"/><path class="cls-1" d="M1877.92,24.57l7.81-15.28h4.17l2.73,15.28h-3.46l-.56-3.49h-5.51l-1.72,3.49Zm10.3-6-.91-5.78h-.12l-2.85,5.78Z"/><path class="cls-1" d="M1894.53,9.29h12.55l-.45,2.66H1902l-2.09,12.62h-3.2L1898.76,12h-4.68Z"/><path class="cls-1" d="M1908.57,9.29h12.55l-.45,2.66H1916l-2.09,12.62h-3.19L1912.8,12h-4.68Z"/><path class="cls-1" d="M1923.18,9.29h10.3L1933,12H1926l-.6,3.64h6.54l-.45,2.66h-6.54l-.6,3.65h7.1l-.45,2.67h-10.32Z"/><path class="cls-1" d="M1936.05,9.29h6c3.46,0,5.14,2,4.64,5a5.41,5.41,0,0,1-3.42,4.35l2.26,5.94H1942l-2-5.42h-2.35l-.9,5.42h-3.23Zm4.22,7.26c1.86,0,2.88-.76,3.13-2.27s-.52-2.35-2.37-2.35h-2.18l-.77,4.62Z"/><path class="cls-1" d="M1955.21,11.78c-1.58,0-2.56.71-2.73,1.71s.84,1.59,2.11,1.89l1.31.33c2.55.6,4.26,1.95,3.84,4.49-.47,2.8-3,4.58-6.69,4.58s-5.8-1.72-5.33-5h3.13c-.16,1.53.93,2.31,2.61,2.31s2.84-.77,3-1.88-.68-1.53-2.29-1.91l-1.59-.42c-2.47-.63-3.84-1.91-3.48-4.17.47-2.78,3.21-4.62,6.57-4.62s5.32,1.87,4.9,4.65h-3.09C1957.55,12.48,1956.76,11.78,1955.21,11.78Z"/><path class="cls-1" d="M1968.21,24.78c-4.16,0-6.85-3-6-8,.8-4.9,4.27-7.67,8.26-7.67s6.83,3,6,8.06C1975.62,22,1972.17,24.78,1968.21,24.78Zm2.12-12.85c-2.45,0-4.39,1.89-4.92,5.21-.55,3.15.68,4.78,2.92,4.78,2.44,0,4.36-1.85,4.9-5.17C1973.75,13.61,1972.58,11.93,1970.33,11.93Z"/><path class="cls-1" d="M1990.37,24.57h-2.79l-5-9.62h-.12l-1.6,9.62h-3.23l2.54-15.28H1983l5,9.61h.12l1.59-9.61h3.22Z"/><path class="cls-1" d="M1993.3,23a1.94,1.94,0,0,1,1.94-1.76,1.63,1.63,0,0,1,1.64,1.76,2,2,0,0,1-1.91,1.79A1.64,1.64,0,0,1,1993.3,23Z"/><path class="cls-1" d="M2011.17,14.64a2.47,2.47,0,0,0-2.7-2.71c-2.45,0-4.4,1.91-4.94,5.19s.69,4.8,2.92,4.8a4,4,0,0,0,3.93-2.58h3.24a7.6,7.6,0,0,1-7.34,5.44c-4.18,0-6.79-3-6-8,.82-4.91,4.27-7.65,8.21-7.65,3.64,0,6,2,5.87,5.56Z"/><path class="cls-1" d="M2022.12,24.78c-4.17,0-6.86-3-6-8,.81-4.9,4.28-7.67,8.26-7.67,4.14,0,6.83,3,6,8.06C2029.52,22,2026.08,24.78,2022.12,24.78Zm2.11-12.85c-2.45,0-4.38,1.89-4.92,5.21-.55,3.15.69,4.78,2.92,4.78,2.44,0,4.36-1.85,4.91-5.17C2027.65,13.61,2026.49,11.93,2024.23,11.93Z"/><path class="cls-1" d="M2038,9.29l2.52,10.26h.18l5.9-10.26h4l-2.53,15.28h-3.14l1.66-10h-.13l-5.59,9.87h-2.14l-2.3-9.91h-.12l-1.67,10h-3.14L2034,9.29Z"/></svg>