<svg id="Layer_1" data-name="Layer 1" xmlns="http://www.w3.org/2000/svg" viewBox="0 0 2084 44"><defs><style>.cls-1{fill:#fff;}</style></defs><path class="cls-1" d="M8.93,11.93c-2.34,0-4.38,1.8-4.9,5s.6,5,3,5a3.86,3.86,0,0,0,4.1-3.1H7.86l.41-2.43h6.39l-.33,1.92a7.49,7.49,0,0,1-7.67,6.47c-4.3,0-6.72-3-5.92-7.84S5.16,9.08,9.19,9.08c3.46,0,5.77,2.12,5.68,5.15H11.59A2.38,2.38,0,0,0,8.93,11.93Z"/><path class="cls-1" d="M22.76,24.78c-4.17,0-6.86-3-6-8C17.55,11.85,21,9.08,25,9.08c4.14,0,6.83,3,6,8.06C30.17,22,26.72,24.78,22.76,24.78Zm2.11-12.85c-2.45,0-4.38,1.89-4.92,5.21-.54,3.15.69,4.78,2.93,4.78,2.43,0,4.35-1.85,4.9-5.17C28.29,13.61,27.13,11.93,24.87,11.93Z"/><path class="cls-1" d="M39.18,24.78c-4.17,0-6.86-3-6-8,.81-4.9,4.28-7.67,8.26-7.67,4.14,0,6.83,3,6,8.06C46.59,22,43.14,24.78,39.18,24.78ZM41.3,11.93c-2.46,0-4.39,1.89-4.93,5.21-.54,3.15.69,4.78,2.93,4.78,2.44,0,4.35-1.85,4.9-5.17C44.71,13.61,43.55,11.93,41.3,11.93Z"/><path class="cls-1" d="M57.75,11.93c-2.35,0-4.38,1.8-4.9,5s.59,5,3,5a3.86,3.86,0,0,0,4.1-3.1H56.68l.4-2.43h6.4l-.33,1.92a7.49,7.49,0,0,1-7.68,6.47c-4.3,0-6.71-3-5.92-7.84S54,9.08,58,9.08c3.45,0,5.77,2.12,5.68,5.15H60.4A2.37,2.37,0,0,0,57.75,11.93Z"/><path class="cls-1" d="M67.07,9.29H70.3L68.21,21.9h6.55l-.45,2.67H64.53Z"/><path class="cls-1" d="M79,9.29h10.3L88.83,12H81.77l-.6,3.64H87.7l-.44,2.66H80.72l-.6,3.65h7.1l-.45,2.67H76.45Z"/><path class="cls-1" d="M120.06,16.88a4,4,0,0,1,3.77-3.24A2.77,2.77,0,0,1,126.62,17a4,4,0,0,1-3.8,3.24A2.75,2.75,0,0,1,120.06,16.88Z"/><path class="cls-1" d="M166.68,11.93c-2.35,0-4.38,1.8-4.91,5s.6,5,3,5a3.87,3.87,0,0,0,4.1-3.1h-3.28l.4-2.43h6.4l-.33,1.92a7.49,7.49,0,0,1-7.68,6.47c-4.3,0-6.71-3-5.92-7.84s4.42-7.86,8.46-7.86c3.45,0,5.77,2.12,5.68,5.15h-3.29A2.37,2.37,0,0,0,166.68,11.93Z"/><path class="cls-1" d="M176,9.29h10.3L185.84,12h-7.06l-.6,3.64h6.54l-.45,2.66h-6.54l-.59,3.65h7.09l-.45,2.67H173.46Z"/><path class="cls-1" d="M199.1,24.57h-2.79l-5-9.62h-.12l-1.61,9.62h-3.23l2.54-15.28h2.83l5,9.61h.12l1.59-9.61h3.22Z"/><path class="cls-1" d="M204.3,9.29h10.29L214.14,12h-7.06l-.6,3.64H213l-.45,2.66H206l-.59,3.65h7.09l-.45,2.67H201.76Z"/><path class="cls-1" d="M217.16,9.29h6c3.47,0,5.15,2,4.65,5a5.43,5.43,0,0,1-3.43,4.35l2.26,5.94h-3.56l-2-5.42h-2.35l-.91,5.42h-3.23Zm4.22,7.26c1.86,0,2.88-.76,3.13-2.27s-.52-2.35-2.37-2.35H220l-.77,4.62Z"/><path class="cls-1" d="M227.7,24.57l7.81-15.28h4.17l2.73,15.28H239l-.56-3.49h-5.51l-1.72,3.49Zm10.3-6-.91-5.78H237l-2.85,5.78Z"/><path class="cls-1" d="M246.77,9.29H250L247.91,21.9h6.56L254,24.57h-9.78Z"/><path class="cls-1" d="M267.54,9.29l2.52,10.26h.18l5.9-10.26h4l-2.53,15.28h-3.14l1.66-10H276l-5.59,9.87h-2.14L266,14.58h-.12l-1.67,10H261l2.54-15.28Z"/><path class="cls-1" d="M283.46,24.57h-3.23l2.54-15.28H286Z"/><path class="cls-1" d="M288.66,9.29h3.23L289.8,21.9h6.55l-.44,2.67h-9.79Z"/><path class="cls-1" d="M300.58,9.29h3.23L301.72,21.9h6.55l-.45,2.67H298Z"/><path class="cls-1" d="M317.75,11.78c-1.58,0-2.56.71-2.73,1.71s.84,1.59,2.11,1.89l1.31.33c2.55.6,4.26,1.95,3.84,4.49-.47,2.8-2.95,4.58-6.69,4.58s-5.8-1.72-5.33-5h3.13c-.16,1.53.93,2.31,2.61,2.31s2.84-.77,3-1.88-.68-1.53-2.29-1.91l-1.59-.42c-2.47-.63-3.84-1.91-3.48-4.17.47-2.78,3.21-4.62,6.57-4.62s5.31,1.87,4.9,4.65H320C320.09,12.48,319.3,11.78,317.75,11.78Z"/><path class="cls-1" d="M354.46,16.88a4,4,0,0,1,3.77-3.24A2.77,2.77,0,0,1,361,17a4,4,0,0,1-3.8,3.24A2.75,2.75,0,0,1,354.46,16.88Z"/><path class="cls-1" d="M399.68,11.78c-1.58,0-2.57.71-2.73,1.71s.84,1.59,2.1,1.89l1.32.33c2.55.6,4.26,1.95,3.83,4.49-.47,2.8-2.94,4.58-6.68,4.58s-5.8-1.72-5.33-5h3.13c-.17,1.53.93,2.31,2.61,2.31s2.83-.77,3-1.88-.68-1.53-2.28-1.91l-1.6-.42c-2.46-.63-3.83-1.91-3.48-4.17.47-2.78,3.22-4.62,6.57-4.62s5.32,1.87,4.91,4.65H402C402,12.48,401.23,11.78,399.68,11.78Z"/><path class="cls-1" d="M412.68,24.78c-4.16,0-6.86-3-6-8,.8-4.9,4.27-7.67,8.26-7.67s6.82,3,6,8.06C420.09,22,416.64,24.78,412.68,24.78Zm2.12-12.85c-2.46,0-4.39,1.89-4.93,5.21-.54,3.15.69,4.78,2.93,4.78,2.44,0,4.36-1.85,4.9-5.17C418.22,13.61,417.05,11.93,414.8,11.93Z"/><path class="cls-1" d="M434.84,24.57h-2.79L427,15h-.12l-1.6,9.62h-3.23l2.53-15.28h2.84l5,9.61h.13l1.59-9.61h3.22Z"/><path class="cls-1" d="M442.75,9.29l2.4,6.58h.16l4.56-6.58h3.62l-7.21,9.88-.9,5.4h-3.21l.91-5.4-3.94-9.88Z"/><path class="cls-1" d="M460.11,9.29h6c3.47,0,5.12,2.13,4.62,5.17s-2.89,5.15-6.42,5.15h-2.7l-.83,5h-3.23ZM464.25,17a2.93,2.93,0,0,0,3.18-2.56c.25-1.53-.47-2.53-2.33-2.53h-2.18L462.07,17Z"/><path class="cls-1" d="M474.39,24.57h-3.23L473.7,9.29h3.23Z"/><path class="cls-1" d="M489,14.64a2.47,2.47,0,0,0-2.7-2.71c-2.45,0-4.4,1.91-4.94,5.19s.69,4.8,2.92,4.8a4,4,0,0,0,3.93-2.58h3.24a7.6,7.6,0,0,1-7.35,5.44c-4.17,0-6.79-3-6-8,.82-4.91,4.27-7.65,8.21-7.65,3.64,0,6,2,5.87,5.56Z"/><path class="cls-1" d="M494.8,9.29h12.55L506.91,12h-4.68l-2.09,12.62H497L499,12h-4.68Z"/><path class="cls-1" d="M522.09,9.29l-1.64,9.92c-.55,3.34-3.47,5.57-7.27,5.57s-5.95-2.23-5.4-5.57l1.64-9.92h3.23l-1.6,9.64a2.43,2.43,0,0,0,2.61,3,3.54,3.54,0,0,0,3.6-3l1.6-9.64Z"/><path class="cls-1" d="M524.74,9.29h6c3.47,0,5.15,2,4.65,5A5.43,5.43,0,0,1,532,18.63l2.26,5.94h-3.56l-2-5.42h-2.35l-.91,5.42H522.2ZM529,16.55c1.86,0,2.88-.76,3.13-2.27s-.52-2.35-2.37-2.35h-2.18l-.77,4.62Z"/><path class="cls-1" d="M538.65,9.29h10.29L548.5,12h-7.07l-.6,3.64h6.54l-.45,2.66h-6.53l-.6,3.65h7.09l-.44,2.67H536.11Z"/><path class="cls-1" d="M556.77,11.78c-1.58,0-2.57.71-2.73,1.71s.84,1.59,2.1,1.89l1.32.33c2.55.6,4.26,1.95,3.83,4.49-.47,2.8-2.94,4.58-6.68,4.58s-5.8-1.72-5.33-5h3.13c-.17,1.53.93,2.31,2.61,2.31s2.83-.77,3-1.88-.68-1.53-2.28-1.91l-1.6-.42c-2.46-.63-3.83-1.91-3.48-4.17.47-2.78,3.22-4.62,6.57-4.62s5.32,1.87,4.91,4.65h-3.1C559.11,12.48,558.32,11.78,556.77,11.78Z"/><path class="cls-1" d="M593.48,16.88a4,4,0,0,1,3.77-3.24A2.76,2.76,0,0,1,600,17a4,4,0,0,1-3.79,3.24A2.74,2.74,0,0,1,593.48,16.88Z"/><path class="cls-1" d="M633.44,9.29h6c3.47,0,5.11,2.13,4.61,5.17s-2.88,5.15-6.41,5.15H635l-.83,5H630.9ZM637.57,17a2.94,2.94,0,0,0,3.19-2.56c.24-1.53-.47-2.53-2.34-2.53h-2.18L635.39,17Z"/><path class="cls-1" d="M651.53,24.78c-4.16,0-6.86-3-6-8,.8-4.9,4.27-7.67,8.26-7.67s6.82,3,6,8.06C658.94,22,655.49,24.78,651.53,24.78Zm2.12-12.85c-2.45,0-4.39,1.89-4.92,5.21-.55,3.15.68,4.78,2.92,4.78,2.44,0,4.36-1.85,4.9-5.17C657.07,13.61,655.9,11.93,653.65,11.93Z"/><path class="cls-1" d="M668.71,11.78c-1.59,0-2.57.71-2.73,1.71s.83,1.59,2.1,1.89l1.31.33c2.56.6,4.26,1.95,3.84,4.49-.47,2.8-3,4.58-6.69,4.58s-5.79-1.72-5.33-5h3.13c-.16,1.53.93,2.31,2.61,2.31s2.84-.77,3-1.88-.68-1.53-2.29-1.91l-1.59-.42c-2.47-.63-3.84-1.91-3.48-4.17.47-2.78,3.22-4.62,6.57-4.62s5.32,1.87,4.91,4.65H671C671,12.48,670.25,11.78,668.71,11.78Z"/><path class="cls-1" d="M676.62,9.29h12.55L688.72,12H684L682,24.57h-3.19L680.85,12h-4.68Z"/><path class="cls-1" d="M695.22,9.29l2.51,10.26h.18l5.9-10.26h4l-2.54,15.28h-3.13l1.65-10h-.13l-5.58,9.87h-2.14l-2.3-9.91h-.13l-1.67,10H688.7l2.53-15.28Z"/><path class="cls-1" d="M707.08,24.57l7.81-15.28h4.16l2.73,15.28h-3.46l-.55-3.49h-5.51l-1.72,3.49Zm10.29-6-.91-5.78h-.12l-2.85,5.78Z"/><path class="cls-1" d="M723.69,9.29h12.55L735.79,12h-4.68L729,24.57h-3.19L727.92,12h-4.68Z"/><path class="cls-1" d="M738.3,9.29h10.3L748.15,12h-7.06l-.6,3.64H747l-.45,2.66H740l-.59,3.65h7.09l-.45,2.67H735.77Z"/><path class="cls-1" d="M756.43,11.78c-1.58,0-2.57.71-2.73,1.71s.83,1.59,2.1,1.89l1.31.33c2.56.6,4.26,1.95,3.84,4.49-.47,2.8-3,4.58-6.69,4.58s-5.79-1.72-5.32-5h3.12c-.16,1.53.94,2.31,2.61,2.31s2.84-.77,3-1.88-.68-1.53-2.28-1.91l-1.6-.42c-2.46-.63-3.84-1.91-3.48-4.17.47-2.78,3.22-4.62,6.57-4.62s5.32,1.87,4.91,4.65h-3.1C758.76,12.48,758,11.78,756.43,11.78Z"/><path class="cls-1" d="M793.14,16.88a4,4,0,0,1,3.77-3.24A2.76,2.76,0,0,1,799.69,17a4,4,0,0,1-3.79,3.24A2.74,2.74,0,0,1,793.14,16.88Z"/><path class="cls-1" d="M833.09,9.29h6c3.47,0,5.12,2.13,4.62,5.17s-2.89,5.15-6.42,5.15h-2.7l-.83,5h-3.23ZM837.23,17a2.93,2.93,0,0,0,3.18-2.56c.25-1.53-.47-2.53-2.33-2.53H835.9L835.05,17Z"/><path class="cls-1" d="M859.35,9.29l-1.64,9.92c-.55,3.34-3.47,5.57-7.27,5.57s-6-2.23-5.4-5.57l1.64-9.92h3.23l-1.6,9.64a2.43,2.43,0,0,0,2.61,3,3.54,3.54,0,0,0,3.6-3l1.6-9.64Z"/><path class="cls-1" d="M862,9.29h3.23L863.14,21.9h6.55l-.45,2.67h-9.78Z"/><path class="cls-1" d="M873.92,9.29h3.23L875.06,21.9h6.55l-.45,2.67h-9.78Z"/><path class="cls-1" d="M903.37,9.29l-1.64,9.92c-.55,3.34-3.47,5.57-7.27,5.57s-6-2.23-5.4-5.57l1.64-9.92h3.23l-1.6,9.64a2.43,2.43,0,0,0,2.61,3,3.54,3.54,0,0,0,3.6-3l1.6-9.64Z"/><path class="cls-1" d="M906,9.29h6c3.47,0,5.12,2.13,4.62,5.17s-2.89,5.15-6.42,5.15h-2.71l-.83,5h-3.23ZM910.15,17a2.94,2.94,0,0,0,3.19-2.56c.24-1.53-.47-2.53-2.34-2.53h-2.17L908,17Z"/><path class="cls-1" d="M924.87,11.78c-1.58,0-2.57.71-2.73,1.71s.83,1.59,2.1,1.89l1.31.33c2.56.6,4.26,1.95,3.84,4.49-.47,2.8-2.95,4.58-6.69,4.58s-5.79-1.72-5.32-5h3.12c-.16,1.53.93,2.31,2.61,2.31s2.84-.77,3-1.88-.68-1.53-2.29-1.91l-1.59-.42c-2.46-.63-3.84-1.91-3.48-4.17.47-2.78,3.22-4.62,6.57-4.62s5.32,1.87,4.91,4.65h-3.1C927.2,12.48,926.41,11.78,924.87,11.78Z"/><path class="cls-1" d="M961.58,16.88a4,4,0,0,1,3.76-3.24A2.76,2.76,0,0,1,968.13,17a4,4,0,0,1-3.79,3.24A2.74,2.74,0,0,1,961.58,16.88Z"/><path class="cls-1" d="M1001.53,9.29h10.12L1011.2,12h-6.88l-.6,3.64h6.21l-.44,2.66h-6.22l-1,6.32H999Z"/><path class="cls-1" d="M1018.32,24.78c-4.16,0-6.86-3-6-8,.8-4.9,4.27-7.67,8.26-7.67,4.14,0,6.83,3,6,8.06C1025.73,22,1022.28,24.78,1018.32,24.78Zm2.12-12.85c-2.45,0-4.39,1.89-4.92,5.21-.55,3.15.68,4.78,2.92,4.78,2.44,0,4.36-1.85,4.9-5.17C1023.86,13.61,1022.69,11.93,1020.44,11.93Z"/><path class="cls-1" d="M1030.24,9.29h6c3.47,0,5.15,2,4.65,5a5.42,5.42,0,0,1-3.42,4.35l2.26,5.94h-3.57l-2-5.42h-2.35l-.9,5.42h-3.23Zm4.22,7.26c1.86,0,2.88-.76,3.13-2.27s-.52-2.35-2.37-2.35H1033l-.77,4.62Z"/><path class="cls-1" d="M1041.61,24.57l2.53-15.28h5.39c4.61,0,7,3,6.21,7.8s-4,7.48-8.64,7.48Zm5.68-2.77c2.88,0,4.72-1.58,5.29-5.06.56-3.32-.67-4.69-3.53-4.69h-2.14l-1.61,9.75Z"/><path class="cls-1" d="M1060.92,24.57l7.81-15.28h4.17l2.73,15.28h-3.46l-.56-3.49h-5.51l-1.72,3.49Zm10.3-6-.91-5.78h-.12l-2.85,5.78Z"/><path class="cls-1" d="M1092.66,9.29,1091,19.21c-.55,3.34-3.47,5.57-7.27,5.57s-6-2.23-5.4-5.57L1080,9.29h3.23l-1.6,9.64a2.43,2.43,0,0,0,2.61,3,3.54,3.54,0,0,0,3.6-3l1.6-9.64Z"/><path class="cls-1" d="M1094.73,9.29h12.55l-.45,2.66h-4.68l-2.09,12.62h-3.19L1099,12h-4.68Z"/><path class="cls-1" d="M1113.17,24.78c-4.16,0-6.85-3-6-8,.8-4.9,4.27-7.67,8.26-7.67s6.83,3,6,8.06C1120.58,22,1117.13,24.78,1113.17,24.78Zm2.12-12.85c-2.45,0-4.39,1.89-4.92,5.21-.55,3.15.68,4.78,2.92,4.78,2.44,0,4.36-1.85,4.9-5.17C1118.71,13.61,1117.54,11.93,1115.29,11.93Z"/><path class="cls-1" d="M1129.07,9.29l2.52,10.26h.17l5.91-10.26h4l-2.54,15.28H1136l1.66-10h-.14l-5.58,9.87h-2.14l-2.3-9.91h-.12l-1.68,10h-3.13l2.54-15.28Z"/><path class="cls-1" d="M1148.8,24.78c-4.16,0-6.85-3-6-8,.81-4.9,4.28-7.67,8.26-7.67,4.14,0,6.83,3,6,8.06C1156.21,22,1152.77,24.78,1148.8,24.78Zm2.12-12.85c-2.45,0-4.38,1.89-4.92,5.21-.55,3.15.69,4.78,2.92,4.78,2.44,0,4.36-1.85,4.91-5.17C1154.34,13.61,1153.18,11.93,1150.92,11.93Z"/><path class="cls-1" d="M1159.46,9.29H1172l-.45,2.66h-4.68l-2.09,12.62h-3.19L1163.69,12H1159Z"/><path class="cls-1" d="M1174.77,24.57h-3.23l2.54-15.28h3.23Z"/><path class="cls-1" d="M1184.5,20.9h.15l5.61-11.61h3.58L1186,24.57h-4.16l-2.74-15.28h3.59Z"/><path class="cls-1" d="M1195.67,9.29H1206l-.45,2.66h-7.06l-.6,3.64h6.53l-.44,2.66h-6.54l-.6,3.65h7.1l-.45,2.67h-10.33Z"/><path class="cls-1" d="M1236.75,16.88a4,4,0,0,1,3.77-3.24A2.76,2.76,0,0,1,1243.3,17a4,4,0,0,1-3.79,3.24A2.75,2.75,0,0,1,1236.75,16.88Z"/><path class="cls-1" d="M1283.37,11.93c-2.35,0-4.38,1.8-4.91,5s.6,5,3,5a3.86,3.86,0,0,0,4.09-3.1h-3.27l.4-2.43h6.4l-.33,1.92a7.49,7.49,0,0,1-7.68,6.47c-4.3,0-6.72-3-5.92-7.84s4.42-7.86,8.46-7.86c3.45,0,5.76,2.12,5.67,5.15H1286A2.37,2.37,0,0,0,1283.37,11.93Z"/><path class="cls-1" d="M1297.19,24.78c-4.16,0-6.86-3-6-8,.8-4.9,4.27-7.67,8.26-7.67s6.82,3,6,8.06C1304.6,22,1301.15,24.78,1297.19,24.78Zm2.12-12.85c-2.46,0-4.39,1.89-4.93,5.21-.54,3.15.69,4.78,2.93,4.78,2.44,0,4.36-1.85,4.9-5.17C1302.73,13.61,1301.56,11.93,1299.31,11.93Z"/><path class="cls-1" d="M1313.61,24.78c-4.16,0-6.86-3-6-8,.8-4.9,4.27-7.67,8.26-7.67,4.14,0,6.83,3,6,8.06C1321,22,1317.57,24.78,1313.61,24.78Zm2.12-12.85c-2.45,0-4.39,1.89-4.92,5.21-.55,3.15.68,4.78,2.92,4.78,2.44,0,4.36-1.85,4.9-5.17C1319.15,13.61,1318,11.93,1315.73,11.93Z"/><path class="cls-1" d="M1332.18,11.93c-2.34,0-4.38,1.8-4.9,5s.6,5,3,5a3.86,3.86,0,0,0,4.1-3.1h-3.27l.4-2.43h6.39l-.33,1.92a7.49,7.49,0,0,1-7.67,6.47c-4.3,0-6.72-3-5.92-7.84s4.42-7.86,8.45-7.86c3.46,0,5.77,2.12,5.68,5.15h-3.28A2.38,2.38,0,0,0,1332.18,11.93Z"/><path class="cls-1" d="M1341.5,9.29h3.23l-2.09,12.61h6.55l-.44,2.67H1339Z"/><path class="cls-1" d="M1353.42,9.29h10.29l-.44,2.66h-7.07l-.6,3.64h6.54l-.45,2.66h-6.53l-.6,3.65h7.09l-.44,2.67h-10.33Z"/><path class="cls-1" d="M1394.5,16.88a4,4,0,0,1,3.77-3.24,2.76,2.76,0,0,1,2.78,3.33,4,4,0,0,1-3.79,3.24A2.74,2.74,0,0,1,1394.5,16.88Z"/><path class="cls-1" d="M1441.11,11.93c-2.34,0-4.38,1.8-4.9,5s.6,5,3,5a3.86,3.86,0,0,0,4.1-3.1H1440l.41-2.43h6.39l-.33,1.92a7.49,7.49,0,0,1-7.67,6.47c-4.3,0-6.72-3-5.92-7.84s4.42-7.86,8.45-7.86c3.46,0,5.77,2.12,5.68,5.15h-3.28A2.38,2.38,0,0,0,1441.11,11.93Z"/><path class="cls-1" d="M1450.43,9.29h10.3l-.45,2.66h-7.07l-.59,3.64h6.53l-.45,2.66h-6.53l-.6,3.65h7.1l-.45,2.67h-10.33Z"/><path class="cls-1" d="M1473.54,24.57h-2.79l-5-9.62h-.12l-1.6,9.62h-3.23l2.53-15.28h2.84l5,9.61h.13l1.59-9.61h3.21Z"/><path class="cls-1" d="M1478.73,9.29H1489l-.45,2.66h-7.07l-.59,3.64h6.53l-.45,2.66h-6.53l-.6,3.65h7.1l-.45,2.67h-10.33Z"/><path class="cls-1" d="M1491.59,9.29h6c3.47,0,5.15,2,4.65,5a5.42,5.42,0,0,1-3.42,4.35l2.26,5.94h-3.57l-2-5.42h-2.35l-.9,5.42h-3.23Zm4.23,7.26c1.85,0,2.88-.76,3.12-2.27s-.51-2.35-2.36-2.35h-2.18l-.78,4.62Z"/><path class="cls-1" d="M1502.14,24.57,1510,9.29h4.16l2.73,15.28h-3.46l-.55-3.49h-5.51l-1.72,3.49Zm10.29-6-.91-5.78h-.12l-2.85,5.78Z"/><path class="cls-1" d="M1521.21,9.29h3.23l-2.09,12.61h6.55l-.45,2.67h-9.78Z"/><path class="cls-1" d="M1542,9.29l2.51,10.26h.18l5.9-10.26h4L1552,24.57h-3.13l1.65-10h-.13l-5.58,9.87h-2.14l-2.3-9.91h-.13l-1.67,10h-3.13L1538,9.29Z"/><path class="cls-1" d="M1557.9,24.57h-3.23l2.53-15.28h3.23Z"/><path class="cls-1" d="M1563.1,9.29h3.23l-2.09,12.61h6.55l-.45,2.67h-9.78Z"/><path class="cls-1" d="M1575,9.29h3.23l-2.09,12.61h6.56l-.45,2.67h-9.78Z"/><path class="cls-1" d="M1592.19,11.78c-1.58,0-2.57.71-2.73,1.71s.83,1.59,2.1,1.89l1.32.33c2.55.6,4.26,1.95,3.83,4.49-.47,2.8-3,4.58-6.68,4.58s-5.8-1.72-5.33-5h3.13c-.17,1.53.93,2.31,2.61,2.31s2.83-.77,3-1.88-.68-1.53-2.28-1.91l-1.6-.42c-2.46-.63-3.83-1.91-3.48-4.17.47-2.78,3.22-4.62,6.57-4.62s5.32,1.87,4.91,4.65h-3.1C1594.53,12.48,1593.73,11.78,1592.19,11.78Z"/><path class="cls-1" d="M1628.9,16.88a4,4,0,0,1,3.77-3.24,2.76,2.76,0,0,1,2.78,3.33,4,4,0,0,1-3.79,3.24A2.74,2.74,0,0,1,1628.9,16.88Z"/><path class="cls-1" d="M1674.12,11.78c-1.59,0-2.57.71-2.74,1.71s.84,1.59,2.11,1.89l1.31.33c2.55.6,4.26,1.95,3.84,4.49-.47,2.8-3,4.58-6.69,4.58s-5.8-1.72-5.33-5h3.13c-.16,1.53.93,2.31,2.61,2.31s2.84-.77,3-1.88-.68-1.53-2.29-1.91l-1.59-.42c-2.47-.63-3.84-1.91-3.48-4.17.47-2.78,3.22-4.62,6.57-4.62s5.32,1.87,4.91,4.65h-3.1C1676.45,12.48,1675.66,11.78,1674.12,11.78Z"/><path class="cls-1" d="M1687.11,24.78c-4.16,0-6.85-3-6-8,.81-4.9,4.28-7.67,8.26-7.67,4.14,0,6.83,3,6,8.06C1694.52,22,1691.08,24.78,1687.11,24.78Zm2.12-12.85c-2.45,0-4.38,1.89-4.92,5.21-.55,3.15.69,4.78,2.92,4.78,2.44,0,4.36-1.85,4.91-5.17C1692.65,13.61,1691.49,11.93,1689.23,11.93Z"/><path class="cls-1" d="M1709.27,24.57h-2.79l-5-9.62h-.12l-1.61,9.62h-3.23L1699,9.29h2.83l5,9.61h.12l1.59-9.61h3.22Z"/><path class="cls-1" d="M1717.19,9.29l2.39,6.58h.17l4.56-6.58h3.62l-7.21,9.88-.91,5.4h-3.2l.9-5.4-3.94-9.88Z"/><path class="cls-1" d="M1734.55,9.29h6c3.47,0,5.12,2.13,4.62,5.17s-2.89,5.15-6.42,5.15h-2.71l-.83,5H1732Zm4.13,7.73a2.94,2.94,0,0,0,3.19-2.56c.24-1.53-.47-2.53-2.34-2.53h-2.18L1736.5,17Z"/><path class="cls-1" d="M1748.83,24.57h-3.23l2.53-15.28h3.24Z"/><path class="cls-1" d="M1763.38,14.64a2.46,2.46,0,0,0-2.7-2.71c-2.45,0-4.39,1.91-4.94,5.19s.7,4.8,2.92,4.8a4,4,0,0,0,3.93-2.58h3.25a7.61,7.61,0,0,1-7.35,5.44c-4.17,0-6.79-3-6-8,.82-4.91,4.26-7.65,8.2-7.65,3.65,0,6,2,5.88,5.56Z"/><path class="cls-1" d="M1769.24,9.29h12.55l-.45,2.66h-4.68l-2.09,12.62h-3.19L1773.47,12h-4.68Z"/><path class="cls-1" d="M1796.53,9.29l-1.65,9.92c-.55,3.34-3.47,5.57-7.26,5.57s-6-2.23-5.41-5.57l1.65-9.92h3.23l-1.61,9.64a2.44,2.44,0,0,0,2.61,3,3.54,3.54,0,0,0,3.6-3l1.6-9.64Z"/><path class="cls-1" d="M1799.17,9.29h6c3.47,0,5.15,2,4.65,5a5.42,5.42,0,0,1-3.42,4.35l2.26,5.94h-3.57l-2-5.42h-2.35l-.9,5.42h-3.23Zm4.23,7.26c1.85,0,2.88-.76,3.12-2.27s-.51-2.35-2.36-2.35H1802l-.78,4.62Z"/><path class="cls-1" d="M1813.08,9.29h10.3l-.45,2.66h-7.07l-.59,3.64h6.53l-.44,2.66h-6.54l-.6,3.65h7.1l-.45,2.67h-10.33Z"/><path class="cls-1" d="M1831.21,11.78c-1.59,0-2.57.71-2.74,1.71s.84,1.59,2.11,1.89l1.31.33c2.55.6,4.26,1.95,3.84,4.49-.47,2.8-3,4.58-6.69,4.58s-5.8-1.72-5.33-5h3.13c-.16,1.53.93,2.31,2.61,2.31s2.84-.77,3-1.88-.68-1.53-2.29-1.91l-1.59-.42c-2.47-.63-3.84-1.91-3.48-4.17.47-2.78,3.22-4.62,6.57-4.62s5.32,1.87,4.9,4.65h-3.09C1833.54,12.48,1832.75,11.78,1831.21,11.78Z"/><path class="cls-1" d="M1867.91,16.88a4,4,0,0,1,3.77-3.24,2.76,2.76,0,0,1,2.78,3.33,4,4,0,0,1-3.79,3.24A2.75,2.75,0,0,1,1867.91,16.88Z"/><path class="cls-1" d="M1907.87,9.29h6c3.47,0,5.12,2.13,4.62,5.17s-2.89,5.15-6.42,5.15h-2.71l-.83,5h-3.23ZM1912,17a2.94,2.94,0,0,0,3.19-2.56c.25-1.53-.47-2.53-2.33-2.53h-2.18l-.85,5.09Z"/><path class="cls-1" d="M1926,24.78c-4.17,0-6.86-3-6-8,.81-4.9,4.28-7.67,8.26-7.67,4.14,0,6.83,3,6,8.06C1933.38,22,1929.93,24.78,1926,24.78Zm2.11-12.85c-2.45,0-4.38,1.89-4.92,5.21-.54,3.15.69,4.78,2.92,4.78,2.45,0,4.36-1.85,4.91-5.17C1931.5,13.61,1930.34,11.93,1928.08,11.93Z"/><path class="cls-1" d="M1943.14,11.78c-1.58,0-2.57.71-2.73,1.71s.84,1.59,2.1,1.89l1.32.33c2.55.6,4.26,1.95,3.83,4.49-.47,2.8-3,4.58-6.68,4.58s-5.8-1.72-5.33-5h3.13c-.17,1.53.93,2.31,2.61,2.31s2.83-.77,3-1.88-.68-1.53-2.28-1.91l-1.6-.42c-2.46-.63-3.83-1.91-3.48-4.17.47-2.78,3.22-4.62,6.57-4.62s5.32,1.87,4.91,4.65h-3.1C1945.48,12.48,1944.68,11.78,1943.14,11.78Z"/><path class="cls-1" d="M1951.05,9.29h12.55l-.45,2.66h-4.68l-2.09,12.62h-3.19L1955.28,12h-4.68Z"/><path class="cls-1" d="M1969.65,9.29l2.52,10.26h.17l5.91-10.26h4l-2.54,15.28h-3.13l1.66-10h-.14l-5.58,9.87h-2.14l-2.3-9.91h-.13l-1.67,10h-3.13l2.54-15.28Z"/><path class="cls-1" d="M1981.51,24.57l7.81-15.28h4.17l2.73,15.28h-3.46l-.56-3.49h-5.51L1985,24.57Zm10.3-6-.91-5.78h-.12l-2.85,5.78Z"/><path class="cls-1" d="M1998.12,9.29h12.55l-.45,2.66h-4.68l-2.08,12.62h-3.2L2002.35,12h-4.68Z"/><path class="cls-1" d="M2012.74,9.29H2023l-.44,2.66h-7.07l-.6,3.64h6.54l-.45,2.66h-6.53l-.6,3.65H2021l-.44,2.67H2010.2Z"/><path class="cls-1" d="M2030.86,11.78c-1.58,0-2.57.71-2.73,1.71s.84,1.59,2.11,1.89l1.31.33c2.55.6,4.26,1.95,3.83,4.49-.47,2.8-2.94,4.58-6.68,4.58s-5.8-1.72-5.33-5h3.13c-.17,1.53.93,2.31,2.61,2.31s2.83-.77,3-1.88-.68-1.53-2.28-1.91l-1.6-.42c-2.46-.63-3.83-1.91-3.47-4.17.47-2.78,3.21-4.62,6.56-4.62s5.32,1.87,4.91,4.65h-3.09C2033.2,12.48,2032.41,11.78,2030.86,11.78Z"/><path class="cls-1" d="M2067.57,16.88a4,4,0,0,1,3.77-3.24,2.76,2.76,0,0,1,2.78,3.33,4,4,0,0,1-3.79,3.24A2.74,2.74,0,0,1,2067.57,16.88Z"/></svg>