<svg id="Layer_1" data-name="Layer 1" xmlns="http://www.w3.org/2000/svg" viewBox="0 0 2084 44"><defs><style>.cls-1{fill:#fff;}</style></defs><path class="cls-1" d="M11.59,9.29,9.83,20a5.71,5.71,0,0,1-6,4.82c-2.79,0-4.74-1.47-4.24-4.51H2.81c-.16,1.24.42,1.92,1.54,1.92s2-.81,2.29-2.27L8.39,9.29Z"/><path class="cls-1" d="M10.88,24.57,18.69,9.29h4.16l2.74,15.28H22.12l-.55-3.49H16.06l-1.72,3.49Zm10.3-6-.91-5.78h-.12L17.3,18.56Z"/><path class="cls-1" d="M30,9.29h6c3.47,0,5.15,2,4.65,5a5.43,5.43,0,0,1-3.43,4.35l2.26,5.94H35.9l-2-5.42H31.55l-.91,5.42H27.41Zm4.22,7.26c1.86,0,2.88-.76,3.13-2.27s-.52-2.35-2.37-2.35H32.75L32,16.55Z"/><path class="cls-1" d="M48,20.9h.14L53.72,9.29H57.3L49.5,24.57H45.34L42.6,9.29h3.59Z"/><path class="cls-1" d="M59.82,24.57H56.59L59.13,9.29h3.23Z"/><path class="cls-1" d="M70.28,11.78c-1.58,0-2.56.71-2.73,1.71s.84,1.59,2.11,1.89l1.31.33c2.55.6,4.26,1.95,3.83,4.49-.47,2.8-2.94,4.58-6.68,4.58s-5.8-1.72-5.33-5h3.13c-.17,1.53.93,2.31,2.61,2.31s2.83-.77,3-1.88-.68-1.53-2.28-1.91l-1.6-.42c-2.46-.63-3.83-1.91-3.47-4.17.47-2.78,3.21-4.62,6.56-4.62s5.32,1.87,4.91,4.65H72.57C72.62,12.48,71.83,11.78,70.28,11.78Z"/><path class="cls-1" d="M76.5,23a2,2,0,0,1,1.94-1.76A1.63,1.63,0,0,1,80.09,23a2,2,0,0,1-1.91,1.79A1.66,1.66,0,0,1,76.5,23Z"/><path class="cls-1" d="M81.66,24.57,89.47,9.29h4.16l2.73,15.28H92.9l-.55-3.49H86.84l-1.72,3.49Zm10.29-6L91,12.78h-.12l-2.85,5.78Z"/><path class="cls-1" d="M101.42,24.57H98.19l2.54-15.28H104Z"/><path class="cls-1" d="M134.84,16.88a4,4,0,0,1,3.76-3.24A2.76,2.76,0,0,1,141.39,17a4,4,0,0,1-3.79,3.24A2.74,2.74,0,0,1,134.84,16.88Z"/><path class="cls-1" d="M174.79,9.29h10.12L184.46,12h-6.88l-.6,3.64h6.22l-.45,2.66h-6.22l-1,6.32h-3.23Z"/><path class="cls-1" d="M187.08,9.29h3.23L188.22,21.9h6.55l-.45,2.67h-9.78Z"/><path class="cls-1" d="M202.9,24.78c-4.16,0-6.85-3-6-8,.8-4.9,4.27-7.67,8.26-7.67s6.83,3,6,8.06C210.31,22,206.87,24.78,202.9,24.78ZM205,11.93c-2.45,0-4.39,1.89-4.92,5.21-.55,3.15.68,4.78,2.92,4.78,2.44,0,4.36-1.85,4.9-5.17C208.44,13.61,207.28,11.93,205,11.93Z"/><path class="cls-1" d="M213.31,9.29h3.53l.78,10.61h.12l4.55-10.61h3l1,10.64h.13l4.29-10.64h3.53l-6.91,15.28h-3.15l-1.24-10h-.12l-4.58,10h-3.14Z"/><path class="cls-1" d="M246.13,11.78c-1.59,0-2.57.71-2.73,1.71s.83,1.59,2.1,1.89l1.31.33c2.56.6,4.26,1.95,3.84,4.49-.47,2.8-3,4.58-6.69,4.58s-5.79-1.72-5.32-5h3.12c-.16,1.53.93,2.31,2.61,2.31s2.84-.77,3-1.88-.68-1.53-2.29-1.91l-1.59-.42c-2.46-.63-3.84-1.91-3.48-4.17.47-2.78,3.22-4.62,6.57-4.62s5.32,1.87,4.91,4.65h-3.1C248.46,12.48,247.67,11.78,246.13,11.78Z"/><path class="cls-1" d="M254,9.29h12.55L266.14,12h-4.68l-2.09,12.62h-3.19L258.27,12h-4.68Z"/><path class="cls-1" d="M263.41,24.57l7.81-15.28h4.16l2.74,15.28h-3.47l-.55-3.49h-5.51l-1.72,3.49Zm10.3-6-.91-5.78h-.12l-2.85,5.78Z"/><path class="cls-1" d="M280,9.29h12.55L292.12,12h-4.68l-2.09,12.62h-3.19L284.25,12h-4.68Z"/><path class="cls-1" d="M294.63,9.29h10.3L304.48,12h-7.06l-.6,3.64h6.54l-.45,2.66h-6.54l-.59,3.65h7.09l-.45,2.67H292.1Z"/><path class="cls-1" d="M335.72,16.88a3.94,3.94,0,0,1,3.76-3.24A2.76,2.76,0,0,1,342.27,17a4,4,0,0,1-3.79,3.24A2.74,2.74,0,0,1,335.72,16.88Z"/><path class="cls-1" d="M375.67,9.29h3.23L376.82,21.9h6.55l-.45,2.67h-9.78Z"/><path class="cls-1" d="M384.61,24.57l7.81-15.28h4.16l2.73,15.28h-3.46l-.55-3.49h-5.52l-1.71,3.49Zm10.29-6L394,12.78h-.12L391,18.56Z"/><path class="cls-1" d="M401.19,9.29h3.53l.78,10.61h.12l4.55-10.61h3l1,10.64h.13l4.29-10.64h3.53l-6.91,15.28h-3.15l-1.24-10h-.12l-4.57,10H403Z"/><path class="cls-1" d="M429,11.78c-1.58,0-2.57.71-2.73,1.71s.83,1.59,2.1,1.89l1.31.33c2.56.6,4.26,1.95,3.84,4.49-.47,2.8-2.95,4.58-6.69,4.58s-5.79-1.72-5.33-5h3.13c-.16,1.53.93,2.31,2.61,2.31s2.84-.77,3-1.88-.68-1.53-2.29-1.91l-1.59-.42c-2.46-.63-3.84-1.91-3.48-4.17.47-2.78,3.22-4.62,6.57-4.62s5.32,1.87,4.91,4.65h-3.1C431.33,12.48,430.54,11.78,429,11.78Z"/><path class="cls-1" d="M446.86,24.78c-4.16,0-6.85-3-6-8,.81-4.9,4.28-7.67,8.26-7.67,4.14,0,6.83,3,6,8.06C454.27,22,450.83,24.78,446.86,24.78ZM449,11.93c-2.45,0-4.38,1.89-4.92,5.21-.55,3.15.69,4.78,2.92,4.78,2.44,0,4.36-1.85,4.91-5.17C452.4,13.61,451.24,11.93,449,11.93Z"/><path class="cls-1" d="M458.78,9.29H468.9L468.45,12h-6.89L461,15.59h6.21l-.45,2.66h-6.21l-1,6.32h-3.23Z"/><path class="cls-1" d="M488.6,9.29,487,19.21c-.55,3.34-3.47,5.57-7.27,5.57s-5.95-2.23-5.4-5.57l1.64-9.92h3.23l-1.6,9.64a2.43,2.43,0,0,0,2.61,3,3.54,3.54,0,0,0,3.6-3l1.6-9.64Z"/><path class="cls-1" d="M496.38,14.49h.12l4-5.2h3.75l-5.91,7.64,3.48,7.64h-3.65l-2.27-5.22h-.12l-4,5.22H488l6.06-7.64-3.44-7.64h3.56Z"/><path class="cls-1" d="M534.47,16.88a4,4,0,0,1,3.77-3.24A2.76,2.76,0,0,1,541,17a4,4,0,0,1-3.79,3.24A2.75,2.75,0,0,1,534.47,16.88Z"/><path class="cls-1" d="M573.85,9.29H586.4L586,12h-4.68l-2.09,12.62H576L578.08,12H573.4Z"/><path class="cls-1" d="M588.46,9.29h3.23l-1,6.3h6.56l1-6.3h3.22l-2.53,15.28h-3.23l1-6.32H590.2l-1,6.32h-3.24Z"/><path class="cls-1" d="M604.13,9.29h10.3L614,12h-7.07l-.59,3.64h6.53l-.45,2.66h-6.53l-.6,3.65h7.1l-.45,2.67H601.59Z"/><path class="cls-1" d="M631.22,14.64a2.47,2.47,0,0,0-2.7-2.71c-2.45,0-4.4,1.91-4.94,5.19s.69,4.8,2.92,4.8a4,4,0,0,0,3.93-2.58h3.24a7.6,7.6,0,0,1-7.34,5.44c-4.18,0-6.79-3-6-8,.82-4.91,4.27-7.65,8.21-7.65,3.64,0,6,2,5.87,5.56Z"/><path class="cls-1" d="M638.35,24.57h-3.23l2.54-15.28h3.23Z"/><path class="cls-1" d="M643.55,9.29h6c3.47,0,5.15,2,4.65,5a5.43,5.43,0,0,1-3.43,4.35l2.26,5.94H649.5l-2-5.42h-2.35l-.91,5.42H641Zm4.22,7.26c1.86,0,2.88-.76,3.13-2.27s-.52-2.35-2.37-2.35h-2.17l-.78,4.62Z"/><path class="cls-1" d="M666.81,14.64a2.46,2.46,0,0,0-2.7-2.71c-2.44,0-4.39,1.91-4.94,5.19s.7,4.8,2.92,4.8A4,4,0,0,0,666,19.34h3.25a7.61,7.61,0,0,1-7.35,5.44c-4.17,0-6.79-3-6-8,.82-4.91,4.27-7.65,8.21-7.65,3.64,0,6,2,5.87,5.56Z"/><path class="cls-1" d="M673.25,9.29h3.23L674.39,21.9H681l-.45,2.67h-9.78Z"/><path class="cls-1" d="M685.17,9.29h10.3L695,12H688l-.59,3.64h6.53l-.45,2.66h-6.53l-.6,3.65h7.1L693,24.57H682.63Z"/><path class="cls-1" d="M726.25,16.88A4,4,0,0,1,730,13.64,2.76,2.76,0,0,1,732.8,17,4,4,0,0,1,729,20.21,2.75,2.75,0,0,1,726.25,16.88Z"/><path class="cls-1" d="M766.9,24.57h-3.23l2.54-15.28h3.23Z"/><path class="cls-1" d="M782.34,24.57h-2.79l-5-9.62h-.12l-1.61,9.62h-3.23L772.1,9.29h2.83l5,9.61h.13l1.59-9.61h3.21Z"/><path class="cls-1" d="M785,24.57l2.54-15.28h5.38c4.61,0,7,3,6.21,7.8s-4,7.48-8.64,7.48Zm5.68-2.77c2.88,0,4.72-1.58,5.29-5.06.56-3.32-.67-4.69-3.53-4.69H790.3l-1.61,9.75Z"/><path class="cls-1" d="M803.5,24.57h-3.23l2.54-15.28H806Z"/><path class="cls-1" d="M808.7,9.29H819L818.55,12h-7.07l-.59,3.64h6.53L817,18.25h-6.53l-.6,3.65h7.1l-.45,2.67H806.16Z"/><path class="cls-1" d="M826.43,9.29h3.23l-1,6.3h6.56l1-6.3h3.23l-2.54,15.28h-3.22l1-6.32h-6.56l-1,6.32H823.9Z"/><path class="cls-1" d="M838.74,24.57l7.81-15.28h4.16l2.73,15.28H850l-.55-3.49h-5.51l-1.72,3.49Zm10.29-6-.91-5.78H848l-2.85,5.78Z"/><path class="cls-1" d="M866.45,14.64a2.47,2.47,0,0,0-2.7-2.71c-2.45,0-4.4,1.91-4.94,5.19s.69,4.8,2.91,4.8a4,4,0,0,0,3.94-2.58h3.24a7.6,7.6,0,0,1-7.35,5.44c-4.17,0-6.79-3-6-8,.82-4.91,4.27-7.65,8.21-7.65,3.64,0,6,2,5.87,5.56Z"/><path class="cls-1" d="M872.89,9.29h3.23L875,16h.21l6.61-6.73h3.87l-6.78,6.84,4.31,8.44h-3.87l-3.11-6.28-1.93,1.95-.73,4.33h-3.23Z"/><path class="cls-1" d="M887.37,9.29h10.3L897.22,12h-7.07l-.6,3.64h6.54l-.45,2.66h-6.53l-.6,3.65h7.1l-.45,2.67H884.83Z"/><path class="cls-1" d="M900.23,9.29h6c3.47,0,5.15,2,4.65,5a5.42,5.42,0,0,1-3.42,4.35l2.26,5.94h-3.57l-2-5.42h-2.35l-.9,5.42H897.7Zm4.23,7.26c1.85,0,2.88-.76,3.12-2.27s-.51-2.35-2.36-2.35H903l-.78,4.62Z"/><path class="cls-1" d="M919.4,11.78c-1.58,0-2.57.71-2.73,1.71s.84,1.59,2.1,1.89l1.32.33c2.55.6,4.26,1.95,3.83,4.49-.47,2.8-2.94,4.58-6.68,4.58s-5.8-1.72-5.33-5H915c-.17,1.53.93,2.31,2.61,2.31s2.83-.77,3-1.88-.68-1.53-2.28-1.91l-1.6-.42c-2.46-.63-3.83-1.91-3.48-4.17.47-2.78,3.22-4.62,6.57-4.62s5.32,1.87,4.91,4.65h-3.1C921.74,12.48,921,11.78,919.4,11.78Z"/><path class="cls-1" d="M956.11,16.88a4,4,0,0,1,3.77-3.24A2.76,2.76,0,0,1,962.66,17a4,4,0,0,1-3.79,3.24A2.74,2.74,0,0,1,956.11,16.88Z"/><path class="cls-1" d="M1005.42,14.64a2.46,2.46,0,0,0-2.7-2.71c-2.45,0-4.39,1.91-4.94,5.19s.7,4.8,2.92,4.8a4,4,0,0,0,3.93-2.58h3.25a7.61,7.61,0,0,1-7.35,5.44c-4.17,0-6.79-3-6-8,.82-4.91,4.26-7.65,8.2-7.65,3.65,0,6,2,5.88,5.56Z"/><path class="cls-1" d="M1016.37,24.78c-4.17,0-6.86-3-6-8,.81-4.9,4.28-7.67,8.26-7.67,4.14,0,6.83,3,6,8.06C1023.78,22,1020.33,24.78,1016.37,24.78Zm2.12-12.85c-2.46,0-4.39,1.89-4.93,5.21-.54,3.15.69,4.78,2.93,4.78,2.44,0,4.35-1.85,4.9-5.17C1021.9,13.61,1020.74,11.93,1018.49,11.93Z"/><path class="cls-1" d="M1025.75,24.57l2.53-15.28h5.39c4.61,0,7,3,6.21,7.8s-4,7.48-8.64,7.48Zm5.67-2.77c2.88,0,4.73-1.58,5.3-5.06.55-3.32-.67-4.69-3.53-4.69h-2.14l-1.61,9.75Z"/><path class="cls-1" d="M1043.56,9.29h10.29L1053.4,12h-7.06l-.6,3.64h6.54l-.45,2.66h-6.54l-.59,3.65h7.09l-.44,2.67H1041Z"/><path class="cls-1" d="M1053.88,24.57l2.54-15.28h5.39c4.61,0,7,3,6.2,7.8s-4,7.48-8.63,7.48Zm5.68-2.77c2.88,0,4.72-1.58,5.3-5.06.55-3.32-.67-4.69-3.54-4.69h-2.13l-1.61,9.75Z"/><path class="cls-1" d="M1076.56,9.29h6.12c3.37,0,4.81,1.62,4.43,3.91a4.1,4.1,0,0,1-3.31,3.29l0,.15a2.92,2.92,0,0,1,2.75,3.7c-.41,2.43-2.53,4.23-6,4.23H1074Zm3.78,12.64c1.79,0,2.71-.76,2.9-1.91s-.6-2.15-2.17-2.15h-2.7l-.67,4.06Zm.8-6.25a2.46,2.46,0,0,0,2.61-1.94c.18-1.11-.51-1.84-1.93-1.84h-2.45l-.63,3.78Z"/><path class="cls-1" d="M1091.13,24.57h-3.23l2.54-15.28h3.23Z"/><path class="cls-1" d="M1093,24.57l7.81-15.28h4.16l2.73,15.28h-3.46l-.55-3.49h-5.51l-1.72,3.49Zm10.29-6-.91-5.78h-.12l-2.85,5.78Z"/><path class="cls-1" d="M1116.94,11.78c-1.58,0-2.57.71-2.73,1.71s.83,1.59,2.1,1.89l1.31.33c2.56.6,4.27,1.95,3.84,4.49-.47,2.8-3,4.58-6.68,4.58s-5.8-1.72-5.33-5h3.12c-.16,1.53.94,2.31,2.62,2.31s2.83-.77,3-1.88-.68-1.53-2.28-1.91l-1.6-.42c-2.46-.63-3.84-1.91-3.48-4.17.47-2.78,3.22-4.62,6.57-4.62s5.32,1.87,4.91,4.65h-3.1C1119.27,12.48,1118.48,11.78,1116.94,11.78Z"/><path class="cls-1" d="M1153.65,16.88a4,4,0,0,1,3.77-3.24A2.76,2.76,0,0,1,1160.2,17a4,4,0,0,1-3.79,3.24A2.74,2.74,0,0,1,1153.65,16.88Z"/><path class="cls-1" d="M1202.92,9.29,1201.16,20a5.71,5.71,0,0,1-6,4.82c-2.79,0-4.74-1.47-4.24-4.51h3.19c-.16,1.24.42,1.92,1.54,1.92s2-.81,2.29-2.27l1.75-10.63Z"/><path class="cls-1" d="M1202.21,24.57,1210,9.29h4.16l2.74,15.28h-3.47l-.55-3.49h-5.51l-1.72,3.49Zm10.3-6-.91-5.78h-.12l-2.85,5.78Z"/><path class="cls-1" d="M1221.28,9.29h6c3.47,0,5.15,2,4.65,5a5.43,5.43,0,0,1-3.43,4.35l2.26,5.94h-3.56l-2-5.42h-2.35l-.91,5.42h-3.23Zm4.22,7.26c1.86,0,2.88-.76,3.13-2.27s-.52-2.35-2.37-2.35h-2.18l-.77,4.62Z"/><path class="cls-1" d="M1239.29,20.9h.14l5.62-11.61h3.58l-7.8,15.28h-4.16l-2.74-15.28h3.59Z"/><path class="cls-1" d="M1251.15,24.57h-3.23l2.54-15.28h3.23Z"/><path class="cls-1" d="M1261.61,11.78c-1.58,0-2.57.71-2.73,1.71s.84,1.59,2.11,1.89l1.31.33c2.55.6,4.26,1.95,3.83,4.49-.47,2.8-2.94,4.58-6.68,4.58s-5.8-1.72-5.33-5h3.13c-.17,1.53.93,2.31,2.61,2.31s2.83-.77,3-1.88-.68-1.53-2.28-1.91l-1.6-.42c-2.46-.63-3.83-1.91-3.47-4.17.47-2.78,3.21-4.62,6.56-4.62s5.32,1.87,4.91,4.65h-3.09C1264,12.48,1263.16,11.78,1261.61,11.78Z"/><path class="cls-1" d="M1267.83,23a2,2,0,0,1,2-1.76,1.63,1.63,0,0,1,1.64,1.76,2,2,0,0,1-1.91,1.79A1.66,1.66,0,0,1,1267.83,23Z"/><path class="cls-1" d="M1273,24.57l7.81-15.28H1285l2.73,15.28h-3.46l-.55-3.49h-5.51l-1.72,3.49Zm10.29-6-.91-5.78h-.12l-2.85,5.78Z"/><path class="cls-1" d="M1292.75,24.57h-3.23l2.54-15.28h3.23Z"/><path class="cls-1" d="M1326.17,16.88a3.94,3.94,0,0,1,3.76-3.24,2.76,2.76,0,0,1,2.79,3.33,4,4,0,0,1-3.79,3.24A2.74,2.74,0,0,1,1326.17,16.88Z"/><path class="cls-1" d="M1366.12,9.29h10.12l-.45,2.66h-6.88l-.6,3.64h6.21l-.44,2.66h-6.22l-1,6.32h-3.23Z"/><path class="cls-1" d="M1378.41,9.29h3.23l-2.09,12.61h6.55l-.45,2.67h-9.78Z"/><path class="cls-1" d="M1394.23,24.78c-4.16,0-6.85-3-6-8,.81-4.9,4.28-7.67,8.26-7.67,4.14,0,6.83,3,6,8.06C1401.64,22,1398.2,24.78,1394.23,24.78Zm2.12-12.85c-2.45,0-4.39,1.89-4.92,5.21-.55,3.15.68,4.78,2.92,4.78,2.44,0,4.36-1.85,4.9-5.17C1399.77,13.61,1398.61,11.93,1396.35,11.93Z"/><path class="cls-1" d="M1404.64,9.29h3.53L1409,19.9h.12l4.55-10.61h3l1,10.64h.13l4.29-10.64h3.53l-6.91,15.28h-3.15l-1.24-10h-.12l-4.58,10h-3.14Z"/><path class="cls-1" d="M1437.46,11.78c-1.58,0-2.57.71-2.73,1.71s.83,1.59,2.1,1.89l1.31.33c2.56.6,4.26,1.95,3.84,4.49-.47,2.8-3,4.58-6.69,4.58s-5.79-1.72-5.33-5h3.13c-.16,1.53.93,2.31,2.61,2.31s2.84-.77,3-1.88-.68-1.53-2.29-1.91l-1.59-.42c-2.46-.63-3.84-1.91-3.48-4.17.47-2.78,3.22-4.62,6.57-4.62s5.32,1.87,4.91,4.65h-3.1C1439.79,12.48,1439,11.78,1437.46,11.78Z"/><path class="cls-1" d="M1445.37,9.29h12.55l-.45,2.66h-4.68l-2.09,12.62h-3.19L1449.6,12h-4.68Z"/><path class="cls-1" d="M1454.74,24.57l7.81-15.28h4.16l2.74,15.28H1466l-.55-3.49h-5.51l-1.72,3.49Zm10.3-6-.92-5.78H1464l-2.85,5.78Z"/><path class="cls-1" d="M1471.35,9.29h12.55l-.45,2.66h-4.68l-2.09,12.62h-3.19L1475.58,12h-4.68Z"/><path class="cls-1" d="M1486,9.29h10.3l-.45,2.66h-7.06l-.6,3.64h6.54l-.45,2.66h-6.54l-.59,3.65h7.09l-.45,2.67h-10.32Z"/><path class="cls-1" d="M1527.05,16.88a3.94,3.94,0,0,1,3.76-3.24A2.76,2.76,0,0,1,1533.6,17a4,4,0,0,1-3.79,3.24A2.74,2.74,0,0,1,1527.05,16.88Z"/><path class="cls-1" d="M1567,9.29h3.23l-2.09,12.61h6.56l-.45,2.67h-9.78Z"/><path class="cls-1" d="M1575.93,24.57l7.82-15.28h4.16l2.73,15.28h-3.46l-.55-3.49h-5.52l-1.71,3.49Zm10.3-6-.91-5.78h-.12l-2.85,5.78Z"/><path class="cls-1" d="M1592.52,9.29h3.53l.78,10.61h.12l4.55-10.61h3l1,10.64h.13L1610,9.29h3.53l-6.91,15.28h-3.15l-1.24-10h-.12l-4.57,10h-3.15Z"/><path class="cls-1" d="M1620.33,11.78c-1.59,0-2.57.71-2.74,1.71s.84,1.59,2.11,1.89l1.31.33c2.55.6,4.26,1.95,3.84,4.49-.47,2.8-2.95,4.58-6.69,4.58s-5.8-1.72-5.33-5H1616c-.16,1.53.93,2.31,2.61,2.31s2.84-.77,3-1.88-.68-1.53-2.29-1.91l-1.59-.42c-2.47-.63-3.84-1.91-3.48-4.17.47-2.78,3.22-4.62,6.57-4.62s5.32,1.87,4.91,4.65h-3.1C1622.66,12.48,1621.87,11.78,1620.33,11.78Z"/><path class="cls-1" d="M1638.19,24.78c-4.16,0-6.85-3-6-8,.81-4.9,4.28-7.67,8.26-7.67,4.14,0,6.83,3,6,8.06C1645.6,22,1642.16,24.78,1638.19,24.78Zm2.12-12.85c-2.45,0-4.39,1.89-4.92,5.21-.55,3.15.68,4.78,2.92,4.78,2.44,0,4.36-1.85,4.9-5.17C1643.73,13.61,1642.57,11.93,1640.31,11.93Z"/><path class="cls-1" d="M1650.11,9.29h10.12l-.45,2.66h-6.89l-.6,3.64h6.22l-.45,2.66h-6.21l-1,6.32h-3.23Z"/><path class="cls-1" d="M1679.93,9.29l-1.64,9.92c-.55,3.34-3.47,5.57-7.27,5.57s-6-2.23-5.4-5.57l1.64-9.92h3.23l-1.6,9.64a2.43,2.43,0,0,0,2.61,3,3.52,3.52,0,0,0,3.59-3l1.61-9.64Z"/><path class="cls-1" d="M1687.71,14.49h.12l4-5.2h3.75l-5.91,7.64,3.48,7.64h-3.65l-2.27-5.22h-.12l-4,5.22h-3.76l6.06-7.64-3.44-7.64h3.56Z"/><path class="cls-1" d="M1725.8,16.88a4,4,0,0,1,3.77-3.24,2.76,2.76,0,0,1,2.78,3.33,4,4,0,0,1-3.79,3.24A2.74,2.74,0,0,1,1725.8,16.88Z"/><path class="cls-1" d="M1765.17,9.29h12.55l-.44,2.66h-4.68l-2.09,12.62h-3.19L1769.41,12h-4.68Z"/><path class="cls-1" d="M1779.79,9.29H1783l-1,6.3h6.56l1-6.3h3.22l-2.53,15.28H1787l1-6.32h-6.56l-1,6.32h-3.23Z"/><path class="cls-1" d="M1795.46,9.29h10.3l-.45,2.66h-7.07l-.59,3.64h6.53l-.45,2.66h-6.53l-.6,3.65h7.1l-.45,2.67h-10.33Z"/><path class="cls-1" d="M1822.55,14.64a2.47,2.47,0,0,0-2.7-2.71c-2.45,0-4.4,1.91-4.94,5.19s.69,4.8,2.92,4.8a4,4,0,0,0,3.93-2.58H1825a7.6,7.6,0,0,1-7.35,5.44c-4.17,0-6.79-3-6-8,.82-4.91,4.27-7.65,8.21-7.65,3.64,0,6,2,5.87,5.56Z"/><path class="cls-1" d="M1829.68,24.57h-3.23L1829,9.29h3.23Z"/><path class="cls-1" d="M1834.88,9.29h6c3.47,0,5.15,2,4.65,5a5.43,5.43,0,0,1-3.43,4.35l2.26,5.94h-3.56l-2-5.42h-2.35l-.91,5.42h-3.23Zm4.22,7.26c1.86,0,2.88-.76,3.13-2.27s-.52-2.35-2.37-2.35h-2.18l-.77,4.62Z"/><path class="cls-1" d="M1858.14,14.64a2.46,2.46,0,0,0-2.7-2.71c-2.44,0-4.39,1.91-4.94,5.19s.7,4.8,2.92,4.8a4,4,0,0,0,3.93-2.58h3.25a7.61,7.61,0,0,1-7.35,5.44c-4.17,0-6.79-3-6-8,.82-4.91,4.27-7.65,8.21-7.65,3.64,0,6,2,5.87,5.56Z"/><path class="cls-1" d="M1864.58,9.29h3.23l-2.09,12.61h6.55l-.44,2.67H1862Z"/><path class="cls-1" d="M1876.5,9.29h10.3l-.45,2.66h-7.07l-.59,3.64h6.53l-.45,2.66h-6.53l-.6,3.65h7.1l-.45,2.67H1874Z"/><path class="cls-1" d="M1917.58,16.88a4,4,0,0,1,3.77-3.24,2.76,2.76,0,0,1,2.78,3.33,4,4,0,0,1-3.79,3.24A2.74,2.74,0,0,1,1917.58,16.88Z"/><path class="cls-1" d="M1958.23,24.57H1955l2.54-15.28h3.23Z"/><path class="cls-1" d="M1973.67,24.57h-2.79l-5-9.62h-.12l-1.61,9.62h-3.23l2.54-15.28h2.83l5,9.61h.13L1973,9.29h3.22Z"/><path class="cls-1" d="M1976.33,24.57l2.54-15.28h5.38c4.61,0,7,3,6.21,7.8s-4,7.48-8.64,7.48ZM1982,21.8c2.88,0,4.72-1.58,5.29-5.06.56-3.32-.67-4.69-3.53-4.69h-2.14L1980,21.8Z"/><path class="cls-1" d="M1994.83,24.57h-3.23l2.54-15.28h3.23Z"/><path class="cls-1" d="M2000,9.29h10.3l-.45,2.66h-7.07l-.59,3.64h6.53l-.45,2.66h-6.53l-.6,3.65h7.1l-.45,2.67h-10.33Z"/><path class="cls-1" d="M2017.76,9.29H2021l-1,6.3h6.56l1-6.3h3.23l-2.54,15.28H2025l1-6.32h-6.56l-1,6.32h-3.23Z"/><path class="cls-1" d="M2030.07,24.57l7.81-15.28H2042l2.73,15.28h-3.46l-.55-3.49h-5.51l-1.72,3.49Zm10.29-6-.91-5.78h-.12l-2.85,5.78Z"/><path class="cls-1" d="M2057.78,14.64a2.47,2.47,0,0,0-2.7-2.71c-2.45,0-4.4,1.91-4.94,5.19s.69,4.8,2.91,4.8a4,4,0,0,0,3.94-2.58h3.24a7.6,7.6,0,0,1-7.35,5.44c-4.17,0-6.79-3-6-8,.82-4.91,4.27-7.65,8.21-7.65,3.64,0,6,2,5.87,5.56Z"/></svg>