<svg id="Layer_1" data-name="Layer 1" xmlns="http://www.w3.org/2000/svg" viewBox="0 0 2084 34"><defs><style>.cls-1{fill:#fff;}</style></defs><path class="cls-1" d="M14.94,9.29,13.3,19.21c-.55,3.34-3.47,5.57-7.26,5.57s-6-2.23-5.41-5.57L2.28,9.29H5.51L3.9,18.93a2.44,2.44,0,0,0,2.61,3,3.54,3.54,0,0,0,3.6-3l1.6-9.64Z"/><path class="cls-1" d="M22.85,11.78c-1.58,0-2.56.71-2.73,1.71s.84,1.59,2.11,1.89l1.31.33c2.55.6,4.26,1.95,3.83,4.49-.47,2.8-2.94,4.58-6.68,4.58s-5.8-1.72-5.33-5h3.13c-.17,1.53.93,2.31,2.61,2.31s2.84-.77,3-1.88-.67-1.53-2.28-1.91l-1.6-.42c-2.46-.63-3.83-1.91-3.47-4.17.47-2.78,3.21-4.62,6.56-4.62s5.32,1.87,4.91,4.65H25.14C25.19,12.48,24.4,11.78,22.85,11.78Z"/><path class="cls-1" d="M31.34,9.29h10.3L41.19,12H34.13l-.6,3.64h6.54l-.45,2.66H33.08l-.59,3.65h7.09l-.45,2.67H28.81Z"/><path class="cls-1" d="M44.21,9.29h6c3.47,0,5.15,2,4.65,5a5.43,5.43,0,0,1-3.43,4.35l2.26,5.94H50.15l-2-5.42H45.8l-.9,5.42H41.67Zm4.22,7.26c1.86,0,2.88-.76,3.13-2.27s-.52-2.35-2.37-2.35H47l-.77,4.62Z"/><path class="cls-1" d="M63,9.29H73.28L72.83,12H65.77l-.6,3.64h6.54l-.45,2.66H64.72l-.59,3.65h7.09l-.44,2.67H60.45Z"/><path class="cls-1" d="M81,14.49h.12l4-5.2h3.76l-5.92,7.64,3.48,7.64H82.74l-2.26-5.22h-.12l-4,5.22H72.59l6.06-7.64L75.22,9.29h3.55Z"/><path class="cls-1" d="M90.85,9.29h6c3.47,0,5.12,2.13,4.62,5.17s-2.89,5.15-6.42,5.15h-2.7l-.83,5H88.32ZM95,17a2.93,2.93,0,0,0,3.18-2.56c.25-1.53-.47-2.53-2.33-2.53H93.66L92.81,17Z"/><path class="cls-1" d="M104.44,9.29h10.3L114.29,12h-7.07l-.59,3.64h6.53l-.44,2.66h-6.54l-.6,3.65h7.1l-.45,2.67H101.9Z"/><path class="cls-1" d="M117.31,9.29h6c3.47,0,5.15,2,4.65,5a5.42,5.42,0,0,1-3.42,4.35l2.26,5.94h-3.57l-2-5.42H118.9l-.9,5.42h-3.23Zm4.22,7.26c1.86,0,2.88-.76,3.12-2.27s-.51-2.35-2.36-2.35h-2.18l-.78,4.62Z"/><path class="cls-1" d="M131.91,24.57h-3.23l2.53-15.28h3.23Z"/><path class="cls-1" d="M137.1,9.29h10.3L147,12h-7.06l-.6,3.64h6.54l-.45,2.66h-6.54l-.59,3.65h7.09l-.45,2.67H134.57Z"/><path class="cls-1" d="M160.21,24.57h-2.79l-5-9.62h-.12l-1.61,9.62h-3.23L150,9.29h2.83l5,9.61h.12l1.59-9.61h3.22Z"/><path class="cls-1" d="M174.76,14.64a2.47,2.47,0,0,0-2.7-2.71c-2.45,0-4.39,1.91-4.94,5.19s.7,4.8,2.92,4.8A4,4,0,0,0,174,19.34h3.25a7.61,7.61,0,0,1-7.35,5.44c-4.17,0-6.79-3-6-8,.82-4.91,4.26-7.65,8.2-7.65,3.64,0,6,2,5.88,5.56Z"/><path class="cls-1" d="M181.2,9.29h10.3L191.05,12H184l-.59,3.64h6.53l-.44,2.66h-6.54l-.6,3.65h7.1L189,24.57H178.66Z"/><path class="cls-1" d="M222.28,16.88a4,4,0,0,1,3.77-3.24A2.76,2.76,0,0,1,228.83,17,4,4,0,0,1,225,20.21,2.75,2.75,0,0,1,222.28,16.88Z"/><path class="cls-1" d="M274.91,9.29l-1.64,9.92c-.55,3.34-3.47,5.57-7.27,5.57s-5.95-2.23-5.4-5.57l1.64-9.92h3.23l-1.6,9.64a2.43,2.43,0,0,0,2.61,3,3.52,3.52,0,0,0,3.59-3l1.61-9.64Z"/><path class="cls-1" d="M282.82,11.78c-1.59,0-2.57.71-2.73,1.71s.83,1.59,2.1,1.89l1.31.33c2.56.6,4.26,1.95,3.84,4.49-.47,2.8-2.95,4.58-6.69,4.58s-5.79-1.72-5.32-5h3.12c-.16,1.53.93,2.31,2.61,2.31s2.84-.77,3-1.88-.68-1.53-2.29-1.91l-1.59-.42c-2.46-.63-3.84-1.91-3.48-4.17.47-2.78,3.22-4.62,6.57-4.62s5.32,1.87,4.91,4.65h-3.1C285.15,12.48,284.36,11.78,282.82,11.78Z"/><path class="cls-1" d="M291.31,9.29H301.6L301.16,12h-7.07l-.6,3.64H300l-.45,2.66h-6.53l-.6,3.65h7.1l-.45,2.67H288.77Z"/><path class="cls-1" d="M304.17,9.29h6c3.47,0,5.15,2,4.65,5a5.42,5.42,0,0,1-3.43,4.35l2.27,5.94h-3.57l-2-5.42h-2.35l-.9,5.42h-3.24Zm4.23,7.26c1.85,0,2.87-.76,3.12-2.27s-.51-2.35-2.36-2.35H307l-.78,4.62Z"/><path class="cls-1" d="M323.64,24.57h-3.23L323,9.29h3.23Z"/><path class="cls-1" d="M339.09,24.57h-2.8l-5-9.62h-.12l-1.61,9.62H326.3l2.54-15.28h2.84l5,9.61h.13l1.59-9.61h3.21Z"/><path class="cls-1" d="M343.7,9.29h12.55L355.8,12h-4.68L349,24.57h-3.19L347.93,12h-4.68Z"/><path class="cls-1" d="M358.31,9.29h10.3L368.16,12H361.1l-.6,3.64H367l-.45,2.66h-6.54l-.6,3.65h7.1l-.45,2.67H355.78Z"/><path class="cls-1" d="M371.18,9.29h6c3.47,0,5.15,2,4.65,5a5.42,5.42,0,0,1-3.42,4.35l2.26,5.94h-3.57l-2-5.42h-2.35l-.9,5.42h-3.23Zm4.22,7.26c1.86,0,2.88-.76,3.13-2.27s-.52-2.35-2.37-2.35H374l-.77,4.62Z"/><path class="cls-1" d="M385.08,9.29H395.2L394.75,12h-6.88l-.6,3.64h6.22L393,18.25h-6.22l-1,6.32h-3.23Z"/><path class="cls-1" d="M392.09,24.57l7.82-15.28h4.16l2.73,15.28h-3.46l-.55-3.49h-5.52l-1.72,3.49Zm10.3-6-.91-5.78h-.12l-2.85,5.78Z"/><path class="cls-1" d="M419.8,14.64a2.46,2.46,0,0,0-2.7-2.71c-2.44,0-4.39,1.91-4.94,5.19s.7,4.8,2.92,4.8A4,4,0,0,0,419,19.34h3.25a7.61,7.61,0,0,1-7.35,5.44c-4.17,0-6.79-3-6-8,.82-4.91,4.27-7.65,8.21-7.65,3.64,0,6,2,5.87,5.56Z"/><path class="cls-1" d="M426.24,9.29h10.3L436.09,12H429l-.6,3.64H435l-.44,2.66H428l-.6,3.65h7.1L434,24.57H423.71Z"/><path class="cls-1" d="M467.32,16.88a4,4,0,0,1,3.77-3.24A2.76,2.76,0,0,1,473.87,17a4,4,0,0,1-3.79,3.24A2.75,2.75,0,0,1,467.32,16.88Z"/><path class="cls-1" d="M520,9.29l-1.64,9.92c-.55,3.34-3.47,5.57-7.27,5.57s-6-2.23-5.4-5.57l1.64-9.92h3.23l-1.6,9.64a2.43,2.43,0,0,0,2.61,3,3.54,3.54,0,0,0,3.6-3l1.6-9.64Z"/><path class="cls-1" d="M527.73,14.49h.12l4-5.2h3.75l-5.91,7.64,3.48,7.64h-3.65l-2.27-5.22h-.12l-4,5.22h-3.76l6.06-7.64L522,9.29h3.56Z"/><path class="cls-1" d="M541.54,9.29h3.53l.77,10.61H546l4.54-10.61h3l1,10.64h.13L559,9.29h3.53L555.6,24.57h-3.14l-1.24-10h-.12l-4.58,10h-3.15Z"/><path class="cls-1" d="M564.23,9.29h6c3.47,0,5.15,2,4.65,5a5.42,5.42,0,0,1-3.42,4.35l2.26,5.94h-3.57l-2-5.42h-2.35l-.9,5.42h-3.23Zm4.22,7.26c1.86,0,2.88-.76,3.13-2.27s-.52-2.35-2.37-2.35H567l-.78,4.62Z"/><path class="cls-1" d="M578.83,24.57H575.6l2.53-15.28h3.23Z"/><path class="cls-1" d="M583.44,9.29H596L595.54,12h-4.67l-2.09,12.62h-3.2L587.67,12H583Z"/><path class="cls-1" d="M598.75,24.57h-3.23l2.54-15.28h3.23Z"/><path class="cls-1" d="M614.19,24.57H611.4l-5-9.62h-.12l-1.61,9.62h-3.23L604,9.29h2.84l5,9.61h.13l1.59-9.61h3.21Z"/><path class="cls-1" d="M626,11.93c-2.34,0-4.38,1.8-4.9,5s.6,5,3,5a3.86,3.86,0,0,0,4.09-3.1H625l.4-2.43h6.39l-.32,1.92a7.5,7.5,0,0,1-7.68,6.47c-4.3,0-6.72-3-5.92-7.84s4.42-7.86,8.45-7.86c3.46,0,5.77,2.12,5.68,5.15H628.7A2.38,2.38,0,0,0,626,11.93Z"/><path class="cls-1" d="M663.58,16.88a4,4,0,0,1,3.77-3.24A2.76,2.76,0,0,1,670.13,17a4,4,0,0,1-3.79,3.24A2.74,2.74,0,0,1,663.58,16.88Z"/><path class="cls-1" d="M716.21,9.29l-1.65,9.92c-.55,3.34-3.47,5.57-7.26,5.57s-6-2.23-5.41-5.57l1.65-9.92h3.23l-1.61,9.64a2.44,2.44,0,0,0,2.61,3,3.54,3.54,0,0,0,3.6-3L713,9.29Z"/><path class="cls-1" d="M724.11,11.78c-1.58,0-2.56.71-2.73,1.71s.84,1.59,2.11,1.89l1.31.33c2.55.6,4.26,1.95,3.84,4.49-.47,2.8-2.95,4.58-6.69,4.58s-5.8-1.72-5.33-5h3.13c-.17,1.53.93,2.31,2.61,2.31s2.84-.77,3-1.88-.68-1.53-2.29-1.91l-1.59-.42C719,17.24,717.66,16,718,13.7c.47-2.78,3.21-4.62,6.56-4.62s5.32,1.87,4.91,4.65H726.4C726.45,12.48,725.66,11.78,724.11,11.78Z"/><path class="cls-1" d="M732.6,9.29h10.3L742.45,12h-7.06l-.6,3.64h6.54l-.45,2.66h-6.54l-.59,3.65h7.09l-.45,2.67H730.07Z"/><path class="cls-1" d="M745.47,9.29h6c3.47,0,5.15,2,4.65,5a5.43,5.43,0,0,1-3.43,4.35L755,24.57h-3.56l-2-5.42h-2.35l-.91,5.42h-3.23Zm4.22,7.26c1.86,0,2.88-.76,3.13-2.27s-.52-2.35-2.37-2.35h-2.18l-.77,4.62Z"/><path class="cls-1" d="M764.25,9.29h10.29L774.09,12H767l-.6,3.64H773l-.45,2.66H766l-.59,3.65h7.09L772,24.57H761.71Z"/><path class="cls-1" d="M782.24,14.49h.12l4-5.2h3.76l-5.92,7.64,3.48,7.64H784l-2.26-5.22h-.12l-4,5.22h-3.77l6.07-7.64-3.44-7.64H780Z"/><path class="cls-1" d="M792.11,9.29h6c3.47,0,5.12,2.13,4.62,5.17s-2.89,5.15-6.42,5.15h-2.7l-.83,5h-3.23ZM796.25,17a2.93,2.93,0,0,0,3.18-2.56c.25-1.53-.47-2.53-2.33-2.53h-2.18L794.07,17Z"/><path class="cls-1" d="M805.7,9.29H816L815.55,12h-7.06l-.6,3.64h6.53L814,18.25h-6.54l-.6,3.65h7.1l-.45,2.67H803.17Z"/><path class="cls-1" d="M818.57,9.29h6c3.47,0,5.15,2,4.65,5a5.42,5.42,0,0,1-3.42,4.35l2.26,5.94h-3.57l-2-5.42h-2.35l-.9,5.42H816Zm4.22,7.26c1.86,0,2.88-.76,3.13-2.27s-.52-2.35-2.37-2.35h-2.18l-.77,4.62Z"/><path class="cls-1" d="M833.17,24.57h-3.23l2.53-15.28h3.23Z"/><path class="cls-1" d="M838.37,9.29h10.29L848.21,12h-7.06l-.6,3.64h6.54l-.45,2.66H840.1l-.59,3.65h7.09l-.44,2.67H835.83Z"/><path class="cls-1" d="M861.47,24.57h-2.79l-5-9.62h-.12l-1.61,9.62h-3.23l2.54-15.28h2.83l5,9.61h.13l1.58-9.61H864Z"/><path class="cls-1" d="M876,14.64a2.46,2.46,0,0,0-2.7-2.71c-2.45,0-4.39,1.91-4.94,5.19s.7,4.8,2.92,4.8a4,4,0,0,0,3.93-2.58h3.25a7.61,7.61,0,0,1-7.35,5.44c-4.17,0-6.79-3-6-8,.82-4.91,4.26-7.65,8.2-7.65,3.64,0,6,2,5.88,5.56Z"/><path class="cls-1" d="M882.46,9.29h10.3L892.31,12h-7.07l-.59,3.64h6.53l-.44,2.66H884.2l-.6,3.65h7.1l-.45,2.67H879.92Z"/><path class="cls-1" d="M923.54,16.88a4,4,0,0,1,3.77-3.24A2.76,2.76,0,0,1,930.09,17a4,4,0,0,1-3.79,3.24A2.75,2.75,0,0,1,923.54,16.88Z"/><path class="cls-1" d="M976.17,9.29l-1.64,9.92c-.55,3.34-3.47,5.57-7.27,5.57s-6-2.23-5.4-5.57l1.64-9.92h3.23l-1.6,9.64a2.43,2.43,0,0,0,2.61,3,3.52,3.52,0,0,0,3.59-3l1.61-9.64Z"/><path class="cls-1" d="M984.08,11.78c-1.58,0-2.57.71-2.73,1.71s.83,1.59,2.1,1.89l1.31.33c2.56.6,4.26,1.95,3.84,4.49-.47,2.8-3,4.58-6.69,4.58s-5.79-1.72-5.32-5h3.12c-.16,1.53.94,2.31,2.61,2.31s2.84-.77,3-1.88-.68-1.53-2.28-1.91l-1.6-.42C979,17.24,977.62,16,978,13.7c.47-2.78,3.22-4.62,6.57-4.62s5.32,1.87,4.91,4.65h-3.1C986.41,12.48,985.62,11.78,984.08,11.78Z"/><path class="cls-1" d="M992.57,9.29h10.3l-.45,2.66h-7.07l-.6,3.64h6.54l-.45,2.66h-6.53l-.6,3.65h7.1l-.45,2.67H990Z"/><path class="cls-1" d="M1005.43,9.29h6c3.47,0,5.15,2,4.65,5a5.42,5.42,0,0,1-3.42,4.35l2.26,5.94h-3.57l-2-5.42H1007l-.9,5.42h-3.23Zm4.23,7.26c1.85,0,2.88-.76,3.12-2.27s-.51-2.35-2.36-2.35h-2.18l-.78,4.62Z"/><path class="cls-1" d="M1024.9,24.57h-3.23l2.54-15.28h3.23Z"/><path class="cls-1" d="M1040.35,24.57h-2.79l-5-9.62h-.12l-1.61,9.62h-3.23l2.54-15.28h2.84l5,9.61h.13l1.59-9.61h3.21Z"/><path class="cls-1" d="M1045,9.29h12.55l-.45,2.66h-4.68l-2.09,12.62h-3.19L1049.19,12h-4.68Z"/><path class="cls-1" d="M1059.57,9.29h10.3l-.45,2.66h-7.06l-.6,3.64h6.54l-.45,2.66h-6.54l-.6,3.65h7.1l-.45,2.67H1057Z"/><path class="cls-1" d="M1072.44,9.29h6c3.47,0,5.15,2,4.65,5a5.42,5.42,0,0,1-3.42,4.35l2.26,5.94h-3.57l-2-5.42H1074l-.9,5.42h-3.23Zm4.22,7.26c1.86,0,2.88-.76,3.13-2.27s-.52-2.35-2.37-2.35h-2.18l-.77,4.62Z"/><path class="cls-1" d="M1086.34,9.29h10.12L1096,12h-6.88l-.6,3.64h6.22l-.45,2.66h-6.22l-1,6.32h-3.23Z"/><path class="cls-1" d="M1093.35,24.57l7.82-15.28h4.16l2.73,15.28h-3.46l-.55-3.49h-5.52l-1.71,3.49Zm10.3-6-.91-5.78h-.12l-2.85,5.78Z"/><path class="cls-1" d="M1121.06,14.64a2.46,2.46,0,0,0-2.7-2.71c-2.44,0-4.39,1.91-4.94,5.19s.7,4.8,2.92,4.8a4,4,0,0,0,3.93-2.58h3.25a7.61,7.61,0,0,1-7.35,5.44c-4.17,0-6.79-3-6-8,.82-4.91,4.27-7.65,8.21-7.65,3.64,0,6,2,5.87,5.56Z"/><path class="cls-1" d="M1127.5,9.29h10.3l-.45,2.66h-7.06l-.6,3.64h6.53l-.44,2.66h-6.54l-.6,3.65h7.1l-.45,2.67H1125Z"/><path class="cls-1" d="M1168.58,16.88a4,4,0,0,1,3.77-3.24,2.76,2.76,0,0,1,2.78,3.33,4,4,0,0,1-3.79,3.24A2.75,2.75,0,0,1,1168.58,16.88Z"/><path class="cls-1" d="M1221.21,9.29l-1.64,9.92c-.55,3.34-3.47,5.57-7.27,5.57s-6-2.23-5.4-5.57l1.64-9.92h3.23l-1.6,9.64a2.43,2.43,0,0,0,2.61,3,3.54,3.54,0,0,0,3.6-3l1.6-9.64Z"/><path class="cls-1" d="M1229,14.49h.12l4-5.2h3.75l-5.91,7.64,3.48,7.64h-3.65l-2.27-5.22h-.11l-4,5.22h-3.77l6.06-7.64-3.44-7.64h3.56Z"/><path class="cls-1" d="M1242.8,9.29h3.53l.77,10.61h.13l4.55-10.61h3l1,10.64h.13l4.29-10.64h3.52l-6.91,15.28h-3.14l-1.24-10h-.12l-4.58,10h-3.15Z"/><path class="cls-1" d="M1265.49,9.29h6c3.47,0,5.15,2,4.65,5a5.42,5.42,0,0,1-3.42,4.35l2.26,5.94h-3.57l-2-5.42h-2.35l-.9,5.42H1263Zm4.22,7.26c1.86,0,2.88-.76,3.13-2.27s-.52-2.35-2.37-2.35h-2.18l-.77,4.62Z"/><path class="cls-1" d="M1280.09,24.57h-3.23l2.53-15.28h3.23Z"/><path class="cls-1" d="M1284.7,9.29h12.55l-.44,2.66h-4.68L1290,24.57h-3.2L1288.93,12h-4.68Z"/><path class="cls-1" d="M1300,24.57h-3.23l2.54-15.28h3.23Z"/><path class="cls-1" d="M1315.46,24.57h-2.79l-5-9.62h-.12l-1.61,9.62h-3.23l2.54-15.28h2.84l5,9.61h.13l1.59-9.61H1318Z"/><path class="cls-1" d="M1327.3,11.93c-2.34,0-4.38,1.8-4.9,5s.6,5,3,5a3.86,3.86,0,0,0,4.09-3.1h-3.27l.4-2.43H1333l-.32,1.92a7.49,7.49,0,0,1-7.68,6.47c-4.3,0-6.72-3-5.92-7.84s4.42-7.86,8.46-7.86c3.45,0,5.76,2.12,5.67,5.15H1330A2.38,2.38,0,0,0,1327.3,11.93Z"/><path class="cls-1" d="M1364.84,16.88a4,4,0,0,1,3.77-3.24,2.76,2.76,0,0,1,2.78,3.33,4,4,0,0,1-3.79,3.24A2.74,2.74,0,0,1,1364.84,16.88Z"/><path class="cls-1" d="M1417.47,9.29l-1.64,9.92c-.56,3.34-3.47,5.57-7.27,5.57s-6-2.23-5.4-5.57l1.64-9.92H1408l-1.61,9.64a2.44,2.44,0,0,0,2.62,3,3.52,3.52,0,0,0,3.59-3l1.61-9.64Z"/><path class="cls-1" d="M1425.37,11.78c-1.58,0-2.56.71-2.73,1.71s.84,1.59,2.11,1.89l1.31.33c2.55.6,4.26,1.95,3.84,4.49-.47,2.8-3,4.58-6.69,4.58s-5.8-1.72-5.33-5H1421c-.16,1.53.93,2.31,2.61,2.31s2.84-.77,3-1.88-.68-1.53-2.29-1.91l-1.59-.42c-2.47-.63-3.84-1.91-3.48-4.17.47-2.78,3.21-4.62,6.56-4.62s5.33,1.87,4.91,4.65h-3.09C1427.71,12.48,1426.92,11.78,1425.37,11.78Z"/><path class="cls-1" d="M1433.87,9.29h10.29l-.45,2.66h-7.06l-.6,3.64h6.54l-.45,2.66h-6.54L1435,21.9h7.09l-.44,2.67h-10.33Z"/><path class="cls-1" d="M1446.73,9.29h6c3.47,0,5.15,2,4.65,5a5.43,5.43,0,0,1-3.43,4.35l2.26,5.94h-3.56l-2-5.42h-2.35l-.91,5.42h-3.23Zm4.22,7.26c1.86,0,2.88-.76,3.13-2.27s-.52-2.35-2.37-2.35h-2.17l-.78,4.62Z"/><path class="cls-1" d="M1465.51,9.29h10.29l-.44,2.66h-7.07l-.6,3.64h6.54l-.45,2.66h-6.53l-.6,3.65h7.09l-.44,2.67H1463Z"/><path class="cls-1" d="M1483.5,14.49h.12l4-5.2h3.76l-5.92,7.64,3.48,7.64h-3.64L1483,19.35h-.12l-4,5.22h-3.77l6.07-7.64-3.44-7.64h3.56Z"/><path class="cls-1" d="M1493.38,9.29h6c3.47,0,5.12,2.13,4.62,5.17s-2.89,5.15-6.41,5.15h-2.71l-.83,5h-3.23Zm4.13,7.73a2.93,2.93,0,0,0,3.18-2.56c.25-1.53-.47-2.53-2.33-2.53h-2.18l-.85,5.09Z"/><path class="cls-1" d="M1507,9.29h10.3l-.45,2.66h-7.06l-.6,3.64h6.54l-.45,2.66h-6.54l-.6,3.65h7.1l-.45,2.67h-10.32Z"/><path class="cls-1" d="M1519.83,9.29h6c3.47,0,5.15,2,4.65,5a5.42,5.42,0,0,1-3.42,4.35l2.26,5.94h-3.57l-2-5.42h-2.35l-.9,5.42h-3.23Zm4.22,7.26c1.86,0,2.88-.76,3.13-2.27s-.52-2.35-2.37-2.35h-2.18l-.77,4.62Z"/><path class="cls-1" d="M1534.43,24.57h-3.23l2.53-15.28H1537Z"/><path class="cls-1" d="M1539.63,9.29h10.29l-.45,2.66h-7.06l-.6,3.64h6.54l-.45,2.66h-6.54l-.59,3.65h7.09l-.44,2.67h-10.33Z"/><path class="cls-1" d="M1562.73,24.57h-2.79l-5-9.62h-.12l-1.61,9.62H1550l2.54-15.28h2.84l5,9.61h.13l1.59-9.61h3.21Z"/><path class="cls-1" d="M1577.28,14.64a2.46,2.46,0,0,0-2.7-2.71c-2.45,0-4.39,1.91-4.94,5.19s.7,4.8,2.92,4.8a4,4,0,0,0,3.93-2.58h3.25a7.61,7.61,0,0,1-7.35,5.44c-4.17,0-6.79-3-6-8,.82-4.91,4.27-7.65,8.2-7.65,3.65,0,6,2,5.88,5.56Z"/><path class="cls-1" d="M1583.72,9.29H1594l-.45,2.66h-7.07l-.59,3.64h6.53l-.44,2.66h-6.54l-.6,3.65h7.1l-.45,2.67h-10.33Z"/><path class="cls-1" d="M1624.8,16.88a4,4,0,0,1,3.77-3.24,2.76,2.76,0,0,1,2.78,3.33,4,4,0,0,1-3.79,3.24A2.75,2.75,0,0,1,1624.8,16.88Z"/><path class="cls-1" d="M1677.43,9.29l-1.64,9.92c-.55,3.34-3.47,5.57-7.27,5.57s-6-2.23-5.4-5.57l1.64-9.92H1668l-1.6,9.64a2.43,2.43,0,0,0,2.61,3,3.54,3.54,0,0,0,3.6-3l1.6-9.64Z"/><path class="cls-1" d="M1685.34,11.78c-1.58,0-2.57.71-2.73,1.71s.83,1.59,2.1,1.89l1.31.33c2.56.6,4.27,1.95,3.84,4.49-.47,2.8-2.95,4.58-6.69,4.58s-5.79-1.72-5.32-5H1681c-.16,1.53.94,2.31,2.61,2.31s2.84-.77,3-1.88-.68-1.53-2.28-1.91l-1.6-.42c-2.46-.63-3.84-1.91-3.48-4.17.47-2.78,3.22-4.62,6.57-4.62s5.32,1.87,4.91,4.65h-3.1C1687.67,12.48,1686.88,11.78,1685.34,11.78Z"/><path class="cls-1" d="M1693.83,9.29h10.3l-.45,2.66h-7.07l-.59,3.64h6.53l-.45,2.66h-6.53l-.6,3.65h7.1l-.45,2.67h-10.33Z"/><path class="cls-1" d="M1706.69,9.29h6c3.47,0,5.15,2,4.65,5a5.42,5.42,0,0,1-3.42,4.35l2.26,5.94h-3.57l-2-5.42h-2.35l-.9,5.42h-3.23Zm4.23,7.26c1.85,0,2.88-.76,3.12-2.27s-.51-2.35-2.36-2.35h-2.18l-.78,4.62Z"/><path class="cls-1" d="M1726.16,24.57h-3.23l2.54-15.28h3.23Z"/><path class="cls-1" d="M1741.61,24.57h-2.79l-5-9.62h-.12l-1.6,9.62h-3.23l2.53-15.28h2.84l5,9.61h.13l1.59-9.61h3.21Z"/><path class="cls-1" d="M1746.22,9.29h12.55l-.45,2.66h-4.68l-2.09,12.62h-3.19L1750.45,12h-4.68Z"/><path class="cls-1" d="M1760.83,9.29h10.3l-.45,2.66h-7.06l-.6,3.64h6.54l-.45,2.66h-6.54L1762,21.9h7.09l-.45,2.67H1758.3Z"/><path class="cls-1" d="M1773.7,9.29h6c3.47,0,5.15,2,4.65,5a5.43,5.43,0,0,1-3.43,4.35l2.26,5.94h-3.57l-2-5.42h-2.35l-.9,5.42h-3.23Zm4.22,7.26c1.86,0,2.88-.76,3.13-2.27s-.52-2.35-2.37-2.35h-2.18l-.77,4.62Z"/><path class="cls-1" d="M1787.61,9.29h10.11l-.44,2.66h-6.89l-.6,3.64H1796l-.45,2.66h-6.22l-1,6.32h-3.23Z"/><path class="cls-1" d="M1794.61,24.57l7.82-15.28h4.16l2.73,15.28h-3.46l-.55-3.49h-5.52l-1.71,3.49Zm10.3-6-.91-5.78h-.12L1801,18.56Z"/><path class="cls-1" d="M1822.33,14.64a2.47,2.47,0,0,0-2.71-2.71c-2.44,0-4.39,1.91-4.94,5.19s.7,4.8,2.92,4.8a4,4,0,0,0,3.93-2.58h3.25a7.6,7.6,0,0,1-7.35,5.44c-4.17,0-6.79-3-6-8,.82-4.91,4.27-7.65,8.21-7.65,3.64,0,6,2,5.87,5.56Z"/><path class="cls-1" d="M1828.76,9.29h10.3l-.45,2.66h-7.06l-.6,3.64h6.54l-.45,2.66h-6.54l-.59,3.65H1837l-.45,2.67h-10.32Z"/><path class="cls-1" d="M1869.84,16.88a4,4,0,0,1,3.77-3.24A2.77,2.77,0,0,1,1876.4,17a4,4,0,0,1-3.79,3.24A2.75,2.75,0,0,1,1869.84,16.88Z"/><path class="cls-1" d="M1922.47,9.29l-1.64,9.92c-.55,3.34-3.47,5.57-7.27,5.57s-6-2.23-5.4-5.57l1.64-9.92H1913l-1.6,9.64a2.43,2.43,0,0,0,2.61,3,3.54,3.54,0,0,0,3.6-3l1.6-9.64Z"/><path class="cls-1" d="M1930.25,14.49h.12l4-5.2h3.75l-5.91,7.64,3.48,7.64H1932l-2.26-5.22h-.12l-4,5.22h-3.77l6.06-7.64-3.44-7.64H1928Z"/><path class="cls-1" d="M1944.06,9.29h3.53l.78,10.61h.12L1953,9.29h3l1,10.64h.13l4.29-10.64H1965l-6.92,15.28H1955l-1.24-10h-.12l-4.58,10h-3.14Z"/><path class="cls-1" d="M1966.75,9.29h6c3.47,0,5.14,2,4.64,5a5.41,5.41,0,0,1-3.42,4.35l2.26,5.94h-3.57l-2-5.42h-2.35l-.9,5.42h-3.23Zm4.22,7.26c1.86,0,2.88-.76,3.13-2.27s-.52-2.35-2.37-2.35h-2.18l-.77,4.62Z"/><path class="cls-1" d="M1981.35,24.57h-3.23l2.54-15.28h3.23Z"/><path class="cls-1" d="M1986,9.29h12.55l-.44,2.66h-4.68l-2.09,12.62h-3.19L1990.19,12h-4.67Z"/><path class="cls-1" d="M2001.27,24.57H1998l2.54-15.28h3.23Z"/><path class="cls-1" d="M2016.72,24.57h-2.79l-5-9.62h-.12l-1.6,9.62h-3.24l2.54-15.28h2.84l5,9.61h.13L2016,9.29h3.21Z"/><path class="cls-1" d="M2028.56,11.93c-2.34,0-4.38,1.8-4.9,5s.6,5,3,5a3.86,3.86,0,0,0,4.09-3.1h-3.27l.4-2.43h6.39l-.32,1.92a7.49,7.49,0,0,1-7.68,6.47c-4.3,0-6.72-3-5.92-7.84s4.42-7.86,8.46-7.86c3.45,0,5.76,2.12,5.67,5.15h-3.28A2.38,2.38,0,0,0,2028.56,11.93Z"/><path class="cls-1" d="M2066.1,16.88a4,4,0,0,1,3.77-3.24,2.76,2.76,0,0,1,2.78,3.33,4,4,0,0,1-3.79,3.24A2.74,2.74,0,0,1,2066.1,16.88Z"/></svg>