<svg id="Layer_1" data-name="Layer 1" xmlns="http://www.w3.org/2000/svg" viewBox="0 0 2084 44"><defs><style>.cls-1{fill:#fff;}</style></defs><path class="cls-1" d="M1.34,9.29H4.87L5.65,19.9h.12L10.32,9.29h3l1,10.64h.13L18.79,9.29h3.53L15.41,24.57H12.26L11,14.58H10.9l-4.57,10H3.18Z"/><path class="cls-1" d="M24,9.29h10.3L33.88,12H26.81l-.6,3.64h6.54l-.45,2.66H25.77l-.6,3.65h7.1l-.45,2.67H21.49Z"/><path class="cls-1" d="M36.89,9.29H43c3.37,0,4.81,1.62,4.43,3.91a4.1,4.1,0,0,1-3.31,3.29l0,.15a2.92,2.92,0,0,1,2.75,3.7c-.41,2.43-2.53,4.23-6,4.23H34.36Zm3.78,12.64c1.79,0,2.71-.76,2.9-1.91s-.6-2.15-2.17-2.15H38.7L38,21.93Zm.8-6.25a2.48,2.48,0,0,0,2.62-1.94c.17-1.11-.52-1.84-1.94-1.84H39.7l-.63,3.78Z"/><path class="cls-1" d="M52.28,24.57,60.09,9.29h4.16L67,24.57H63.52L63,21.08H57.45l-1.71,3.49Zm10.29-6-.91-5.78h-.12l-2.85,5.78Z"/><path class="cls-1" d="M71.35,9.29h6c3.47,0,5.12,2.13,4.62,5.17s-2.88,5.15-6.41,5.15H72.87l-.83,5H68.81ZM75.48,17a2.94,2.94,0,0,0,3.19-2.56c.24-1.53-.47-2.53-2.34-2.53H74.15L73.3,17Z"/><path class="cls-1" d="M84.93,9.29h6c3.47,0,5.12,2.13,4.62,5.17s-2.89,5.15-6.42,5.15h-2.7l-.83,5H82.4ZM89.07,17a2.93,2.93,0,0,0,3.18-2.56c.25-1.53-.47-2.53-2.33-2.53H87.74L86.89,17Z"/><path class="cls-1" d="M103.78,11.78c-1.58,0-2.57.71-2.73,1.71s.84,1.59,2.1,1.89l1.32.33c2.55.6,4.26,1.95,3.83,4.49-.47,2.8-3,4.58-6.68,4.58s-5.8-1.72-5.33-5h3.13c-.17,1.53.93,2.31,2.61,2.31s2.83-.77,3-1.88-.68-1.53-2.28-1.91l-1.6-.42c-2.46-.63-3.83-1.91-3.48-4.17.47-2.78,3.22-4.62,6.57-4.62s5.32,1.87,4.91,4.65h-3.1C106.12,12.48,105.33,11.78,103.78,11.78Z"/><path class="cls-1" d="M140.49,16.88a4,4,0,0,1,3.77-3.24A2.76,2.76,0,0,1,147,17a4,4,0,0,1-3.79,3.24A2.74,2.74,0,0,1,140.49,16.88Z"/><path class="cls-1" d="M181.14,24.57h-3.23l2.54-15.28h3.23Z"/><path class="cls-1" d="M190.84,24.78c-4.16,0-6.85-3-6-8,.81-4.9,4.28-7.67,8.26-7.67,4.14,0,6.83,3,6,8.06C198.25,22,194.81,24.78,190.84,24.78ZM193,11.93c-2.45,0-4.38,1.89-4.92,5.21-.55,3.15.69,4.78,2.92,4.78,2.44,0,4.36-1.85,4.91-5.17C196.38,13.61,195.22,11.93,193,11.93Z"/><path class="cls-1" d="M208,11.78c-1.58,0-2.57.71-2.73,1.71s.83,1.59,2.1,1.89l1.32.33c2.55.6,4.26,1.95,3.83,4.49-.47,2.8-2.95,4.58-6.68,4.58s-5.8-1.72-5.33-5h3.12c-.16,1.53.94,2.31,2.62,2.31s2.83-.77,3-1.88-.68-1.53-2.28-1.91l-1.6-.42c-2.46-.63-3.83-1.91-3.48-4.17.47-2.78,3.22-4.62,6.57-4.62s5.32,1.87,4.91,4.65h-3.1C210.35,12.48,209.56,11.78,208,11.78Z"/><path class="cls-1" d="M218,24.57l7.81-15.28H230l2.73,15.28h-3.46l-.55-3.49h-5.52l-1.71,3.49Zm10.29-6-.91-5.78h-.12l-2.85,5.78Z"/><path class="cls-1" d="M237.09,9.29h6c3.47,0,5.12,2.13,4.62,5.17s-2.88,5.15-6.41,5.15h-2.71l-.83,5h-3.23ZM241.22,17a2.94,2.94,0,0,0,3.19-2.56c.24-1.53-.47-2.53-2.34-2.53h-2.18L239,17Z"/><path class="cls-1" d="M250.67,9.29h6c3.47,0,5.12,2.13,4.62,5.17s-2.89,5.15-6.42,5.15h-2.71l-.82,5h-3.23ZM254.81,17A2.93,2.93,0,0,0,258,14.46c.25-1.53-.47-2.53-2.33-2.53h-2.18L252.63,17Z"/><path class="cls-1" d="M269.52,11.78c-1.58,0-2.57.71-2.73,1.71s.84,1.59,2.1,1.89l1.32.33c2.55.6,4.26,1.95,3.83,4.49-.47,2.8-3,4.58-6.68,4.58s-5.8-1.72-5.33-5h3.13c-.17,1.53.93,2.31,2.61,2.31s2.83-.77,3-1.88-.68-1.53-2.28-1.91l-1.6-.42c-2.46-.63-3.83-1.91-3.48-4.17.47-2.78,3.22-4.62,6.57-4.62s5.32,1.87,4.91,4.65h-3.1C271.86,12.48,271.06,11.78,269.52,11.78Z"/><path class="cls-1" d="M306.23,16.88A4,4,0,0,1,310,13.64,2.76,2.76,0,0,1,312.78,17,4,4,0,0,1,309,20.21,2.74,2.74,0,0,1,306.23,16.88Z"/><path class="cls-1" d="M345.25,9.29h3.53l.78,10.61h.13l4.54-10.61h3l1,10.64h.14L362.7,9.29h3.53l-6.91,15.28h-3.15l-1.24-10h-.12l-4.57,10h-3.15Z"/><path class="cls-1" d="M367.94,9.29h10.3L377.79,12h-7.07l-.59,3.64h6.53l-.45,2.66h-6.53l-.6,3.65h7.1l-.45,2.67H365.4Z"/><path class="cls-1" d="M380.8,9.29h6.12c3.37,0,4.81,1.62,4.43,3.91A4.1,4.1,0,0,1,388,16.49l0,.15a2.92,2.92,0,0,1,2.75,3.7c-.41,2.43-2.53,4.23-6,4.23h-6.53Zm3.78,12.64c1.79,0,2.71-.76,2.9-1.91s-.6-2.15-2.17-2.15h-2.7L382,21.93Zm.8-6.25A2.48,2.48,0,0,0,388,13.74c.18-1.11-.52-1.84-1.94-1.84h-2.45L383,15.68Z"/><path class="cls-1" d="M399.94,11.78c-1.58,0-2.56.71-2.73,1.71s.84,1.59,2.11,1.89l1.31.33c2.55.6,4.26,1.95,3.83,4.49-.47,2.8-2.94,4.58-6.68,4.58s-5.8-1.72-5.33-5h3.13c-.17,1.53.93,2.31,2.61,2.31s2.83-.77,3-1.88-.68-1.53-2.28-1.91l-1.6-.42c-2.46-.63-3.83-1.91-3.47-4.17.47-2.78,3.21-4.62,6.56-4.62s5.32,1.87,4.91,4.65h-3.09C402.28,12.48,401.49,11.78,399.94,11.78Z"/><path class="cls-1" d="M409.13,24.57H405.9l2.53-15.28h3.23Z"/><path class="cls-1" d="M413.74,9.29h12.55L425.85,12h-4.68l-2.09,12.62h-3.2L418,12h-4.68Z"/><path class="cls-1" d="M428.36,9.29h10.3L438.21,12h-7.07l-.59,3.64h6.53l-.45,2.66H430.1l-.6,3.65h7.1l-.45,2.67H425.82Z"/><path class="cls-1" d="M446.48,11.78c-1.58,0-2.56.71-2.73,1.71s.84,1.59,2.11,1.89l1.31.33c2.55.6,4.26,1.95,3.84,4.49-.47,2.8-2.95,4.58-6.69,4.58s-5.8-1.72-5.33-5h3.13c-.16,1.53.93,2.31,2.61,2.31s2.84-.77,3-1.88-.68-1.53-2.29-1.91l-1.59-.42c-2.47-.63-3.84-1.91-3.48-4.17.47-2.78,3.21-4.62,6.56-4.62s5.32,1.87,4.91,4.65h-3.09C448.82,12.48,448,11.78,446.48,11.78Z"/><path class="cls-1" d="M483.19,16.88A4,4,0,0,1,487,13.64,2.76,2.76,0,0,1,489.74,17,4,4,0,0,1,486,20.21,2.75,2.75,0,0,1,483.19,16.88Z"/><path class="cls-1" d="M522.22,9.29h3.53l.77,10.61h.13l4.54-10.61h3l1,10.64h.14l4.28-10.64h3.53l-6.91,15.28h-3.15l-1.24-10h-.12l-4.57,10h-3.15Z"/><path class="cls-1" d="M544.9,9.29h10.3L554.75,12h-7.06l-.6,3.64h6.54l-.45,2.66h-6.54L546,21.9h7.1l-.45,2.67H542.37Z"/><path class="cls-1" d="M557.77,9.29h6.11c3.38,0,4.82,1.62,4.43,3.91A4.1,4.1,0,0,1,565,16.49l0,.15a2.92,2.92,0,0,1,2.76,3.7c-.41,2.43-2.54,4.23-6,4.23h-6.53Zm3.77,12.64c1.79,0,2.72-.76,2.9-1.91s-.59-2.15-2.17-2.15h-2.7l-.66,4.06Zm.8-6.25A2.48,2.48,0,0,0,565,13.74c.18-1.11-.52-1.84-1.94-1.84h-2.45L560,15.68Z"/><path class="cls-1" d="M573.15,24.57,581,9.29h4.16l2.74,15.28h-3.47l-.55-3.49h-5.51l-1.72,3.49Zm10.3-6-.91-5.78h-.12l-2.85,5.78Z"/><path class="cls-1" d="M592.22,9.29h6c3.47,0,5.12,2.13,4.62,5.17s-2.89,5.15-6.42,5.15h-2.71l-.83,5h-3.23ZM596.35,17a2.94,2.94,0,0,0,3.19-2.56c.25-1.53-.47-2.53-2.34-2.53H595L594.17,17Z"/><path class="cls-1" d="M605.81,9.29h6c3.47,0,5.12,2.13,4.62,5.17s-2.89,5.15-6.42,5.15h-2.71l-.83,5h-3.23ZM609.94,17a2.94,2.94,0,0,0,3.19-2.56c.24-1.53-.47-2.53-2.34-2.53h-2.18L607.76,17Z"/><path class="cls-1" d="M624.65,11.78c-1.58,0-2.56.71-2.73,1.71s.84,1.59,2.11,1.89l1.31.33c2.55.6,4.26,1.95,3.84,4.49-.47,2.8-2.95,4.58-6.69,4.58s-5.8-1.72-5.33-5h3.13c-.16,1.53.93,2.31,2.61,2.31s2.84-.77,3-1.88-.68-1.53-2.29-1.91L622,17.87c-2.47-.63-3.84-1.91-3.48-4.17.47-2.78,3.21-4.62,6.56-4.62S630.45,11,630,13.73h-3.09C627,12.48,626.2,11.78,624.65,11.78Z"/><path class="cls-1" d="M661.36,16.88a4,4,0,0,1,3.77-3.24A2.77,2.77,0,0,1,667.92,17a4,4,0,0,1-3.8,3.24A2.75,2.75,0,0,1,661.36,16.88Z"/><path class="cls-1" d="M702,24.57h-3.23l2.54-15.28h3.23Z"/><path class="cls-1" d="M711.72,24.78c-4.16,0-6.86-3-6-8,.8-4.9,4.27-7.67,8.26-7.67s6.82,3,6,8.06C719.13,22,715.68,24.78,711.72,24.78Zm2.12-12.85c-2.46,0-4.39,1.89-4.93,5.21-.54,3.15.69,4.78,2.93,4.78,2.44,0,4.36-1.85,4.9-5.17C717.26,13.61,716.09,11.93,713.84,11.93Z"/><path class="cls-1" d="M728.89,11.78c-1.58,0-2.56.71-2.73,1.71s.84,1.59,2.11,1.89l1.31.33c2.55.6,4.26,1.95,3.84,4.49-.47,2.8-2.95,4.58-6.69,4.58s-5.8-1.72-5.33-5h3.13c-.16,1.53.93,2.31,2.61,2.31s2.84-.77,3-1.88-.68-1.53-2.29-1.91l-1.59-.42c-2.47-.63-3.84-1.91-3.48-4.17.47-2.78,3.21-4.62,6.56-4.62s5.32,1.87,4.91,4.65h-3.09C731.23,12.48,730.44,11.78,728.89,11.78Z"/><path class="cls-1" d="M738.89,24.57,746.7,9.29h4.17l2.73,15.28h-3.47l-.55-3.49h-5.51l-1.72,3.49Zm10.3-6-.91-5.78h-.12l-2.85,5.78Z"/><path class="cls-1" d="M758,9.29h6c3.47,0,5.12,2.13,4.62,5.17s-2.89,5.15-6.42,5.15h-2.71l-.83,5h-3.23ZM762.09,17a2.94,2.94,0,0,0,3.19-2.56c.25-1.53-.47-2.53-2.34-2.53h-2.17L759.92,17Z"/><path class="cls-1" d="M771.55,9.29h6c3.47,0,5.12,2.13,4.62,5.17s-2.89,5.15-6.42,5.15h-2.71l-.83,5H769ZM775.68,17a2.94,2.94,0,0,0,3.19-2.56c.24-1.53-.47-2.53-2.34-2.53h-2.18L773.5,17Z"/><path class="cls-1" d="M790.39,11.78c-1.58,0-2.56.71-2.73,1.71s.84,1.59,2.11,1.89l1.31.33c2.55.6,4.26,1.95,3.84,4.49-.47,2.8-2.95,4.58-6.69,4.58s-5.8-1.72-5.33-5H786c-.16,1.53.93,2.31,2.61,2.31s2.84-.77,3-1.88-.68-1.53-2.29-1.91l-1.59-.42c-2.47-.63-3.84-1.91-3.48-4.17.47-2.78,3.21-4.62,6.57-4.62s5.32,1.87,4.9,4.65h-3.09C792.73,12.48,791.94,11.78,790.39,11.78Z"/><path class="cls-1" d="M827.1,16.88a4,4,0,0,1,3.77-3.24A2.77,2.77,0,0,1,833.66,17a4,4,0,0,1-3.79,3.24A2.75,2.75,0,0,1,827.1,16.88Z"/><path class="cls-1" d="M866.13,9.29h3.53l.77,10.61h.13L875.1,9.29h3l1,10.64h.13l4.28-10.64h3.53l-6.91,15.28H877l-1.23-10h-.12l-4.58,10H868Z"/><path class="cls-1" d="M888.81,9.29h10.3L898.66,12H891.6l-.6,3.64h6.54l-.45,2.66h-6.54L890,21.9h7.09l-.45,2.67H886.28Z"/><path class="cls-1" d="M901.68,9.29h6.12c3.37,0,4.81,1.62,4.42,3.91a4.09,4.09,0,0,1-3.3,3.29l0,.15a2.92,2.92,0,0,1,2.75,3.7c-.41,2.43-2.54,4.23-6,4.23h-6.53Zm3.77,12.64c1.8,0,2.72-.76,2.91-1.91s-.6-2.15-2.17-2.15h-2.71l-.66,4.06Zm.8-6.25a2.47,2.47,0,0,0,2.62-1.94c.18-1.11-.51-1.84-1.94-1.84h-2.45l-.62,3.78Z"/><path class="cls-1" d="M920.82,11.78c-1.58,0-2.57.71-2.73,1.71s.83,1.59,2.1,1.89l1.31.33c2.56.6,4.26,1.95,3.84,4.49-.47,2.8-3,4.58-6.69,4.58s-5.79-1.72-5.32-5h3.12c-.16,1.53.93,2.31,2.61,2.31s2.84-.77,3-1.88-.68-1.53-2.29-1.91l-1.59-.42c-2.46-.63-3.84-1.91-3.48-4.17.47-2.78,3.22-4.62,6.57-4.62s5.32,1.87,4.91,4.65h-3.1C923.15,12.48,922.36,11.78,920.82,11.78Z"/><path class="cls-1" d="M930,24.57h-3.23l2.54-15.28h3.23Z"/><path class="cls-1" d="M934.62,9.29h12.55L946.72,12H942L940,24.57h-3.19L938.85,12h-4.68Z"/><path class="cls-1" d="M949.23,9.29h10.3L959.08,12H952l-.6,3.64H958l-.45,2.66H951l-.59,3.65h7.09L957,24.57H946.7Z"/><path class="cls-1" d="M967.36,11.78c-1.58,0-2.57.71-2.73,1.71s.83,1.59,2.1,1.89l1.31.33c2.56.6,4.26,1.95,3.84,4.49-.47,2.8-3,4.58-6.69,4.58s-5.79-1.72-5.32-5H963c-.16,1.53.94,2.31,2.61,2.31s2.84-.77,3-1.88-.68-1.53-2.28-1.91l-1.6-.42c-2.46-.63-3.84-1.91-3.48-4.17.47-2.78,3.22-4.62,6.57-4.62s5.32,1.87,4.91,4.65h-3.1C969.69,12.48,968.9,11.78,967.36,11.78Z"/><path class="cls-1" d="M1004.07,16.88a4,4,0,0,1,3.77-3.24,2.76,2.76,0,0,1,2.78,3.33,4,4,0,0,1-3.79,3.24A2.74,2.74,0,0,1,1004.07,16.88Z"/><path class="cls-1" d="M1043.09,9.29h3.53l.78,10.61h.12l4.55-10.61h3l1,10.64h.13l4.29-10.64h3.53l-6.91,15.28H1054l-1.24-10h-.12l-4.57,10h-3.15Z"/><path class="cls-1" d="M1065.78,9.29h10.29l-.44,2.66h-7.07l-.6,3.64h6.54l-.45,2.66h-6.53l-.6,3.65H1074l-.44,2.67h-10.33Z"/><path class="cls-1" d="M1078.64,9.29h6.12c3.37,0,4.81,1.62,4.42,3.91a4.07,4.07,0,0,1-3.3,3.29l0,.15a2.92,2.92,0,0,1,2.75,3.7c-.41,2.43-2.53,4.23-6,4.23h-6.53Zm3.78,12.64c1.79,0,2.71-.76,2.9-1.91s-.6-2.15-2.17-2.15h-2.7l-.67,4.06Zm.8-6.25a2.46,2.46,0,0,0,2.61-1.94c.18-1.11-.51-1.84-1.94-1.84h-2.44l-.63,3.78Z"/><path class="cls-1" d="M1094,24.57l7.82-15.28H1106l2.73,15.28h-3.46l-.55-3.49h-5.52l-1.71,3.49Zm10.3-6-.91-5.78h-.12l-2.85,5.78Z"/><path class="cls-1" d="M1113.09,9.29h6c3.47,0,5.12,2.13,4.62,5.17s-2.89,5.15-6.41,5.15h-2.71l-.83,5h-3.23Zm4.14,7.73a2.93,2.93,0,0,0,3.18-2.56c.25-1.53-.47-2.53-2.33-2.53h-2.18l-.85,5.09Z"/><path class="cls-1" d="M1126.68,9.29h6c3.47,0,5.12,2.13,4.62,5.17s-2.89,5.15-6.42,5.15h-2.71l-.82,5h-3.24Zm4.14,7.73a2.93,2.93,0,0,0,3.18-2.56c.25-1.53-.47-2.53-2.33-2.53h-2.18l-.85,5.09Z"/><path class="cls-1" d="M1145.53,11.78c-1.58,0-2.57.71-2.73,1.71s.83,1.59,2.1,1.89l1.32.33c2.55.6,4.26,1.95,3.83,4.49-.47,2.8-3,4.58-6.68,4.58s-5.8-1.72-5.33-5h3.13c-.17,1.53.93,2.31,2.61,2.31s2.83-.77,3-1.88-.68-1.53-2.28-1.91l-1.6-.42c-2.46-.63-3.83-1.91-3.48-4.17.47-2.78,3.22-4.62,6.57-4.62s5.32,1.87,4.91,4.65h-3.1C1147.87,12.48,1147.07,11.78,1145.53,11.78Z"/><path class="cls-1" d="M1182.24,16.88a4,4,0,0,1,3.77-3.24,2.76,2.76,0,0,1,2.78,3.33,4,4,0,0,1-3.79,3.24A2.74,2.74,0,0,1,1182.24,16.88Z"/><path class="cls-1" d="M1222.89,24.57h-3.23l2.54-15.28h3.23Z"/><path class="cls-1" d="M1232.59,24.78c-4.16,0-6.85-3-6-8,.81-4.9,4.28-7.67,8.26-7.67,4.14,0,6.83,3,6,8.06C1240,22,1236.56,24.78,1232.59,24.78Zm2.12-12.85c-2.45,0-4.38,1.89-4.92,5.21-.55,3.15.68,4.78,2.92,4.78,2.44,0,4.36-1.85,4.91-5.17C1238.13,13.61,1237,11.93,1234.71,11.93Z"/><path class="cls-1" d="M1249.77,11.78c-1.58,0-2.57.71-2.73,1.71s.83,1.59,2.1,1.89l1.31.33c2.56.6,4.26,1.95,3.84,4.49-.47,2.8-3,4.58-6.69,4.58s-5.79-1.72-5.32-5h3.12c-.16,1.53.94,2.31,2.61,2.31s2.84-.77,3-1.88-.68-1.53-2.28-1.91l-1.6-.42c-2.46-.63-3.84-1.91-3.48-4.17.47-2.78,3.22-4.62,6.57-4.62s5.32,1.87,4.91,4.65h-3.1C1252.1,12.48,1251.31,11.78,1249.77,11.78Z"/><path class="cls-1" d="M1259.76,24.57l7.82-15.28h4.16l2.73,15.28H1271l-.55-3.49h-5.52l-1.71,3.49Zm10.3-6-.91-5.78H1269l-2.85,5.78Z"/><path class="cls-1" d="M1278.83,9.29h6c3.47,0,5.12,2.13,4.62,5.17s-2.89,5.15-6.42,5.15h-2.7l-.83,5h-3.23ZM1283,17a2.93,2.93,0,0,0,3.18-2.56c.25-1.53-.47-2.53-2.33-2.53h-2.18l-.85,5.09Z"/><path class="cls-1" d="M1292.42,9.29h6c3.47,0,5.12,2.13,4.62,5.17s-2.89,5.15-6.42,5.15h-2.71l-.82,5h-3.24Zm4.14,7.73a2.93,2.93,0,0,0,3.18-2.56c.25-1.53-.47-2.53-2.33-2.53h-2.18l-.85,5.09Z"/><path class="cls-1" d="M1311.27,11.78c-1.58,0-2.57.71-2.73,1.71s.83,1.59,2.1,1.89l1.32.33c2.55.6,4.26,1.95,3.83,4.49-.47,2.8-3,4.58-6.68,4.58s-5.8-1.72-5.33-5h3.12c-.16,1.53.94,2.31,2.62,2.31s2.83-.77,3-1.88-.68-1.53-2.28-1.91l-1.6-.42c-2.46-.63-3.84-1.91-3.48-4.17.47-2.78,3.22-4.62,6.57-4.62s5.32,1.87,4.91,4.65h-3.1C1313.6,12.48,1312.81,11.78,1311.27,11.78Z"/><path class="cls-1" d="M1348,16.88a4,4,0,0,1,3.77-3.24,2.76,2.76,0,0,1,2.78,3.33,4,4,0,0,1-3.79,3.24A2.74,2.74,0,0,1,1348,16.88Z"/><path class="cls-1" d="M1387,9.29h3.53l.78,10.61h.12L1396,9.29h3l1,10.64h.14l4.28-10.64H1408l-6.91,15.28h-3.15l-1.24-10h-.12l-4.57,10h-3.15Z"/><path class="cls-1" d="M1409.69,9.29H1420l-.45,2.66h-7.07l-.59,3.64h6.53l-.45,2.66h-6.53l-.6,3.65h7.1l-.45,2.67h-10.33Z"/><path class="cls-1" d="M1422.55,9.29h6.12c3.37,0,4.81,1.62,4.43,3.91a4.1,4.1,0,0,1-3.31,3.29l0,.15a2.92,2.92,0,0,1,2.75,3.7c-.41,2.43-2.53,4.23-6,4.23H1420Zm3.78,12.64c1.79,0,2.71-.76,2.9-1.91s-.6-2.15-2.17-2.15h-2.7l-.67,4.06Zm.8-6.25a2.48,2.48,0,0,0,2.62-1.94c.17-1.11-.52-1.84-1.94-1.84h-2.45l-.63,3.78Z"/><path class="cls-1" d="M1441.69,11.78c-1.58,0-2.57.71-2.73,1.71s.84,1.59,2.1,1.89l1.32.33c2.55.6,4.26,1.95,3.83,4.49-.47,2.8-2.94,4.58-6.68,4.58s-5.8-1.72-5.33-5h3.13c-.17,1.53.93,2.31,2.61,2.31s2.83-.77,3-1.88-.68-1.53-2.28-1.91l-1.6-.42c-2.46-.63-3.83-1.91-3.48-4.17.47-2.78,3.22-4.62,6.57-4.62s5.32,1.87,4.91,4.65H1444C1444,12.48,1443.24,11.78,1441.69,11.78Z"/><path class="cls-1" d="M1450.88,24.57h-3.23l2.53-15.28h3.23Z"/><path class="cls-1" d="M1455.49,9.29H1468l-.45,2.66h-4.67l-2.09,12.62h-3.2L1459.72,12H1455Z"/><path class="cls-1" d="M1470.11,9.29h10.3L1480,12h-7.07l-.6,3.64h6.54l-.45,2.66h-6.53l-.6,3.65h7.1l-.45,2.67h-10.33Z"/><path class="cls-1" d="M1488.23,11.78c-1.58,0-2.56.71-2.73,1.71s.84,1.59,2.11,1.89l1.31.33c2.55.6,4.26,1.95,3.83,4.49-.47,2.8-2.94,4.58-6.68,4.58s-5.8-1.72-5.33-5h3.13c-.17,1.53.93,2.31,2.61,2.31s2.83-.77,3-1.88-.68-1.53-2.28-1.91l-1.6-.42c-2.46-.63-3.83-1.91-3.47-4.17.47-2.78,3.21-4.62,6.56-4.62s5.32,1.87,4.91,4.65h-3.09C1490.57,12.48,1489.78,11.78,1488.23,11.78Z"/><path class="cls-1" d="M1524.94,16.88a4,4,0,0,1,3.77-3.24,2.76,2.76,0,0,1,2.78,3.33,4,4,0,0,1-3.79,3.24A2.75,2.75,0,0,1,1524.94,16.88Z"/><path class="cls-1" d="M1564,9.29h3.53l.77,10.61h.13l4.54-10.61h3l1,10.64h.14l4.28-10.64h3.53L1578,24.57h-3.15l-1.24-10h-.12l-4.57,10h-3.15Z"/><path class="cls-1" d="M1586.65,9.29H1597L1596.5,12h-7.07l-.59,3.64h6.53l-.44,2.66h-6.54l-.6,3.65h7.1l-.45,2.67h-10.33Z"/><path class="cls-1" d="M1599.52,9.29h6.11c3.38,0,4.82,1.62,4.43,3.91a4.1,4.1,0,0,1-3.31,3.29l0,.15a2.93,2.93,0,0,1,2.76,3.7c-.41,2.43-2.54,4.23-6,4.23H1597Zm3.77,12.64c1.79,0,2.72-.76,2.9-1.91s-.59-2.15-2.17-2.15h-2.7l-.66,4.06Zm.8-6.25a2.48,2.48,0,0,0,2.62-1.94c.18-1.11-.52-1.84-1.94-1.84h-2.45l-.63,3.78Z"/><path class="cls-1" d="M1614.9,24.57l7.81-15.28h4.16l2.74,15.28h-3.47l-.55-3.49h-5.51l-1.72,3.49Zm10.3-6-.91-5.78h-.12l-2.85,5.78Z"/><path class="cls-1" d="M1634,9.29h6c3.47,0,5.12,2.13,4.62,5.17s-2.89,5.15-6.42,5.15h-2.71l-.83,5h-3.23ZM1638.1,17a2.94,2.94,0,0,0,3.19-2.56c.24-1.53-.47-2.53-2.34-2.53h-2.18l-.85,5.09Z"/><path class="cls-1" d="M1647.56,9.29h6c3.47,0,5.12,2.13,4.62,5.17s-2.88,5.15-6.41,5.15h-2.71l-.83,5H1645Zm4.13,7.73a2.94,2.94,0,0,0,3.19-2.56c.24-1.53-.47-2.53-2.34-2.53h-2.18l-.85,5.09Z"/><path class="cls-1" d="M1666.4,11.78c-1.58,0-2.56.71-2.73,1.71s.84,1.59,2.11,1.89l1.31.33c2.55.6,4.26,1.95,3.84,4.49-.47,2.8-3,4.58-6.69,4.58s-5.8-1.72-5.33-5H1662c-.16,1.53.93,2.31,2.61,2.31s2.84-.77,3-1.88-.68-1.53-2.29-1.91l-1.59-.42c-2.47-.63-3.84-1.91-3.48-4.17.47-2.78,3.21-4.62,6.56-4.62s5.32,1.87,4.91,4.65h-3.09C1668.74,12.48,1668,11.78,1666.4,11.78Z"/><path class="cls-1" d="M1703.11,16.88a4,4,0,0,1,3.77-3.24,2.76,2.76,0,0,1,2.78,3.33,4,4,0,0,1-3.79,3.24A2.75,2.75,0,0,1,1703.11,16.88Z"/><path class="cls-1" d="M1743.76,24.57h-3.23l2.54-15.28h3.23Z"/><path class="cls-1" d="M1753.47,24.78c-4.17,0-6.86-3-6-8,.81-4.9,4.28-7.67,8.26-7.67,4.14,0,6.83,3,6,8.06C1760.88,22,1757.43,24.78,1753.47,24.78Zm2.12-12.85c-2.46,0-4.39,1.89-4.93,5.21-.54,3.15.69,4.78,2.93,4.78,2.44,0,4.35-1.85,4.9-5.17C1759,13.61,1757.84,11.93,1755.59,11.93Z"/><path class="cls-1" d="M1770.64,11.78c-1.58,0-2.56.71-2.73,1.71s.84,1.59,2.11,1.89l1.31.33c2.55.6,4.26,1.95,3.83,4.49-.47,2.8-2.94,4.58-6.68,4.58s-5.8-1.72-5.33-5h3.13c-.17,1.53.93,2.31,2.61,2.31s2.83-.77,3-1.88-.68-1.53-2.28-1.91l-1.6-.42c-2.46-.63-3.83-1.91-3.47-4.17.47-2.78,3.21-4.62,6.56-4.62s5.32,1.87,4.91,4.65h-3.09C1773,12.48,1772.19,11.78,1770.64,11.78Z"/><path class="cls-1" d="M1780.64,24.57l7.81-15.28h4.16l2.73,15.28h-3.46l-.55-3.49h-5.51l-1.72,3.49Zm10.29-6-.91-5.78h-.11l-2.86,5.78Z"/><path class="cls-1" d="M1799.71,9.29h6c3.47,0,5.12,2.13,4.62,5.17s-2.89,5.15-6.42,5.15h-2.71l-.83,5h-3.23Zm4.13,7.73a2.94,2.94,0,0,0,3.19-2.56c.24-1.53-.47-2.53-2.34-2.53h-2.18l-.85,5.09Z"/><path class="cls-1" d="M1813.3,9.29h6c3.47,0,5.12,2.13,4.62,5.17s-2.88,5.15-6.41,5.15h-2.71l-.83,5h-3.23Zm4.13,7.73a2.94,2.94,0,0,0,3.19-2.56c.24-1.53-.47-2.53-2.34-2.53h-2.18l-.85,5.09Z"/><path class="cls-1" d="M1832.14,11.78c-1.58,0-2.56.71-2.73,1.71s.84,1.59,2.11,1.89l1.31.33c2.55.6,4.26,1.95,3.84,4.49-.48,2.8-3,4.58-6.69,4.58s-5.8-1.72-5.33-5h3.13c-.17,1.53.93,2.31,2.61,2.31s2.83-.77,3-1.88-.68-1.53-2.28-1.91l-1.6-.42c-2.46-.63-3.83-1.91-3.47-4.17.47-2.78,3.21-4.62,6.56-4.62s5.32,1.87,4.91,4.65h-3.09C1834.48,12.48,1833.69,11.78,1832.14,11.78Z"/><path class="cls-1" d="M1868.85,16.88a4,4,0,0,1,3.77-3.24A2.76,2.76,0,0,1,1875.4,17a4,4,0,0,1-3.79,3.24A2.75,2.75,0,0,1,1868.85,16.88Z"/><path class="cls-1" d="M1907.88,9.29h3.53l.77,10.61h.13l4.54-10.61h3l1,10.64h.14l4.28-10.64h3.53l-6.91,15.28h-3.15l-1.24-10h-.12l-4.57,10h-3.15Z"/><path class="cls-1" d="M1930.56,9.29h10.3l-.45,2.66h-7.06l-.6,3.64h6.54l-.45,2.66h-6.54l-.6,3.65h7.1l-.45,2.67H1928Z"/><path class="cls-1" d="M1943.43,9.29h6.11c3.38,0,4.82,1.62,4.43,3.91a4.1,4.1,0,0,1-3.31,3.29l0,.15a2.92,2.92,0,0,1,2.76,3.7c-.41,2.43-2.54,4.23-6,4.23h-6.53Zm3.77,12.64c1.79,0,2.72-.76,2.9-1.91s-.59-2.15-2.17-2.15h-2.7l-.66,4.06Zm.8-6.25a2.48,2.48,0,0,0,2.62-1.94c.18-1.11-.52-1.84-1.94-1.84h-2.45l-.62,3.78Z"/><path class="cls-1" d="M1962.56,11.78c-1.58,0-2.56.71-2.73,1.71s.84,1.59,2.11,1.89l1.31.33c2.55.6,4.26,1.95,3.84,4.49-.47,2.8-2.95,4.58-6.69,4.58s-5.8-1.72-5.33-5h3.13c-.16,1.53.93,2.31,2.61,2.31s2.84-.77,3-1.88-.68-1.53-2.29-1.91l-1.59-.42c-2.47-.63-3.84-1.91-3.48-4.17.47-2.78,3.21-4.62,6.57-4.62s5.32,1.87,4.9,4.65h-3.09C1964.9,12.48,1964.11,11.78,1962.56,11.78Z"/><path class="cls-1" d="M1971.75,24.57h-3.23l2.54-15.28h3.23Z"/><path class="cls-1" d="M1976.37,9.29h12.55l-.45,2.66h-4.68l-2.09,12.62h-3.19L1980.6,12h-4.68Z"/><path class="cls-1" d="M1991,9.29h10.3l-.45,2.66h-7.06l-.6,3.64h6.54l-.45,2.66h-6.54l-.6,3.65h7.1l-.45,2.67h-10.32Z"/><path class="cls-1" d="M2009.11,11.78c-1.59,0-2.57.71-2.73,1.71s.83,1.59,2.1,1.89l1.31.33c2.55.6,4.26,1.95,3.84,4.49-.47,2.8-3,4.58-6.69,4.58s-5.8-1.72-5.33-5h3.13c-.16,1.53.93,2.31,2.61,2.31s2.84-.77,3-1.88-.68-1.53-2.29-1.91l-1.59-.42c-2.47-.63-3.84-1.91-3.48-4.17.47-2.78,3.22-4.62,6.57-4.62s5.32,1.87,4.91,4.65h-3.1C2011.44,12.48,2010.65,11.78,2009.11,11.78Z"/><path class="cls-1" d="M2066.1,16.88a4,4,0,0,1,3.77-3.24,2.76,2.76,0,0,1,2.78,3.33,4,4,0,0,1-3.79,3.24A2.74,2.74,0,0,1,2066.1,16.88Z"/></svg>