<?xml version="1.0" encoding="UTF-8"?>
<svg width="17px" height="17px" viewBox="0 0 17 17" version="1.1" xmlns="http://www.w3.org/2000/svg" xmlns:xlink="http://www.w3.org/1999/xlink">
    <title>Shape</title>
    <g id="Symbols" stroke="none" stroke-width="1" fill="none" fill-rule="evenodd">
        <g id="arrow/black-right" transform="translate(-19.000000, -18.000000)" fill="#FFFFFF">
            <path d="M28.8700063,22.0575741 C29.6266,21.3009222 29.6266,20.0741747 28.8700063,19.3175228 C28.1134125,18.5608903 26.8866262,18.5608903 26.1299744,19.3175228 L20.3174744,25.1300228 C19.5608419,25.8866747 19.5608419,27.1134609 20.3174744,27.8700547 L26.1299744,33.6825547 C26.8866262,34.4391484 28.1134125,34.4391484 28.8700063,33.6825547 C29.6266,32.9259609 29.6266,31.6991359 28.8700063,30.9425422 L26.3650319,28.4375484 L33.3125,28.4375484 C34.3825813,28.4375484 35.25,27.5701297 35.25,26.5000484 C35.25,25.4300059 34.3825813,24.5625484 33.3125,24.5625484 L26.3650319,24.5625484 L28.8700063,22.0575741 Z" id="Shape" transform="translate(27.500000, 26.500024) rotate(-180.000000) translate(-27.500000, -26.500024) "></path>
        </g>
    </g>
</svg>