<?xml version="1.0" encoding="UTF-8"?>
<svg width="22px" height="22px" viewBox="0 0 22 22" version="1.1" xmlns="http://www.w3.org/2000/svg" xmlns:xlink="http://www.w3.org/1999/xlink">
    <title>icon-email</title>
    <g id="Symbols" stroke="none" stroke-width="1" fill="none" fill-rule="evenodd">
        <g id="icon-email">
            <rect id="Rectangle" x="0" y="0" width="22" height="22"></rect>
            <path d="M10.9327731,3.16984576 C11.2743697,2.94338475 11.7256303,2.94338475 12.0672269,3.16984576 L12.0672269,3.16984576 L18.1289916,7.17514545 C18.6747899,7.53625896 19,8.13607463 19,8.77628604 L19,8.77628604 L19,16.1882939 C19,16.728128 18.5487395,17.1675848 17.9928571,17.1675848 L17.9928571,17.1675848 L5.00840336,17.1675848 C4.4512605,17.1675848 4,16.728128 4,16.1882939 L4,16.1882939 L4,8.77628604 C4,8.13607463 4.32773109,7.53625896 4.87226891,7.17514545 L4.87226891,7.17514545 Z M16.8557563,8.40574685 L6.1439916,8.40574685 C5.72298319,8.40574685 5.5439916,8.92721925 5.88054622,9.17326608 L10.4347479,12.4906139 C11.0662605,12.9508806 11.9347479,12.9508806 12.5662605,12.4906139 L17.1192017,9.17326608 C17.4570168,8.92721925 17.2780252,8.40574685 16.8557563,8.40574685 Z" id="Combined-Shape-Copy" fill="#000000"></path>
        </g>
    </g>
</svg>