<?xml version="1.0" encoding="UTF-8"?>
<svg width="70px" height="70px" viewBox="0 0 70 70" version="1.1" xmlns="http://www.w3.org/2000/svg" xmlns:xlink="http://www.w3.org/1999/xlink">
    <title>icon-after-effects</title>
    <g id="New-Design" stroke="none" stroke-width="1" fill="none" fill-rule="evenodd">
        <g id="Portfolio" transform="translate(-1092.000000, -1389.000000)" fill="#FFFFFF">
            <g id="icon-after-effects" transform="translate(1092.000000, 1389.000000)">
                <rect id="Rectangle-Copy-6" opacity="0" x="0" y="0" width="70" height="70" rx="35"></rect>
                <g id="Ae" transform="translate(13.286043, 21.545479)" fill-rule="nonzero">
                    <path d="M5.76703995,25.4545212 L7.6562427,19.6501943 L16.8412481,19.6501943 L18.7304509,25.4545212 L24.4974908,25.4545212 L15.7226413,0 L8.78727855,0 L0,25.4545212 L5.76703995,25.4545212 Z M9.02342889,15.449204 L12.1555282,5.81675582 L12.3543916,5.81675582 L15.4864909,15.449204 L9.02342889,15.449204 Z" id="A"></path>
                    <path d="M36.1558854,25.8273901 C40.8788922,25.8273901 44.0607074,23.5280315 44.8064453,19.9857764 L39.9094329,19.6626233 C39.3749874,21.1168122 38.0078012,21.8749791 36.2428881,21.8749791 C33.5955185,21.8749791 31.9176082,20.122495 31.9176082,17.2762619 L31.9176082,17.263833 L44.918306,17.263833 L44.918306,15.809644 C44.918306,9.32172406 40.9907529,6.11505099 35.944593,6.11505099 C30.3267006,6.11505099 26.6850137,10.1047489 26.6850137,15.9960785 C26.6850137,22.0489847 30.2769847,25.8273901 36.1558854,25.8273901 Z M31.9176082,13.9825861 C32.0294688,11.8075171 33.6825212,10.067462 36.0315957,10.067462 C38.3309543,10.067462 39.9218619,11.7080854 39.9342909,13.9825861 L31.9176082,13.9825861 Z" id="e"></path>
                </g>
            </g>
        </g>
    </g>
</svg>