<?xml version="1.0" encoding="UTF-8"?>
<svg width="39px" height="39px" viewBox="0 0 39 39" version="1.1" xmlns="http://www.w3.org/2000/svg" xmlns:xlink="http://www.w3.org/1999/xlink">
    <title>Group 2</title>
    <g id="New-Design" stroke="none" stroke-width="1" fill="none" fill-rule="evenodd">
        <g id="Project-1" transform="translate(-572.000000, -902.000000)">
            <g id="Group-2" transform="translate(572.500000, 902.500000)">
                <rect id="Rectangle" fill="#312120" opacity="0.0859520322" x="0" y="0" width="38" height="38" rx="19"></rect>
                <g id="Group" transform="translate(6.500000, 7.500000)" fill="#000000" fill-rule="nonzero">
                    <g>
                        <path d="M12,8.57 C11.21,8.57 10.57,9.21 10.57,10 C10.57,10.79 11.21,11.43 12,11.43 C12.79,11.43 13.43,10.79 13.43,10 C13.43,9.21 12.79,8.57 12,8.57 Z" id="Path" transform="translate(12.000000, 10.000000) scale(-1, 1) translate(-12.000000, -10.000000) "></path>
                        <path d="M14.0017775,3 C10.2517775,3 7.20177753,5.94 7.02177753,9.64 L5.10177753,12.2 C4.85177753,12.53 5.09177753,13 5.50177753,13 L7.00177753,13 L7.00177753,16 C7.00177753,17.1 7.90177753,18 9.00177753,18 L10.0017775,18 L10.0017775,21 L17.0017775,21 L17.0017775,16.32 C19.3617775,15.2 21.0017775,12.79 21.0017775,10 C21.0017775,6.13 17.8717775,3 14.0017775,3 Z M17.0017775,10 C17.0017775,10.13 16.9917775,10.26 16.9817775,10.39 L17.8117775,11.05 C17.8917775,11.11 17.9117775,11.21 17.8617775,11.3 L17.0617775,12.69 C17.0117775,12.78 16.9017775,12.81 16.8217775,12.78 L15.8317775,12.38 C15.6217775,12.54 15.4017775,12.67 15.1617775,12.77 L15.0017775,13.83 C14.9917775,13.93 14.9017775,14 14.8017775,14 L13.2017775,14 C13.1017775,14 13.0217775,13.93 13.0017775,13.83 L12.8517775,12.77 C12.6017775,12.67 12.3817775,12.54 12.1717775,12.38 L11.1817775,12.78 C11.0917775,12.81 10.9817775,12.78 10.9317775,12.69 L10.1317775,11.3 C10.0817775,11.22 10.1017775,11.11 10.1817775,11.05 L11.0217775,10.39 C11.0117775,10.26 11.0017775,10.13 11.0017775,10 C11.0017775,9.87 11.0217775,9.73 11.0417775,9.61 L10.1917775,8.95 C10.1117775,8.89 10.0917775,8.79 10.1417775,8.69 L10.9417775,7.31 C10.9917775,7.22 11.0917775,7.19 11.1817775,7.22 L12.1817775,7.62 C12.3817775,7.47 12.6117775,7.33 12.8517775,7.23 L13.0017775,6.17 C13.0217775,6.07 13.1017775,6 13.2017775,6 L14.8017775,6 C14.9017775,6 14.9817775,6.07 15.0017775,6.17 L15.1517775,7.23 C15.3917775,7.33 15.6117775,7.46 15.8217775,7.62 L16.8217775,7.22 C16.9117775,7.19 17.0217775,7.22 17.0617775,7.31 L17.8617775,8.69 C17.9117775,8.78 17.8917775,8.89 17.8117775,8.95 L16.9617775,9.61 C16.9917775,9.73 17.0017775,9.86 17.0017775,10 Z" id="Shape" transform="translate(13.000889, 12.000000) scale(-1, 1) translate(-13.000889, -12.000000) "></path>
                    </g>
                </g>
            </g>
        </g>
    </g>
</svg>