<?xml version="1.0" encoding="UTF-8"?>
<svg width="23px" height="23px" viewBox="0 0 23 23" version="1.1" xmlns="http://www.w3.org/2000/svg" xmlns:xlink="http://www.w3.org/1999/xlink">
    <title>nav-icon/clients white 100</title>
    <g id="nav-icon/clients-white-100" stroke="none" stroke-width="1" fill="none" fill-rule="evenodd">
        <path d="M12.3869,18.2577 L15.3199,15.3247 C15.9269,14.7167 15.9269,13.7317 15.3199,13.1237 L14.0889,11.8937 C13.8369,11.6417 13.4949,11.4997 13.1389,11.4997 L9.1599,11.4997 L9.1599,11.1977 C9.1599,10.9357 9.2649,10.6837 9.4499,10.4977 L10.3169,9.6307 C10.5529,9.3947 10.9359,9.3947 11.1719,9.6307 L11.9469,10.4047 C12.0099,10.4687 12.1129,10.4687 12.1769,10.4047 L12.6939,9.8877 C12.8859,9.6957 12.9929,9.4357 12.9929,9.1637 L12.9929,6.9817 C12.9929,6.8037 13.0639,6.6337 13.1899,6.5077 L14.6159,5.0817 C16.8349,6.2707 18.3499,8.6107 18.3499,11.2997 C18.3499,14.8177 15.7589,17.7327 12.3869,18.2577 M4.2499,11.2997 C4.2499,9.9207 4.6549,8.6367 5.3409,7.5497 L6.4319,8.6397 C6.5569,8.7647 6.6269,8.9347 6.6269,9.1117 L6.6269,9.9517 C6.6269,10.3157 6.7719,10.6647 7.0299,10.9217 L8.1559,12.0487 C8.3169,12.2097 8.5339,12.2997 8.7619,12.2997 L9.0559,12.2997 L9.0559,13.0637 C9.0559,13.5397 9.2449,13.9977 9.5819,14.3347 L10.9479,15.6997 C11.1989,15.9497 11.3389,16.2897 11.3389,16.6437 L11.3389,18.3487 C11.3249,18.3487 11.3129,18.3507 11.2999,18.3507 C7.4119,18.3507 4.2499,15.1877 4.2499,11.2997 M11.2999,2.9997 C6.7159,2.9997 2.9999,6.7157 2.9999,11.2997 C2.9999,15.8837 6.7159,19.6007 11.2999,19.6007 C15.8839,19.6007 19.5999,15.8837 19.5999,11.2997 C19.5999,6.7157 15.8839,2.9997 11.2999,2.9997" id="Fill-1" fill="#FFFFFF"></path>
    </g>
</svg>