<?xml version="1.0" encoding="UTF-8"?>
<svg width="23px" height="23px" viewBox="0 0 23 23" version="1.1" xmlns="http://www.w3.org/2000/svg" xmlns:xlink="http://www.w3.org/1999/xlink">
    <title>nav-icon/about color</title>
    <g id="nav-icon/about-color" stroke="none" stroke-width="1" fill="none" fill-rule="evenodd">
        <path d="M13.6188,3 C14.5298,3 15.3538,3.537 15.7178,4.361 L15.7178,4.361 L17.2898,7.974 C17.4908,8.425 17.7208,8.865 17.9798,9.277 C18.8418,10.677 19.1108,12.325 18.7368,13.926 L18.7368,13.926 L17.8358,17.74 C17.7398,18.123 17.3948,18.391 17.0218,18.391 C16.9538,18.391 16.8868,18.382 16.8198,18.363 C16.3698,18.258 16.0918,17.807 16.1968,17.356 L16.1968,17.356 L17.0978,13.533 C17.3758,12.373 17.1848,11.175 16.5518,10.159 C16.3508,9.833 16.1588,9.488 15.9958,9.143 L15.9958,9.143 L15.9578,9.22 C15.5648,9.833 15.0478,10.303 14.4438,10.619 C15.0858,11.415 15.3438,12.488 15.0858,13.533 L15.0858,13.533 L13.8108,18.622 C13.5048,19.848 12.3928,20.711 11.1278,20.711 L11.1278,20.711 L10.0538,20.711 C8.7888,20.711 7.6868,19.848 7.3798,18.622 L7.3798,18.622 L6.1058,13.533 C6.0388,13.255 5.9998,12.986 5.9998,12.709 C5.9998,11.52 6.6328,10.399 7.6958,9.795 C8.0988,9.574 8.3668,9.181 8.4538,8.741 L8.4538,8.741 L8.6928,7.351 L8.6928,4.917 L8.0318,4.744 L7.8118,4.686 C7.3608,4.562 7.0928,4.093 7.2168,3.642 C7.3128,3.259 7.6578,3.01 8.0318,3.01 L8.0318,3.01 L12.2198,3.01 C12.2488,3 12.2778,3 12.3058,3 L12.3058,3 Z M13.8008,4.467 C12.6218,3.98 11.2318,4.383 10.4658,5.396 C10.1118,5.865 9.9098,6.44 9.9098,7.063 C9.9098,8.283 10.7708,9.423 11.9328,9.766 C12.4358,9.915 12.9588,9.902 13.4658,9.785 C14.0308,9.632 14.5198,9.306 14.8748,8.875 C15.2958,8.378 15.5358,7.716 15.5358,7.063 C15.5358,5.894 14.8178,4.889 13.8008,4.467 Z M12.7277,5.4054 C12.9287,5.4054 13.1207,5.4444 13.3027,5.5204 C13.9357,5.7504 14.3857,6.3544 14.3857,7.0634 C14.3857,7.9834 13.6477,8.7114 12.7377,8.7214 L12.7377,8.7214 L12.7277,8.7214 C11.8847,8.7214 11.1947,8.1084 11.0887,7.2934 C11.0797,7.2164 11.0697,7.1404 11.0697,7.0634 C11.0697,6.5174 11.3287,6.0384 11.7407,5.7414 C12.0187,5.5304 12.3537,5.4054 12.7277,5.4054 Z" id="Combined-Shape" fill="#338545"></path>
    </g>
</svg>