<?xml version="1.0" encoding="UTF-8"?>
<svg width="23px" height="23px" viewBox="0 0 23 23" version="1.1" xmlns="http://www.w3.org/2000/svg" xmlns:xlink="http://www.w3.org/1999/xlink">
    <title>nav-icon/home@2x</title>
    <g id="nav-icon/home" stroke="none" stroke-width="1" fill="none" fill-rule="evenodd">
        <path d="M6,5 C4.89543,5 4,5.89543 4,7 L4,9 C4,10.10457 4.89543,11 6,11 L8,11 C9.10457,11 10,10.10457 10,9 L10,7 C10,5.89543 9.10457,5 8,5 L6,5 Z" id="Path" fill="#A4A7A9" fill-rule="nonzero"></path>
        <path d="M6,13 C4.89543,13 4,13.8954 4,15 L4,17 C4,18.1046 4.89543,19 6,19 L8,19 C9.10457,19 10,18.1046 10,17 L10,15 C10,13.8954 9.10457,13 8,13 L6,13 Z" id="Path" fill="#A4A7A9" fill-rule="nonzero"></path>
        <path d="M12,7 C12,5.89543 12.8954,5 14,5 L16,5 C17.1046,5 18,5.89543 18,7 L18,9 C18,10.10457 17.1046,11 16,11 L14,11 C12.8954,11 12,10.10457 12,9 L12,7 Z" id="Path" fill="#A4A7A9" fill-rule="nonzero"></path>
        <path d="M12,15 C12,13.8954 12.8954,13 14,13 L16,13 C17.1046,13 18,13.8954 18,15 L18,17 C18,18.1046 17.1046,19 16,19 L14,19 C12.8954,19 12,18.1046 12,17 L12,15 Z" id="Path" fill="#A4A7A9" fill-rule="nonzero"></path>
    </g>
</svg>