<?xml version="1.0" encoding="UTF-8"?>
<svg width="70px" height="70px" viewBox="0 0 70 70" version="1.1" xmlns="http://www.w3.org/2000/svg" xmlns:xlink="http://www.w3.org/1999/xlink">
    <title>icon-blender</title>
    <g id="New-Design" stroke="none" stroke-width="1" fill="none" fill-rule="evenodd">
        <g id="Portfolio" transform="translate(-742.000000, -1389.000000)" fill="#FFFFFF">
            <g id="icon-blender" transform="translate(742.000000, 1389.000000)">
                <rect id="Rectangle-Copy-4" opacity="0" x="0" y="0" width="70" height="70" rx="35"></rect>
                <g id="Group" transform="translate(13.498681, 17.165252)" fill-rule="nonzero">
                    <g id="Group" transform="translate(0.000000, 0.000000)">
                        <path d="M19.8536108,0.481689492 C20.7726731,-0.158888052 22.1778747,-0.161037641 23.0135167,0.478106843 C23.0257421,0.48598867 23.0350909,0.495303556 23.0465972,0.503901912 L23.0465972,0.503901912 L35.7833045,10.2479892 C37.0425205,11.2253357 38.1039727,12.3839642 38.9273892,13.7073945 C39.8277538,15.1476192 40.4124155,16.7275672 40.6526086,18.4114119 C40.7755817,19.2755467 40.8036282,20.1403981 40.7367481,21.0038164 C40.6684297,21.8801322 40.4979933,22.7535819 40.2283154,23.614134 C39.6918362,25.3173251 38.7857184,26.89584 37.5236259,28.2902068 C36.2298911,29.7182504 34.6355554,30.8697137 32.7923968,31.6915732 C30.8550308,32.5528419 28.755858,32.9970903 26.579018,32.9999783 C24.3985823,33.0035391 22.2994096,32.567889 20.3620436,31.7130691 C18.518885,30.8990914 16.923111,29.7526439 15.6272188,28.3253167 C14.3644071,26.9366822 13.4568511,25.3610334 12.9218101,23.6578423 C12.6672342,22.8531795 12.4975169,21.8228098 12.4881681,21.2925778 C12.4788193,20.7644954 12.5953201,19.884597 12.5953201,19.884597 L12.5953201,19.884597 L4.60278635,26.402151 C3.20693355,27.5256696 1.32925624,27.52352 0.446151013,26.3957023 C-0.424009672,25.2865143 0.0225769275,23.5338827 1.40404691,22.4798675 C1.42130629,22.4662535 1.44144224,22.4519229 1.46013991,22.4383088 L1.46013991,22.4383088 L16.1047285,11.2382332 L7.89789069,11.2539969 C6.50851016,11.2439654 5.59951586,10.3096107 5.86128321,9.18322605 C6.11585914,8.07762074 7.4024025,7.20273799 8.74072402,7.20130493 L8.74072402,7.20130493 L8.76229825,7.20130493 L24.9537592,7.18410822 L19.6414642,2.87991437 C18.8180477,2.20064422 18.9244806,1.12943233 19.8536108,0.481689492 Z M26.5754223,11.2303426 C24.4438882,11.2332175 22.4058425,11.9368497 20.8050345,13.2366345 C19.9880902,13.9015741 19.3264804,14.6876071 18.8460942,15.5574742 C18.3570783,16.4423883 18.0507242,17.4204514 17.9637081,18.4458054 C17.8716581,19.4948048 18.0104523,20.5344894 18.3678654,21.5139855 C18.7324699,22.5106783 19.3236039,23.4464661 20.1283227,24.2597273 C21.7751558,25.9285249 24.080722,26.8678953 26.579018,26.8636109 C29.0737184,26.8585805 31.3792846,25.9106117 33.0261177,24.2389479 C33.8308365,23.4221041 34.419813,22.4863163 34.7851367,21.4867574 C35.1425498,20.5065447 35.281344,19.4682932 35.1907323,18.4207268 C35.1001205,17.3925067 34.7959238,16.4180263 34.3047505,15.5338287 C33.8243642,14.6653947 33.1634736,13.8822278 32.3479676,13.2201543 C30.7457214,11.9246686 28.7091139,11.2274853 26.5754223,11.2303426 Z M26.7595225,13.8206062 C28.204996,13.8206062 29.5310921,14.3286258 30.5170345,15.1598002 C31.5209554,16.0060218 32.18688,17.1997602 32.2638281,18.5532848 C32.3400571,19.945502 31.7784079,21.2388381 30.7931847,22.1975548 C29.7885446,23.1727517 28.3596113,23.7846681 26.7595225,23.7846681 C25.1594336,23.7846681 23.7276237,23.1727517 22.7237028,22.1975548 C21.7377604,21.2388381 21.1775495,19.945502 21.2544976,18.5547179 C21.3307266,17.1997602 21.9966512,16.0060218 23.0012913,15.1598002 C23.9865145,14.3286258 25.3126106,13.8206062 26.7595225,13.8206062 Z" id="Combined-Shape"></path>
                    </g>
                </g>
            </g>
        </g>
    </g>
</svg>