<?xml version="1.0" encoding="UTF-8"?>
<svg width="22px" height="22px" viewBox="0 0 22 22" version="1.1" xmlns="http://www.w3.org/2000/svg" xmlns:xlink="http://www.w3.org/1999/xlink">
    <title>icon-twitter</title>
    <defs>
        <polygon id="path-1" points="0 0 15.04 0 15.04 12.2207658 0 12.2207658"></polygon>
    </defs>
    <g id="Symbols" stroke="none" stroke-width="1" fill="none" fill-rule="evenodd">
        <g id="icon-twitter">
            <rect id="Rectangle-Copy-3" x="0" y="0" width="22" height="22"></rect>
            <g id="twitter-copy" transform="translate(4.000000, 5.000000)">
                <mask id="mask-2" fill="white">
                    <use xlink:href="#path-1"></use>
                </mask>
                <g id="Clip-2"></g>
                <path d="M15.0400833,1.44441477 C14.6216781,2.07202257 14.1132575,2.60544752 13.5073201,3.04635659 L13.5073201,3.44642531 C13.5073201,4.27156704 13.3906334,5.09504181 13.1530926,5.91851659 C12.9130513,6.74199137 12.5488221,7.53546099 12.0562375,8.29475808 C11.5611525,9.05488864 10.9718846,9.72583722 10.2892673,10.3059369 C9.60414965,10.8860365 8.7831753,11.3502829 7.82634429,11.6978426 C6.86617936,12.0470693 5.83850285,12.2212658 4.73414649,12.2212658 C2.87799434,12.2212658 1.29938986,11.8020272 0,10.9668837 C0.245042089,11.0027232 0.486750273,11.0185593 0.731792362,11.0185593 C2.06702171,11.0185593 3.34140727,10.5309755 4.56078338,9.55664149 C3.89983652,9.54580629 3.3047343,9.33910412 2.77547673,8.93820193 C2.24955306,8.53896669 1.88532383,8.0313795 1.68862338,7.41544037 C1.88532383,7.45044639 2.0778569,7.46794939 2.26455564,7.46794939 C2.54126983,7.46794939 2.81465012,7.43377686 3.0813626,7.36376483 C2.37457453,7.22457426 1.78447318,6.87034675 1.31439243,6.3010823 C0.844311689,5.73348481 0.610104794,5.07587185 0.610104794,4.33491125 L0.610104794,4.29990524 C1.05018038,4.54411385 1.51442679,4.67080228 2.00201054,4.68330442 C1.08435292,4.06736529 0.626774324,3.21471884 0.626774324,2.12286463 C0.626774324,1.61277702 0.765964899,1.11435807 1.04517952,0.626774324 C1.82114614,1.56610233 2.7588072,2.31289727 3.85566226,2.86382524 C4.95168386,3.4147532 6.134387,3.72480646 7.39793737,3.79481848 C7.35126268,3.59811803 7.32959229,3.35974375 7.32959229,3.0813626 C7.32959229,2.23455048 7.6271434,1.50859246 8.22474605,0.905155473 C8.8223487,0.301718491 9.55247411,0 10.4109549,0 C11.292773,0 12.0462358,0.325055833 12.6730101,0.975167499 C13.3581278,0.835143448 14.007406,0.585933976 14.6216781,0.226705607 C14.3924721,0.97016664 13.9390609,1.53776413 13.2656119,1.93199851 C13.8582137,1.86281997 14.448315,1.70029205 15.0400833,1.44441477" id="Fill-1" fill="#000000" mask="url(#mask-2)"></path>
            </g>
        </g>
    </g>
</svg>