<?xml version="1.0" encoding="UTF-8"?>
<svg width="23px" height="23px" viewBox="0 0 23 23" version="1.1" xmlns="http://www.w3.org/2000/svg" xmlns:xlink="http://www.w3.org/1999/xlink">
    <title>nav-icon/sup@2x</title>
    <g id="nav-icon/sup" stroke="none" stroke-width="1" fill="none" fill-rule="evenodd">
        <path d="M10,6.0896 C9.659,6.3896 9.199,6.4296 8.959,6.1696 C8.729,5.9096 8.819,5.4496 9.159,5.1506 C9.5,4.8396 9.959,4.8096 10.189,5.0696 C10.43,5.3296 10.34,5.7796 10,6.0896 M8.59,8.8596 C8.239,9.5796 7.52,9.9496 6.959,9.6796 C6.409,9.4196 6.25,8.6196 6.59,7.9006 C6.939,7.1796 7.659,6.8096 8.209,7.0796 C8.76,7.3396 8.93,8.1396 8.59,8.8596 M16.399,4.9496 C13.8,2.3496 9.579,2.3496 6.979,4.9496 L6.979,4.9596 C5.68,6.2596 5,7.9896 5,9.7396 C5,10.8396 5.26,11.9396 5.81,12.9496 C6.609,14.4396 7.689,15.7496 8.989,16.8296 L10.109,17.7696 C11.029,18.5296 12.35,18.5296 13.27,17.7696 L14.34,16.8896 C15.649,15.8096 16.739,14.4806 17.539,12.9896 L17.56,12.9496 C18.109,11.9396 18.379,10.8296 18.379,9.7306 C18.379,7.9806 17.699,6.2496 16.399,4.9496" id="Fill-1" fill="#A4A7A9"></path>
        <path d="M11.6855,19.1678 C10.7275,19.1678 9.9535,19.9208 9.9045,20.8658 L13.4665,20.8658 C13.4175,19.9208 12.6425,19.1678 11.6855,19.1678" id="Fill-4" fill="#A4A7A9"></path>
    </g>
</svg>