<?xml version="1.0" encoding="UTF-8"?>
<svg width="23px" height="23px" viewBox="0 0 23 23" version="1.1" xmlns="http://www.w3.org/2000/svg" xmlns:xlink="http://www.w3.org/1999/xlink">
    <title>nav-icon/contact@2x</title>
    <g id="nav-icon/contact" stroke="none" stroke-width="1" fill="none" fill-rule="evenodd">
        <path d="M12.8944024,3.55279 C12.7250024,3.214 12.3788024,3 12,3 C11.6212424,3 11.2749824,3.214 11.1055824,3.55279 L4.10558238,17.5528 C3.92823238,17.9075 3.97724238,18.3335 4.23050238,18.6386 C4.48376238,18.9438 4.89342238,19.0705 5.27473238,18.9615 L10.2747224,17.533 C10.7040224,17.4103 11,17.0179 11,16.5714 L11,12 C11,11.4477 11.4477224,11 12,11 C12.5523024,11 13,11.4477 13,12 L13,16.5714 C13,17.0179 13.2960024,17.4103 13.7253024,17.533 L18.7253024,18.9615 C19.1066024,19.0705 19.5163024,18.9438 19.7695024,18.6386 C20.0228024,18.3335 20.0718024,17.9075 19.8944024,17.5528 L12.8944024,3.55279 Z" id="Path" fill="#A4A7A9" fill-rule="nonzero"></path>
    </g>
</svg>