<?xml version="1.0" encoding="UTF-8"?>
<svg width="23px" height="23px" viewBox="0 0 23 23" version="1.1" xmlns="http://www.w3.org/2000/svg" xmlns:xlink="http://www.w3.org/1999/xlink">
    <title>nav-icon/portfolio white 100</title>
    <g id="nav-icon/portfolio-white-100" stroke="none" stroke-width="1" fill="none" fill-rule="evenodd">
        <path d="M7,3 C7.55228,3 8,3.44772 8,4 L8,5 L9,5 C9.55228,5 10,5.44772 10,6 C10,6.55228 9.55228,7 9,7 L8,7 L8,8 C8,8.55228 7.55228,9 7,9 C6.44772,9 6,8.55228 6,8 L6,7 L5,7 C4.44772,7 4,6.55228 4,6 C4,5.44772 4.44772,5 5,5 L6,5 L6,4 C6,3.44772 6.44772,3 7,3 Z M7,13 C7.55228,13 8,13.4477 8,14 L8,15 L9,15 C9.55228,15 10,15.4477 10,16 C10,16.5523 9.55228,17 9,17 L8,17 L8,18 C8,18.5523 7.55228,19 7,19 C6.44772,19 6,18.5523 6,18 L6,17 L5,17 C4.44772,17 4,16.5523 4,16 C4,15.4477 4.44772,15 5,15 L6,15 L6,14 C6,13.4477 6.44772,13 7,13 Z" id="Shape" fill="#FFFFFF"></path>
        <path d="M13.9999,3 C14.4537,3 14.8505,3.30548 14.9667,3.74411 L16.1459,8.19893 L19.4997,10.13381 C19.8092,10.31241 19.9999,10.64262 19.9999,11 C19.9999,11.3574 19.8092,11.6876 19.4997,11.8662 L16.1459,13.8011 L14.9667,18.2559 C14.8505,18.6945 14.4537,19 13.9999,19 C13.5462,19 13.1493,18.6945 13.0332,18.2559 L11.85402,13.8011 L8.50027,11.8662 C8.19072,11.6876 8,11.3574 8,11 C8,10.64262 8.19072,10.31241 8.50027,10.13382 L11.85402,8.19893 L13.0332,3.74411 C13.1493,3.30548 13.5462,3 13.9999,3 Z" id="Path" fill="#FFFFFF"></path>
    </g>
</svg>