<?xml version="1.0" encoding="UTF-8"?>
<svg width="22px" height="22px" viewBox="0 0 22 22" version="1.1" xmlns="http://www.w3.org/2000/svg" xmlns:xlink="http://www.w3.org/1999/xlink">
    <title>icon-linkedin</title>
    <defs>
        <polygon id="path-1" points="0 0 13 0 13 13 0 13"></polygon>
    </defs>
    <g id="Symbols" stroke="none" stroke-width="1" fill="none" fill-rule="evenodd">
        <g id="icon-linkedin">
            <rect id="Rectangle-Copy-11" x="0" y="0" width="22" height="22"></rect>
            <g id="Group-3-Copy" transform="translate(5.000000, 4.000000)">
                <mask id="mask-2" fill="white">
                    <use xlink:href="#path-1"></use>
                </mask>
                <g id="Clip-2"></g>
                <path d="M7.31213389,13 L7.31213389,8.02169483 C7.31213389,7.48839656 7.45606695,7.07902176 7.74309623,6.79100651 C8.02761506,6.50555519 8.38577406,6.36112024 8.8167364,6.36112024 C9.25941423,6.36112024 9.61506276,6.52093879 9.88535565,6.83801197 C10.1564854,7.15593978 10.2920502,7.64223259 10.2920502,8.29774505 L10.2920502,13 L13,13 L13,8.02169483 C13,6.80211689 12.7012552,5.85175202 12.1046025,5.17060022 C11.5087866,4.49030307 10.7230126,4.14929985 9.74979079,4.14929985 C8.758159,4.14929985 7.94560669,4.63473802 7.31213389,5.60903294 L7.22259414,4.42535008 L4.56066946,4.42535008 L4.6041841,6.36112024 L4.6041841,13 L7.31213389,13 Z M0.271129707,13 L2.9790795,13 L2.9790795,4.42535008 L0.271129707,4.42535008 L0.271129707,13 Z M1.61087866,3.04253501 L1.5958159,3.04253501 C1.12384937,3.04253501 0.741422594,2.89639077 0.445188285,2.60410229 C0.148117155,2.31181382 0,1.95115377 0,1.52041286 C0,1.08027086 0.150627615,0.717901519 0.451046025,0.429886267 C0.753974895,0.143580304 1.14979079,0 1.64100418,0 C2.12301255,0 2.50794979,0.143580304 2.8,0.429886267 C3.08953975,0.717901519 3.24016736,1.08027086 3.25020921,1.52041286 C3.25020921,1.95115377 3.10041841,2.31181382 2.8,2.60410229 C2.49874477,2.89639077 2.10125523,3.04253501 1.61087866,3.04253501 L1.61087866,3.04253501 Z" id="Fill-1" fill="#000000" mask="url(#mask-2)"></path>
            </g>
        </g>
    </g>
</svg>