<?xml version="1.0" encoding="UTF-8"?>
<svg width="158px" height="101px" viewBox="0 0 158 101" version="1.1" xmlns="http://www.w3.org/2000/svg" xmlns:xlink="http://www.w3.org/1999/xlink">
    <title>logo-google@1x</title>
    <g id="back-up" stroke="none" stroke-width="1" fill="none" fill-rule="evenodd">
        <g id="Clients-copy" transform="translate(-437.000000, -1478.000000)">
            <g id="logo-google" transform="translate(437.000000, 1478.000000)">
                <g id="Group" transform="translate(18.000000, 33.000000)" fill="#FFFFFF" fill-rule="nonzero">
                    <g id="logo/Google-black">
                        <path d="M31.1387302,14.5378003 L16.3593006,14.5378003 L16.3593006,18.8850823 L26.8408544,18.8850823 C26.3230499,24.981139 21.2066362,27.5808552 16.3770224,27.5808552 C10.1980391,27.5808552 4.80628074,22.761718 4.80628074,16.0070574 C4.80628074,9.42705404 9.9460389,4.35950019 16.3906706,4.35950019 C21.3627703,4.35950019 24.2925837,7.50145147 24.2925837,7.50145147 L27.3632752,4.34935309 C27.3632752,4.34935309 23.4219656,0 16.2337239,0 C7.08122253,0 0,7.65798249 0,15.9295918 C0,24.0348171 6.66112439,31.9386637 16.4674368,31.9386637 C25.0926364,31.9386637 31.4063527,26.0816683 31.4063527,17.4210885 C31.4063527,15.5938691 31.1387302,14.5378003 31.1387302,14.5378003 Z" id="path2998"></path>
                        <path d="M42.8606146,11.1785323 C36.8083585,11.1785323 32.4709748,15.9308122 32.4709748,21.4734258 C32.4709748,27.0979901 36.6779887,31.9386637 42.9317396,31.9386637 C48.5930809,31.9386637 53.2311062,27.5926954 53.2311062,21.5943165 C53.2311062,14.7193246 47.8360037,11.1785323 42.8606146,11.1785323 L42.8606146,11.1785323 Z M42.9207971,15.2558269 C45.8971442,15.2558269 48.7174392,17.6725431 48.7174392,21.5668407 C48.7174392,25.3785231 45.9090002,27.864118 42.9071189,27.864118 C39.6086349,27.864118 37.0065268,25.2108361 37.0065268,21.5366187 C37.0065268,17.941199 39.5763705,15.2558269 42.9207971,15.2558269 L42.9207971,15.2558269 Z" id="path3000"></path>
                        <path d="M65.2176798,11.1785323 C59.1654221,11.1785323 54.8280394,15.9308122 54.8280394,21.4734258 C54.8280394,27.0979901 59.0350536,31.9386637 65.2888036,31.9386637 C70.9501452,31.9386637 75.5881709,27.5926954 75.5881709,21.5943165 C75.5881709,14.7193246 70.193068,11.1785323 65.2176798,11.1785323 Z M65.2778611,15.2558269 C68.2542084,15.2558269 71.0745036,17.6725431 71.0745036,21.5668407 C71.0745036,25.3785231 68.2660657,27.864118 65.2641842,27.864118 C61.9656987,27.864118 59.3635905,25.2108361 59.3635905,21.5366187 C59.3635905,17.941199 61.9334343,15.2558269 65.2778611,15.2558269 L65.2778611,15.2558269 Z" id="path3005"></path>
                        <path d="M87.5733265,11.1785323 C82.0549453,11.1785323 77.7174151,16.018382 77.7174151,21.4506049 C77.7174151,27.638412 82.7461669,31.7417255 87.4782136,31.7417255 C90.4041754,31.7417255 91.9600081,30.5786891 93.1086081,29.2437747 L93.1086081,31.2709795 C93.1086081,34.8178007 90.9579715,36.9417069 87.7119084,36.9417069 C84.5760349,36.9417069 83.003102,34.6067896 82.4565118,33.2818562 L78.5108876,34.9335514 C79.910646,37.8971797 82.7282911,40.9879518 87.7445164,40.9879518 C93.2311204,40.9879518 97.4129244,37.5273188 97.4129244,30.2696223 L97.4129244,11.7962165 L93.1086081,11.7962165 L93.1086081,13.5377071 C91.7860266,12.1096771 89.976205,11.1785323 87.5733265,11.1785323 Z M87.9727752,15.2084503 C90.6783302,15.2084503 93.4564317,17.5217469 93.4564317,21.4723741 C93.4564317,25.4878431 90.6842516,27.7009229 87.912994,27.7009229 C84.9710316,27.7009229 82.2336867,25.3088515 82.2336867,21.5104689 C82.2336867,17.5636088 85.0766749,15.2084503 87.9727752,15.2084503 L87.9727752,15.2084503 Z" id="path3007"></path>
                        <path d="M116.469957,11.1785323 C111.319219,11.1785323 106.994524,15.3615246 106.994524,21.5338973 C106.994524,28.0650774 111.815064,31.9386637 116.964702,31.9386637 C121.262731,31.9386637 123.900636,29.5385685 125.474847,27.3881223 L121.963225,25.0030681 C121.051985,26.4465722 119.528596,27.8574488 116.986212,27.8574488 C114.130383,27.8574488 112.817305,26.2612387 112.003807,24.7148845 L125.625411,18.9457416 L124.918251,17.2550702 C123.60181,13.9440884 120.531948,11.1785323 116.469957,11.1785323 L116.469957,11.1785323 Z M116.647411,15.1664324 C118.503426,15.1664324 119.83915,16.1736818 120.406403,17.3813223 L111.31009,21.2621817 C110.917925,18.2575857 113.706538,15.1664324 116.647411,15.1664324 Z" id="path3011"></path>
                        <polygon id="path3015" points="100.606791 31.4063527 104.865279 31.4063527 104.865279 1.06462212 100.606791 1.06462212"></polygon>
                    </g>
                </g>
                <rect id="Rectangle-Copy-6" fill="#D8D8D8" opacity="0" x="0" y="0" width="158" height="101"></rect>
            </g>
        </g>
    </g>
</svg>