<?xml version="1.0" encoding="UTF-8"?>
<svg width="46px" height="56px" viewBox="0 0 46 56" version="1.1" xmlns="http://www.w3.org/2000/svg" xmlns:xlink="http://www.w3.org/1999/xlink">
    <title>Group 3</title>
    <defs>
        <polygon id="path-1" points="0 0 46 0 46 56 0 56"></polygon>
    </defs>
    <g id="New-Design" stroke="none" stroke-width="1" fill="none" fill-rule="evenodd">
        <g id="Project-1" transform="translate(-176.000000, -1228.000000)">
            <g id="Group-3" transform="translate(176.000000, 1228.000000)">
                <mask id="mask-2" fill="white">
                    <use xlink:href="#path-1"></use>
                </mask>
                <g id="Clip-2"></g>
                <path d="M5.75041694,33.7870704 C5.78043652,27.9865417 7.53491407,24.3023312 10.8103836,21.0285989 L23.0016678,8.47200192 L35.1896164,21.1699111 C38.4684214,24.4200913 40.2195635,27.9865417 40.2495831,33.7870704 L5.75041694,33.7870704 Z M39.272279,16.3854843 L23.0016678,0 L6.72772098,16.3854843 C2.24479733,20.9108387 0,26.9435232 0,32.7406873 C0,38.5412161 2.24479733,44.6613795 6.72772098,49.186734 C11.2139801,53.7087239 17.1078239,56 23.0016678,56 C28.8921761,56 34.7893554,53.7087239 39.272279,49.186734 C43.7585382,44.6613795 46,38.5412161 46,32.7406873 C46,26.9435232 43.7585382,20.9108387 39.272279,16.3854843 L39.272279,16.3854843 Z" id="Fill-1" fill="#FFFFFF" mask="url(#mask-2)"></path>
            </g>
        </g>
    </g>
</svg>