<?xml version="1.0" encoding="UTF-8"?>
<svg width="89px" height="70px" viewBox="0 0 89 70" version="1.1" xmlns="http://www.w3.org/2000/svg" xmlns:xlink="http://www.w3.org/1999/xlink">
    <title>logo-fc</title>
    <defs>
        <polygon id="path-1" points="0 0 55.9827667 0 55.9827667 52 0 52"></polygon>
    </defs>
    <g id="back-up" stroke="none" stroke-width="1" fill="none" fill-rule="evenodd">
        <g id="Clients-copy" transform="translate(-567.000000, -2313.000000)">
            <g id="logo-fc" transform="translate(567.000000, 2313.000000)">
                <g id="FC-logo" transform="translate(1.000000, 0.000000)">
                    <g id="Group-3">
                        <mask id="mask-2" fill="white">
                            <use xlink:href="#path-1"></use>
                        </mask>
                        <g id="Clip-2"></g>
                        <path d="M9.22898889,42.3438889 L24.9423778,50.5035556 L45.8160444,43.2423333 L50.4462111,35.3231667 L52.7486556,31.4845556 L54.5650444,17.5615556 L50.7300444,9.30077778 C49.1613778,8.63561111 40.5293778,4.97177778 38.5692667,4.13183333 C36.8879333,3.41105556 26.5876,1.95144444 22.5077667,1.41627778 L15.4661,4.47127778 L9.26582222,6.24288889 L1.40804444,24.0752778 L2.30071111,32.7029444 L9.22898889,42.3438889 Z M24.8340444,52 L8.30165556,43.4149444 L0.967488889,33.2099444 L-0.000288888889,23.8535556 L0.0733777778,23.6867222 L8.26554444,5.09527778 L15.0436,3.159 L22.3084333,0 L22.4976556,0.0245555556 C23.9666556,0.215944444 36.9175444,1.92472222 39.1123778,2.86505556 C41.2566556,3.78444444 51.4103778,8.0925 51.5122111,8.13583333 L51.7563222,8.23911111 L55.9827667,17.3434444 L54.0782667,31.9475 L51.6313778,36.0258889 L46.7491556,44.3762222 L24.8340444,52 Z" id="Fill-1" fill="#FFFFFF" mask="url(#mask-2)"></path>
                    </g>
                    <path d="M11.7895556,39.3845111 L25.2409444,46.3691222 L43.2387222,40.1081778 L47.1835,33.3633444 L49.0771667,30.2065111 L50.648,18.1634556 L47.8948889,12.2325667 C44.9597778,10.9874556 38.8425556,8.38962222 37.1251111,7.6544 C35.8092222,7.20301111 28.9835,6.12473333 23.0562222,5.32812222 L16.7635,8.05884444 L12.0286111,9.41228889 L5.29822222,24.6865667 L5.98288889,31.3042889 L11.7895556,39.3845111 Z M25.1586111,47.5124 L11.0817778,40.2027889 L4.96455556,31.6914 L4.22283333,24.5175667 L11.2645,8.53551111 L16.4406667,7.0564 L22.9052778,4.24623333 L23.0504444,4.26573333 C29.1539444,5.08256667 36.0735556,6.16951111 37.4891111,6.6664 L37.5223333,6.6794 C39.2520556,7.4204 45.63,10.1280111 48.4921667,11.3420667 L48.6785,11.4215111 L51.7313333,17.9966222 L50.0926111,30.5596778 L48.0891667,33.8999556 L43.9515556,40.9748444 L25.1586111,47.5124 Z" id="Fill-4" fill="#FFFFFF"></path>
                    <path d="M13.897,36.9491056 L25.4865,42.9673833 L41.119,37.5297722 L44.499,31.75055 L46.0561111,29.1541611 L47.4247222,18.6588278 L45.5613889,14.6447167 C42.4977222,13.3447167 37.7137222,11.3123833 36.0381667,10.5966611 C34.9526667,10.2868278 29.8862778,9.42232778 23.5025556,8.54988333 L17.8338333,11.0104944 L14.3021667,12.0201611 L8.49911111,25.1898833 L9.01261111,30.1529944 L13.897,36.9491056 Z M25.4316111,43.7293278 L13.4246667,37.4943833 L8.33372222,30.4108278 L7.78194444,25.0779389 L13.7922778,11.4358833 L17.6186111,10.3424389 L23.4028889,7.82766111 L23.4996667,7.84138333 C30.0885,8.73982778 35.1585,9.60793889 36.2548333,9.92788333 L36.2938333,9.94232778 C37.973,10.6609389 42.8913333,12.7496056 45.9600556,14.0517722 L46.0842778,14.1044944 L48.1469444,18.5476056 L46.7328333,29.3896056 L45.1027778,32.10805 L41.5935,38.10755 L25.4316111,43.7293278 Z" id="Fill-6" fill="#FFFFFF"></path>
                    <path d="M15.3950333,35.2169278 L25.6614222,40.54765 L39.6104222,35.6950389 L42.5888667,30.6033722 L43.9069222,28.4063722 L45.1325333,19.0109833 L43.9025889,16.36115 C40.9494222,15.1073722 36.9475889,13.4072611 35.3074222,12.7067056 C34.2833111,12.4495944 30.0763667,11.7078722 23.8175889,10.8419278 L18.6248111,13.0988722 L15.9193667,13.8752611 L10.7757,25.5485389 L11.1671444,29.3337056 L15.3950333,35.2169278 Z M25.6202556,41.11965 L15.0411444,35.6257056 L10.6579778,29.5279833 L10.2376444,25.4640389 L15.5365889,13.4368722 L18.4478667,12.6048722 L23.7432,10.3002611 L23.8161444,10.3103722 C30.1760333,11.1885944 34.4515889,11.9447611 35.4569222,12.20115 L35.4952,12.21415 C37.1404222,12.9175944 41.2296444,14.6545389 44.2008667,15.9155389 L44.2940333,15.9552611 L45.6742,18.9279278 L44.4146444,28.5825944 L43.0417,30.8713167 L39.9672,36.1290944 L25.6202556,41.11965 Z" id="Fill-8" fill="#FFFFFF"></path>
                    <path d="M16.8045944,33.5876667 L25.8258722,38.272 L38.1924833,33.9704444 L40.7924833,29.5251667 L41.8859278,27.703 L42.9764833,19.3425556 L42.3409278,17.9746667 C39.5820389,16.8032222 36.2128722,15.3710556 34.63265,14.6972222 C33.6627056,14.4776667 29.9172611,13.8110556 24.1127611,12.9985556 L19.3287611,15.0785556 L17.4394278,15.6195 L12.9168722,25.8851667 L13.1934833,28.5638889 L16.8045944,33.5876667 Z M25.7984278,38.6533333 L16.5684278,33.8606667 L12.8540389,28.6931667 L12.55865,25.8288333 L17.1852056,15.327 L19.2103167,14.7492222 L24.0629278,12.6374444 L24.1120389,12.6439444 C29.32215,13.3726667 33.4763722,14.0746667 34.7409833,14.365 C36.3623722,15.0532778 39.7698167,16.5020556 42.5402611,17.6778333 L42.6023722,17.7045556 L43.3375944,19.2869444 L43.3310944,19.3375 L42.22465,27.8207222 L41.0943722,29.7035556 L38.4300944,34.2593333 L25.7984278,38.6533333 Z" id="Fill-10" fill="#FFFFFF"></path>
                    <path d="M18.7250556,31.8131667 L15.8397778,27.7983333 L15.6613889,26.0743889 L19.3736111,17.6489444 L20.5595,17.3102222 L24.6501667,15.5313889 C29.4515,16.2095556 32.6011111,16.7620556 33.6223333,16.9823333 C35.0111667,17.5745556 37.6913333,18.7135 40.0262778,19.7051111 L40.2212778,20.1254444 L39.3170556,27.0587778 L38.4684444,28.4728889 L36.3472778,32.0991667 L26.1242222,35.6553889 L18.7250556,31.8131667 Z" id="Fill-12" fill="#FFFFFF"></path>
                </g>
                <rect id="Rectangle-Copy-3" fill="#D8D8D8" opacity="0" x="0" y="0" width="89" height="70"></rect>
            </g>
        </g>
    </g>
</svg>