<?xml version="1.0" encoding="UTF-8"?>
<svg width="158px" height="101px" viewBox="0 0 158 101" version="1.1" xmlns="http://www.w3.org/2000/svg" xmlns:xlink="http://www.w3.org/1999/xlink">
    <title>logo-ford@1x</title>
    <defs>
        <polygon id="path-1" points="0 0 101.560554 0 101.560554 38.0806157 0 38.0806157"></polygon>
    </defs>
    <g id="back-up" stroke="none" stroke-width="1" fill="none" fill-rule="evenodd">
        <g id="Clients-copy" transform="translate(-1049.000000, -1478.000000)">
            <g id="logo-ford" transform="translate(1049.000000, 1478.000000)">
                <g id="logo/ford-copy-2" transform="translate(29.000000, 31.000000)">
                    <path d="M45.7946241,15.1315373 C46.1718651,15.0556337 46.5878169,14.7436699 46.8314675,14.3831277 C47.0553831,14.0544651 47.1616482,13.5815855 46.9384916,13.3918265 C46.7411422,13.2225614 46.4185518,13.2696217 46.1802145,13.4813928 C45.7042988,13.9034169 45.5593229,14.4992602 45.6223229,14.9448145 C45.6526843,15.1140795 45.7172024,15.1452 45.7946241,15.1315373" id="Fill-1" fill="#FFFFFF"></path>
                    <path d="M80.613206,13.5793843 C80.2260976,14.2458181 72.7890614,25.5683602 72.318459,26.740312 C72.1674108,27.1114807 72.1514711,27.3938422 72.3047964,27.5987819 C72.6926639,28.124794 73.5579651,27.8181434 74.102953,27.4401434 C75.7143867,26.3289145 76.8271337,24.9854205 78.0651217,23.8089145 C78.1372301,23.7557819 78.2563988,23.736047 78.3414108,23.8073964 C78.5243386,23.9759024 78.7900012,24.1952639 78.974447,24.388059 C79.0602181,24.4806614 79.0283386,24.5725048 78.9827964,24.6294325 C77.7721337,26.1065169 76.433953,27.5001072 75.1572542,28.4876133 C73.1655434,30.0269386 71.1837,30.4201193 70.197712,29.4326133 C69.8318566,29.0637217 69.6337482,28.5384687 69.6102181,28.0951916 C69.5957964,27.8545771 69.4713145,27.8424325 69.3589771,27.9532518 C68.1847482,29.1153361 66.1459771,30.4011434 64.2924108,29.4857458 C62.7394229,28.7198783 62.3803988,26.8708663 62.6726277,25.310288 C62.6764229,25.2761313 62.6445434,25.0567699 62.4547843,25.1880831 C62.1306759,25.4195892 61.7078928,25.6769024 61.1826398,25.8704566 C60.5382181,26.1110711 60.2346036,26.2021554 59.6357241,26.1953241 C58.8835193,26.1900108 58.2057,25.8704566 57.7275072,25.1250831 C57.4610855,24.7220349 57.3510253,24.1079747 57.3237,23.6593843 C57.3206639,23.610806 57.2569048,23.5204807 57.1832783,23.6350952 C55.9194831,25.5683602 54.7353867,27.4401434 53.4807,29.405288 C53.4146639,29.4971313 53.3592542,29.5570952 53.229459,29.5616494 C52.451447,29.5616494 51.6036036,29.5593723 50.7451337,29.5646855 C50.5933265,29.5646855 50.5212181,29.448553 50.6016759,29.3013 C51.044194,28.4496614 53.4510976,24.9383602 55.0875795,21.9500349 C55.5369289,21.1302759 55.4481217,20.7067337 55.1672783,20.5245651 C54.8150855,20.2991313 54.1182904,20.6399386 53.5307964,21.0877699 C51.926194,22.3045048 50.5781458,24.197541 49.8965313,25.0438663 C49.491206,25.541794 49.113206,26.2773 48.061941,27.4173723 C46.4087602,29.2140108 44.2143867,30.245541 42.1019892,29.532047 C40.9474952,29.1434205 40.1140735,28.2158783 39.7945193,27.0780831 C39.7315193,26.8572036 39.6070373,26.7957217 39.4878687,26.9414566 C39.1447843,27.3657578 38.4479892,27.9934807 37.8635313,28.3904566 C37.8005313,28.4344807 37.6441699,28.5270831 37.5067843,28.4595289 C37.3845795,28.4063964 36.9519289,27.7946133 36.8661578,27.6177578 C36.8031578,27.4872036 36.8578084,27.347541 36.9344711,27.2807458 C37.7701699,26.5475169 38.2248325,26.1315651 38.5891699,25.6769024 C38.8571096,25.3345771 39.0650855,24.9520229 39.3094952,24.3402398 C39.8165313,23.0605048 40.9717843,20.6718181 43.2762181,19.4376253 C44.155941,18.9670229 45.0462904,18.6277337 46.0360735,18.5138783 C46.4618928,18.4668181 46.8095313,18.5199506 46.9370494,18.8531675 C46.9841096,18.991312 47.1017602,19.2956855 47.1753867,19.5188422 C47.2186518,19.6547096 47.1898084,19.7586976 47.0273747,19.8201795 C45.667941,20.3363241 44.304712,21.1363482 43.3627482,22.3986253 C42.2963024,23.8309265 42.0071096,25.5554566 42.7213627,26.5475169 C43.2458566,27.2663241 44.0876277,27.3923241 44.8982783,27.1357699 C46.1279169,26.7471434 47.1753867,25.5994807 47.7143024,24.3280952 C48.2995193,22.939059 48.3974349,21.2934687 47.9625072,19.8490229 C47.8919169,19.5993 47.9533988,19.4065048 48.1165916,19.2729145 C48.4444952,19.0087699 48.8953627,18.801553 49.0251578,18.7302036 C49.3060012,18.5746012 49.6392181,18.6876976 49.7970976,18.9199627 C50.245688,19.5848783 50.4885795,20.523047 50.5113506,21.4908181 C50.541712,21.6949988 50.6282422,21.700312 50.7269169,21.594806 C51.5299771,20.7401313 52.2783867,19.829288 53.1345795,19.1408422 C53.9148687,18.5184325 54.9160373,18.0121554 55.854206,18.0334084 C57.0618325,18.0592157 57.6660253,18.8812518 57.6242783,20.3416373 C57.6197241,20.5306373 57.7555916,20.5169747 57.8421217,20.3902157 C58.2057,19.8748301 58.4425193,19.6182759 58.8630253,19.2729145 C59.6941699,18.5837096 60.5518807,18.2725048 61.4437482,18.3370229 C62.5428325,18.4167217 63.4225554,19.4232036 63.2419048,20.5640349 C63.1280494,21.299541 62.7287964,21.9477578 62.0517361,22.2832518 C61.4771458,22.5633361 60.8053988,22.5162759 60.3370735,22.097288 C59.9545193,21.7428181 59.8285193,21.2403361 59.9309892,20.7348181 C59.9530012,20.6300711 59.8178928,20.5313964 59.7025193,20.649047 C58.6292422,21.7663482 58.5487843,23.2130711 59.2516518,23.8643241 C60.0281458,24.5816133 61.1856759,24.1019024 62.0342783,23.5493241 C63.5865072,22.5352518 64.7873024,21.1636735 66.1793747,20.104059 C67.1008446,19.4034687 68.1536277,18.7803 69.3339289,18.6224205 C69.9851819,18.5336133 70.6136639,18.5821916 71.2573265,18.844059 C72.1006157,19.1833482 72.6342181,19.8968422 72.7025313,20.5169747 C72.7192301,20.6968663 72.8573747,20.7203964 72.969712,20.5609988 C73.6353867,19.5165651 77.2233506,14.1418301 77.5163386,13.5793843 C77.6074229,13.4017699 77.7038205,13.3774807 77.8958566,13.3774807 C78.6936036,13.3774807 79.6970494,13.3767217 80.4606398,13.3767217 C80.6086518,13.3767217 80.676206,13.4624928 80.613206,13.5793843 M26.664712,29.5200711 C23.892712,29.5396373 21.4486157,27.8264928 21.1700494,24.8586614 C21.0129289,23.2161072 21.4797361,21.7504084 22.4072783,20.543541 C23.2331096,19.4672277 24.6304952,18.5746012 25.8130735,18.3559988 C26.1971458,18.2854084 26.7148084,18.3286735 26.9280976,18.5844687 C27.2635916,18.9738542 27.167194,19.4034687 26.832459,19.5734928 C25.9299651,20.0342277 24.8422663,20.8221072 24.3079048,21.8991795 C23.8707,22.7781434 23.7849289,23.8369988 24.4490855,24.8472759 C25.5633506,26.528541 28.6662904,26.5740831 31.5521458,23.8924084 C32.2679169,23.2350831 32.9062663,22.6058422 33.5575193,21.8589506 C34.8296639,20.4046373 35.2509289,19.8748301 36.9420614,17.5316855 C36.9610373,17.5036012 36.9686277,17.4702036 36.9564831,17.4512277 C36.9443386,17.4216253 36.9208084,17.4140349 36.8722301,17.4094807 C35.7443024,17.4406012 34.7598325,17.7768542 33.804206,18.4918663 C33.5294349,18.6922518 33.1332181,18.6634084 32.9586398,18.4007819 C32.7673627,18.1009627 32.9039892,17.7115771 33.2220253,17.4929747 C34.7598325,16.4242518 36.4395795,16.2291795 38.1542422,15.9392277 C38.1542422,15.9392277 38.2749289,15.9453 38.3728446,15.8147458 C39.0772301,14.9114928 39.6093145,14.097047 40.3584831,13.1831675 C41.1152422,12.2556253 42.0936398,11.4039867 42.8390133,10.7633602 C43.882688,9.86769759 44.5506398,9.5656012 45.2277,9.19670964 C45.4075916,9.10410723 45.207206,8.99101084 45.1525554,8.99101084 C41.3588928,8.27903494 37.4179771,7.35756506 33.6523988,8.75115542 C31.0443506,9.72348072 29.9020012,11.7926133 30.4507843,13.1748181 C30.843206,14.1554928 32.1320494,14.3133723 33.3396759,13.7228422 C34.3423627,13.2325048 35.2691458,12.4400711 35.9264711,11.4199265 C36.2953627,10.8552036 37.0703386,11.2635651 36.6513506,12.2472759 C35.5499892,14.8371072 33.4444229,16.8918181 30.8803988,16.9775892 C28.6981699,17.0489386 27.2901578,15.4428181 27.294712,13.4624928 C27.3015434,9.55421566 31.6530976,6.9826012 36.2232542,6.59776988 C41.7285434,6.14310723 46.9408446,7.60804699 52.4051458,8.27144458 C56.5935072,8.77923976 60.6080494,8.78910723 64.8169048,7.82285422 C65.3155916,7.71431205 65.6647482,8.03083012 65.6313506,8.53483012 C65.5903627,9.26122771 65.0263988,9.95954096 63.6403988,10.7163 C62.0646398,11.5800831 60.4152542,11.8427096 58.6937602,11.8571313 C54.5258928,11.892806 50.6472181,10.2684687 46.6319169,9.39633614 C46.6387482,9.57167349 46.6842904,9.78040843 46.5355193,9.89198675 C44.3138205,11.5330229 42.3023747,13.1991072 40.9573627,15.5376976 C40.9103024,15.5908301 40.9361096,15.6432036 41.0142904,15.6386494 C42.182447,15.5764084 43.2344711,15.546047 44.324447,15.4595169 C44.5157241,15.4428181 44.5225554,15.3957578 44.5050976,15.2545771 C44.409459,14.4499988 44.6440012,13.5315651 45.3552181,12.8977699 C46.0793386,12.2472759 46.9894229,12.1721313 47.5913386,12.6427337 C48.2767482,13.1748181 48.2167843,14.1342398 47.8425795,14.8553241 C47.4615434,15.5862759 46.8315434,15.9756614 46.2258325,16.1654205 C46.2258325,16.1654205 46.0990735,16.1935048 46.1172904,16.3088783 C46.1408205,16.4940831 46.9658928,16.9495048 47.0372422,17.0732277 C47.1047964,17.1886012 47.0698807,17.3677337 46.9423627,17.5036012 C46.8550735,17.604553 46.7207241,17.6994325 46.5453867,17.6956373 C46.403447,17.6918422 46.3176759,17.6432639 46.1362663,17.5461072 C45.7681337,17.3449627 45.3043627,17.015541 44.997712,16.6291916 C44.892206,16.4971193 44.8398325,16.4940831 44.575688,16.5062277 C43.3961458,16.576059 41.553206,16.7551916 40.3076277,16.911553 C40.0047723,16.9479867 39.9584711,17.0041554 39.8954711,17.1081434 C37.9090735,20.3902157 35.7837723,23.9265651 33.4512542,26.2947578 C30.9509892,28.8344928 28.8719892,29.5024446 26.664712,29.5200711 M50.7785313,3.11379398 C24.8468205,3.11379398 3.82910964,10.2790952 3.82910964,19.0459627 C3.82910964,27.8158663 24.8468205,34.9819265 50.7785313,34.9819265 C76.7094831,34.9819265 97.7241578,27.8158663 97.7241578,19.0459627 C97.7241578,10.2790952 76.7094831,3.11379398 50.7785313,3.11379398" id="Fill-3" fill="#FFFFFF"></path>
                    <path d="M70.5833783,20.5707904 C69.6968241,20.1457301 68.3480169,20.9260193 67.1259687,22.4281518 C66.1278361,23.6562723 65.5866434,24.9079229 65.5684265,26.1269349 C65.5615952,26.5611036 65.724788,27.0962241 66.1073422,27.2943325 C66.9665711,27.7482361 68.0110048,27.073453 68.7616916,26.4525614 C69.2558241,26.0442 69.6672217,25.6191398 70.031559,25.0756699 C70.4285349,24.4858988 70.7184867,24.0949952 71.0388,23.4179349 C71.079788,23.3276096 71.0562578,23.2980072 71.018306,23.2843446 C70.9090048,23.2448747 70.7966675,23.1598627 70.7830048,23.0740916 C70.7632699,23.0217181 70.766306,22.9678265 70.7997036,22.9025494 C71.207306,22.0698867 71.4987759,21.0095133 70.5833783,20.5707904" id="Fill-5" fill="#FFFFFF"></path>
                    <g id="Group-9" transform="translate(-0.000000, -0.000000)">
                        <mask id="mask-2" fill="white">
                            <use xlink:href="#path-1"></use>
                        </mask>
                        <g id="Clip-8"></g>
                        <path d="M50.778759,36.4238675 C23.9050843,36.4238675 2.11922892,28.6452651 2.11922892,19.0457349 C2.11922892,9.44544578 23.9050843,1.66836145 50.778759,1.66836145 C77.6486386,1.66836145 99.434494,9.44544578 99.434494,19.0457349 C99.434494,28.6452651 77.6486386,36.4238675 50.778759,36.4238675 M0,19.0396627 C0,29.569012 22.7801928,38.0808434 50.778759,38.0808434 C78.7803614,38.0808434 101.560554,29.5401687 101.560554,19.0396627 C101.560554,8.54143373 78.7803614,0 50.778759,0 C22.5934699,0 0,8.44883133 0,19.0396627 Z" id="Fill-7" fill="#FFFFFF" mask="url(#mask-2)"></path>
                    </g>
                </g>
                <rect id="Rectangle-Copy-7" fill="#D8D8D8" opacity="0" x="0" y="0" width="158" height="101"></rect>
            </g>
        </g>
    </g>
</svg>