<?xml version="1.0" encoding="UTF-8"?>
<svg width="158px" height="101px" viewBox="0 0 158 101" version="1.1" xmlns="http://www.w3.org/2000/svg" xmlns:xlink="http://www.w3.org/1999/xlink">
    <title>logo postmates@1x</title>
    <defs>
        <polygon id="path-1" points="0 0 50.2171306 0 50.2171306 36.0486892 0 36.0486892"></polygon>
    </defs>
    <g id="back-up" stroke="none" stroke-width="1" fill="none" fill-rule="evenodd">
        <g id="Clients-copy" transform="translate(-845.000000, -1478.000000)">
            <g id="logo-postmates" transform="translate(845.000000, 1478.000000)">
                <g id="logo/postmates" transform="translate(3.625411, 33.000000)">
                    <path d="M79.0990807,12.1945988 L79.0702373,12.1908036 L79.0990807,12.1945988 Z" id="Fill-1" fill="#FFFFFF"></path>
                    <g id="Group-23" transform="translate(-0.000000, 0.000000)">
                        <path d="M65.0011229,15.0516108 C64.8341349,14.8428759 64.5661952,14.738888 64.1919904,14.738888 L63.2796289,14.738888 L63.2796289,17.5245506 L64.1449301,17.5245506 C64.5290024,17.5245506 64.8083277,17.4167675 64.9844241,17.2027193 C65.1605205,16.9909482 65.2485687,16.630406 65.2485687,16.1165386 C65.2485687,15.6148157 65.1658337,15.2588277 65.0011229,15.0516108 M67.6342193,17.7393578 C67.4520506,18.203888 67.1992916,18.5811289 66.8736651,18.8695627 C66.5480386,19.1564783 66.1616892,19.3682494 65.7130988,19.5003217 C65.2660265,19.633153 64.773412,19.7022253 64.2413277,19.7022253 L63.2796289,19.7022253 L63.2796289,23.7668639 L60.655641,23.7668639 L60.655641,12.5619723 L64.4326048,12.5619723 C64.9350867,12.5619723 65.3958217,12.6226952 65.8170867,12.7464181 C66.2391108,12.8693819 66.6034482,13.0674904 66.913894,13.3384663 C67.2228217,13.6102012 67.4664723,13.9684663 67.6410506,14.4109843 C67.817906,14.8535024 67.9059542,15.4000084 67.9059542,16.0520205 C67.9059542,16.714659 67.8156289,17.2771048 67.6342193,17.7393578" id="Fill-2" fill="#FFFFFF"></path>
                        <path d="M75.1398723,16.4918819 C75.0852217,16.0410145 75.0047639,15.6819904 74.9000169,15.4155687 C74.7922337,15.1476289 74.6586434,14.9563518 74.5000048,14.8447735 C74.3390892,14.7324361 74.1584386,14.6755084 73.9542578,14.6755084 C73.7409687,14.6755084 73.5572819,14.728641 73.4016795,14.8364241 C73.2491133,14.9442072 73.117041,15.127894 73.0100169,15.3912795 C72.9045108,15.653147 72.8278482,16.010653 72.7769928,16.4600024 C72.7291735,16.9101108 72.7079205,17.4733157 72.7079205,18.1488578 C72.7079205,18.823641 72.7337277,19.3868458 72.7853422,19.8354361 C72.8399928,20.2870627 72.9212096,20.6453277 73.0267157,20.9140265 C73.1329807,21.1827253 73.264294,21.3732434 73.4176193,21.4848217 C73.5739807,21.5979181 73.7569084,21.6533277 73.9709566,21.6533277 C74.1736193,21.6533277 74.3550289,21.5994361 74.5151855,21.492412 C74.6761012,21.386147 74.8058964,21.2009422 74.9076072,20.9383157 C75.008559,20.6756892 75.0852217,20.3197012 75.1398723,19.8703518 C75.1922458,19.4194843 75.2195711,18.8562795 75.2195711,18.1807373 C75.2195711,17.5051952 75.1922458,16.9435084 75.1398723,16.4918819 M77.6993422,20.7257855 C77.5202096,21.449906 77.254547,22.0518217 76.9069084,22.5254602 C76.561547,23.0006169 76.1372458,23.3550867 75.6347639,23.590388 C75.1338,23.822653 74.5690771,23.9425807 73.9390771,23.9425807 C72.6805952,23.9425807 71.7006795,23.4765325 71.0016072,22.5414 C70.303294,21.6070265 69.9541373,20.1542313 69.9541373,18.1807373 C69.9541373,16.2080024 70.3086072,14.7468578 71.016788,13.8041349 C71.7264867,12.8583759 72.7109566,12.3862554 73.9709566,12.3862554 C75.2309566,12.3862554 76.2123904,12.8568578 76.9152578,13.7973036 C77.6204024,14.7354723 77.9710771,16.1859904 77.9710771,18.1488578 C77.9710771,19.1409181 77.8799928,20.000147 77.6993422,20.7257855" id="Fill-4" fill="#FFFFFF"></path>
                        <path d="M86.999812,22.045294 C86.8184024,22.4566916 86.5648843,22.8005349 86.2392578,23.0791012 C85.9128723,23.3546313 85.5288,23.5701976 85.0878,23.7182096 C84.6430048,23.8677398 84.1602578,23.9428843 83.6372819,23.9428843 C83.2008361,23.9428843 82.8061373,23.8965831 82.4524265,23.8146072 C82.1032699,23.7280771 81.7784024,23.6013181 81.4854145,23.4305349 C81.1916675,23.2605108 80.9222096,23.053294 80.677041,22.8126795 C80.4318723,22.5728241 80.1904988,22.298812 79.9574747,21.9898843 L81.7829566,20.3412578 C82.1541253,20.7890892 82.4956916,21.1283783 82.8061373,21.3576072 C83.114306,21.5875952 83.407294,21.7014506 83.6851012,21.7014506 C83.9629084,21.7014506 84.1936554,21.6308602 84.374306,21.4851253 C84.5557157,21.3416675 84.6452819,21.1154747 84.6452819,20.805788 C84.6452819,20.6448723 84.6301012,20.5014145 84.5982217,20.3723783 C84.5671012,20.2463783 84.499547,20.1196193 84.3978361,19.9974145 C84.2968843,19.8759687 84.1526675,19.7507277 83.9651855,19.6292819 C83.7792217,19.5063181 83.5257036,19.3750048 83.2061494,19.2361012 C82.651294,18.9932096 82.1784145,18.749559 81.790547,18.5074265 C81.4004024,18.2675711 81.0838843,18.0110169 80.8470651,17.7316916 C80.6049325,17.4561614 80.4318723,17.1479928 80.3240892,16.8132578 C80.2185831,16.4762458 80.1662096,16.0898964 80.1662096,15.6519325 C80.1662096,15.1927157 80.2451494,14.7653783 80.405306,14.3706795 C80.5654627,13.9767398 80.7939325,13.6328964 81.0937518,13.3383904 C81.3905349,13.0454024 81.7571494,12.8138964 82.1898,12.6431133 C82.6216916,12.4723301 83.1036795,12.386559 83.6372819,12.386559 C84.0638602,12.386559 84.4464145,12.4245108 84.7819084,12.4988964 C85.1181614,12.5732819 85.423294,12.6871373 85.6927518,12.8442578 C85.9667639,12.9975831 86.221041,13.184306 86.4563422,13.4044265 C86.6886072,13.6222699 86.9239084,13.8742699 87.1584506,14.1634627 L85.3018482,15.8265108 C85.1113301,15.6041133 84.9451012,15.4151133 84.8069566,15.2587518 C84.667294,15.1054265 84.5344627,14.9794265 84.4061855,14.8830289 C84.2794265,14.7873904 84.1473542,14.7221133 84.0145229,14.6834024 C83.8816916,14.6462096 83.7276072,14.6279928 83.5583422,14.6279928 C83.3010289,14.6279928 83.1036795,14.7076916 82.9655349,14.8678482 C82.8289084,15.0272458 82.757559,15.2139687 82.757559,15.4264988 C82.757559,15.577547 82.778053,15.7096193 82.8228361,15.8265108 C82.8653422,15.9464386 82.9382096,16.0595349 83.0452337,16.1726313 C83.1522578,16.2834506 83.2957157,16.3927518 83.4794024,16.5005349 C83.659294,16.6068 83.8938361,16.7236916 84.1822699,16.8534867 C84.7469928,17.0978964 85.2236675,17.3453422 85.6145711,17.5973422 C86.0039566,17.8470651 86.3204747,18.1225952 86.5671614,18.4216554 C86.8130892,18.7207157 86.9899446,19.0471012 87.104559,19.4046072 C87.2153783,19.7613542 87.272306,20.176547 87.272306,20.6448723 C87.272306,21.1678482 87.1804627,21.6346554 86.999812,22.045294" id="Fill-6" fill="#FFFFFF"></path>
                        <polygon id="Fill-8" fill="#FFFFFF" points="94.0868566 14.8996518 94.0868566 23.766712 91.4173265 23.766712 91.4173265 14.8996518 89.1432542 14.8996518 89.1432542 12.5618205 96.3609289 12.5618205 96.3609289 14.8996518"></polygon>
                        <path d="M105.307157,23.766788 L105.307157,21.2862578 C105.307157,20.6767518 105.313229,20.1021614 105.323855,19.5655229 C105.333723,19.0258482 105.35194,18.5165349 105.373952,18.0360651 C105.307157,18.2599807 105.235807,18.5074265 105.156867,18.7814386 C105.074133,19.0524145 104.988361,19.3355349 104.892723,19.6292819 C104.796325,19.923788 104.696133,20.2122217 104.59594,20.5014145 C104.494988,20.7890892 104.400108,21.0608241 104.315096,21.3173783 L103.259277,24.1182217 L102.20194,21.3173783 C102.116928,21.0722096 102.025084,20.8027518 101.924133,20.5090048 C101.820904,20.2152578 101.722988,19.923788 101.62659,19.6292819 C101.530952,19.3355349 101.443663,19.0524145 101.363205,18.7814386 C101.281988,18.5074265 101.211398,18.2599807 101.148398,18.0360651 C101.167373,18.5059084 101.183313,19.0129446 101.194699,19.5571735 C101.206084,20.1014024 101.211398,20.6767518 101.211398,21.2862578 L101.211398,23.766788 L98.7794458,23.766788 L98.7794458,12.5618964 L101.211398,12.5618964 L102.20194,15.3164386 C102.450145,15.9874265 102.66647,16.6303301 102.860024,17.2451494 C103.052819,17.8584506 103.184892,18.3609325 103.259277,18.7571494 C103.34353,18.3609325 103.483952,17.8599687 103.676747,17.2527398 C103.868024,16.6447518 104.087386,15.9919807 104.331036,15.2989807 L105.307157,12.5618964 L107.725446,12.5618964 L107.725446,23.766788 L105.307157,23.766788 Z" id="Fill-10" fill="#FFFFFF"></path>
                        <path d="M114.87883,19.1410699 C114.750553,18.4040458 114.631384,17.7300217 114.517529,17.1167205 C114.405951,16.5034193 114.324734,15.9394554 114.270083,15.426347 C114.216951,15.9394554 114.13877,16.5034193 114.040095,17.1167205 C113.937625,17.7300217 113.81542,18.4116361 113.677276,19.1570096 L113.614276,19.5084434 L114.94183,19.5084434 L114.87883,19.1410699 Z M115.807131,23.7666361 L115.389661,21.685359 L113.180866,21.685359 L112.782372,23.7666361 L110.02783,23.7666361 L112.92583,12.5625036 L115.680372,12.5625036 L118.560914,23.7666361 L115.807131,23.7666361 Z" id="Fill-12" fill="#FFFFFF"></path>
                        <polygon id="Fill-14" fill="#FFFFFF" points="124.322302 14.8996518 124.322302 23.766712 121.648218 23.766712 121.648218 14.8996518 119.374905 14.8996518 119.374905 12.5618205 126.593339 12.5618205 126.593339 14.8996518"></polygon>
                        <polygon id="Fill-16" fill="#FFFFFF" points="129.010717 23.766788 129.010717 12.5618964 135.573343 12.5618964 135.573343 14.8511494 131.666584 14.8511494 131.666584 16.7563301 134.212392 16.7563301 134.212392 19.0448241 131.666584 19.0448241 131.666584 21.4775349 135.684163 21.4775349 135.684163 23.766788"></polygon>
                        <path d="M144.838518,22.045294 C144.657108,22.4566916 144.404349,22.8005349 144.078723,23.0791012 C143.752337,23.3546313 143.369024,23.5701976 142.926506,23.7182096 C142.48247,23.8677398 142.000482,23.9428843 141.478265,23.9428843 C141.039542,23.9428843 140.64712,23.8965831 140.294928,23.8146072 C139.941217,23.7280771 139.618627,23.6013181 139.32412,23.4305349 C139.032651,23.2605108 138.762434,23.053294 138.516506,22.8126795 C138.273614,22.5728241 138.030723,22.298812 137.797699,21.9898843 L139.620904,20.3412578 C139.99359,20.7890892 140.336675,21.1283783 140.64712,21.3576072 C140.95453,21.5875952 141.249036,21.7014506 141.525325,21.7014506 C141.80541,21.7014506 142.032361,21.6308602 142.215289,21.4851253 C142.395181,21.3416675 142.487024,21.1154747 142.487024,20.805788 C142.487024,20.6448723 142.471084,20.5014145 142.438446,20.3723783 C142.405807,20.2463783 142.34053,20.1196193 142.238819,19.9974145 C142.13559,19.8759687 141.992133,19.7507277 141.806928,19.6292819 C141.618687,19.5063181 141.365169,19.3750048 141.046373,19.2361012 C140.490759,18.9932096 140.018639,18.749559 139.630771,18.5074265 C139.239867,18.2675711 138.924867,18.0110169 138.685771,17.7316916 C138.445916,17.4561614 138.273614,17.1479928 138.165831,16.8132578 C138.058048,16.4762458 138.004157,16.0898964 138.004157,15.6519325 C138.004157,15.1927157 138.085373,14.7653783 138.244771,14.3706795 C138.404169,13.9767398 138.635675,13.6328964 138.933217,13.3383904 C139.232277,13.0454024 139.598133,12.8138964 140.030024,12.6431133 C140.461157,12.4723301 140.944663,12.386559 141.478265,12.386559 C141.905602,12.386559 142.287398,12.4245108 142.622133,12.4988964 C142.959145,12.5732819 143.262759,12.6871373 143.534494,12.8442578 C143.806229,12.9975831 144.062024,13.184306 144.294289,13.4044265 C144.528072,13.6222699 144.764133,13.8742699 145.000193,14.1634627 L143.142072,15.8265108 C142.950036,15.6041133 142.786843,15.4151133 142.645663,15.2587518 C142.507518,15.1054265 142.374687,14.9794265 142.24641,14.8830289 C142.118133,14.7873904 141.98606,14.7221133 141.853988,14.6834024 C141.721157,14.6462096 141.569349,14.6279928 141.397807,14.6279928 C141.142771,14.6279928 140.944663,14.7076916 140.805,14.8678482 C140.666096,15.0272458 140.597783,15.2139687 140.597783,15.4264988 C140.597783,15.577547 140.619036,15.7096193 140.662301,15.8265108 C140.705566,15.9464386 140.778434,16.0595349 140.886217,16.1726313 C140.993241,16.2834506 141.137458,16.3927518 141.31659,16.5005349 C141.500277,16.6068 141.732542,16.7236916 142.022494,16.8534867 C142.587217,17.0978964 143.06541,17.3453422 143.454036,17.5973422 C143.843422,17.8470651 144.161458,18.1225952 144.407386,18.4216554 C144.651795,18.7207157 144.831687,19.0471012 144.942506,19.4046072 C145.055602,19.7613542 145.110253,20.176547 145.110253,20.6448723 C145.110253,21.1678482 145.020687,21.6346554 144.838518,22.045294" id="Fill-18" fill="#FFFFFF"></path>
                        <g id="Group-22" transform="translate(0.000000, 0.000000)">
                            <mask id="mask-2" fill="white">
                                <use xlink:href="#path-1"></use>
                            </mask>
                            <g id="Clip-21"></g>
                            <path d="M33.5456024,7.61806627 C33.9198072,7.5998494 34.7646145,7.5748012 35.7103735,7.62945181 L39.7400964,4.01643976 L37.9692651,3.8388253 L33.5258675,7.61578916 L33.5289036,7.61958434 C33.5342169,7.61806627 33.5402892,7.61806627 33.5456024,7.61806627 L33.5456024,7.61806627 Z M4.2399759,26.1666325 L2.93139759,23.8379096 L2.6186747,26.492259 L0,27.016753 L2.42815663,28.130259 L2.11695181,30.7846084 L3.92953012,28.8194639 L6.35768675,29.936006 L5.04910843,27.6057651 L6.8586506,25.6421386 L4.2399759,26.1666325 Z M12.9939398,30.1963554 L11.6861205,27.8668735 L11.3756747,30.5204639 L8.75624096,31.0441988 L11.1851566,32.160741 L10.8739518,34.8150904 L12.685012,32.8484277 L15.1124096,33.9657289 L13.8038313,31.6347289 L15.6141325,29.6718614 L12.9939398,30.1963554 Z M14.1674096,18.9550301 L12.8573133,16.6263072 L12.5476265,19.2791386 L9.92819277,19.8043916 L12.3563494,20.9209337 L12.0459036,23.5745241 L13.8562048,21.6086205 L16.2851205,22.7251627 L14.9750241,20.3956807 L16.7876024,18.4297771 L14.1674096,18.9550301 Z M46.640494,22.3084518 C46.0173253,22.7562831 45.3258434,23.0576205 44.5797108,23.2071506 C42.5272771,23.6193072 40.4141205,22.7874036 39.1913133,21.0886807 C37.8546506,19.225247 37.8979157,16.7879819 39.1108554,14.9890663 L43.4107952,18.1823313 C43.4965663,18.2468494 43.6028313,18.2726566 43.700747,18.260512 C43.8077711,18.2491265 43.911759,18.1944759 43.9808313,18.1026325 C44.1166988,17.922741 44.0810241,17.6677048 43.9018916,17.5325964 L39.7233976,14.2398976 C39.9336506,14.0250904 40.1598434,13.8209096 40.4141205,13.640259 C41.0357711,13.1916687 41.7302892,12.8895723 42.4764217,12.7400422 C44.5265783,12.3286446 46.640494,13.1613072 47.8633012,14.8600301 C49.5794819,17.2502349 49.0314578,20.589994 46.640494,22.3084518 L46.640494,22.3084518 Z M32.4070482,14.6125843 C31.1295904,13.6911145 28.4889036,14.1359096 26.7689277,14.4228253 C27.3541446,13.1939458 28.3856747,11.9202831 28.7302771,10.4378855 C28.9139639,11.3730181 32.003241,12.4356687 32.003241,12.4356687 C32.003241,12.4356687 33.4051807,12.1244639 34.6188795,11.6493072 C34.6317831,11.6614518 34.6462048,11.6735964 34.6598675,11.6834639 L35.1221205,12.0273072 L32.4070482,14.6125843 Z M34.2666867,19.3353072 L33.0598193,16.5526807 C33.0985301,16.1101627 33.074241,15.7139458 32.9748072,15.383006 L35.0796145,13.3783916 L34.2666867,19.3353072 Z M33.7634458,23.0090422 C33.5433253,23.0158735 33.3216867,23.0765964 33.116747,23.1843795 C33.0013735,23.0500301 32.823759,22.9149217 32.5026867,22.7077048 C32.2597952,22.5513434 31.1569157,21.8909819 31.1979036,21.7520783 C31.3580602,21.2723675 31.7186024,20.5573554 32.2385422,19.5448012 C32.7842892,20.1467169 33.3338313,21.1729337 33.8742651,22.2075 L33.7634458,23.0090422 Z M32.0799036,25.3385241 C30.9884096,23.887247 29.3693855,22.9650181 27.6198072,22.7274398 L27.7981807,20.8116325 L29.315494,21.8826325 C29.148506,22.4921386 29.2198554,22.8139699 29.715506,23.0135964 L32.3668193,24.0405723 L32.382,24.0511988 C32.2711807,24.3942831 32.2818072,24.770006 32.4305783,25.1108133 L32.0799036,25.3385241 Z M29.8453012,33.6894398 C29.2228916,34.1387892 28.5283735,34.4408855 27.783759,34.5926928 C25.7336024,35.0025723 23.6189277,34.1691506 22.3976386,32.4711867 C20.6806988,30.0809819 21.2294819,26.7389458 23.6189277,25.022006 C24.2420964,24.5749337 24.9366145,24.2720783 25.6804699,24.1225482 C25.9689036,24.0641024 26.2565783,24.033741 26.545012,24.0238735 L26.039494,29.4525 C26.0235542,29.6323916 26.1116024,29.8077289 26.2649277,29.9010904 C26.3696747,29.9648494 26.4903614,29.9845843 26.6042169,29.9618133 C26.6626627,29.9496687 26.7173133,29.9291747 26.7674096,29.8950181 L31.4506627,26.8748133 C32.6711928,29.1921506 32.0320843,32.120512 29.8453012,33.6894398 L29.8453012,33.6894398 Z M27.4930482,24.077006 C28.8380602,24.2728373 30.0790843,24.9764639 30.9367952,26.0763072 L27.0755783,28.5705 L27.4930482,24.077006 Z M30.8745542,17.3815482 C30.3887711,19.0635723 29.9052651,20.2469096 29.587988,21.0803313 L28.0949639,20.0252711 L30.8745542,17.3815482 Z M25.0474337,17.8703675 C25.2463012,17.8680904 25.4550361,17.8529096 25.6850241,17.8096446 C27.4809036,17.6320301 28.7363494,17.4475843 29.5720482,17.3109578 L27.3063253,19.4681386 L25.0474337,17.8703675 Z M31.5288434,9.75627108 C32.5186265,9.84431928 33.536494,9.76158434 34.4336747,9.62343976 L34.7608193,10.3452831 C34.0556747,10.3893072 33.3300361,10.4659699 32.6734699,10.574512 C32.150494,10.6602831 30.7956145,9.31754819 31.5288434,9.75627108 L31.5288434,9.75627108 Z M48.9631446,14.0698735 C47.4321687,11.939259 44.7816145,10.8963434 42.2084819,11.4117289 C41.2741084,11.5984518 40.4027349,11.9779699 39.6224458,12.5388976 C39.2641807,12.7962108 38.9400723,13.0838855 38.6501205,13.3943313 L36.7024337,11.8603193 C37.2694337,11.6485482 39.0372289,10.9373313 38.3055181,10.5525 C38.1096867,10.447753 37.7096747,10.3779217 37.192012,10.3384518 L38.5734578,9.13689759 L38.8747952,8.87503012 L41.4631084,6.62296988 L40.2592771,4.27906627 L36.2917952,7.83742771 C36.2917952,7.83742771 36.288759,7.83211446 35.9031687,8.18506627 C35.9001325,8.18430723 35.8955783,8.18354819 35.8925422,8.18354819 L35.8955783,8.19189759 L35.8925422,8.19341566 L35.8902651,8.19037952 C35.0477349,8.13648795 34.2575783,8.20783735 33.8218916,8.27007831 L33.8203735,8.26856024 C32.9307831,8.42795783 32.1793373,8.54181325 31.8210723,8.47198193 C30.5193253,8.21922289 30.2103976,6.83398193 29.6206265,6.02940361 C29.2858916,5.57246386 28.6118675,5.51933133 28.5541807,5.12766867 C28.7409036,5.09351205 28.917,5.03962048 29.0733614,4.9644759 C29.7883735,4.62366867 30.0365783,4.30335542 30.2308916,3.87070482 C30.4760602,3.32116265 30.2134337,2.4171506 29.8468193,1.66798193 C30.1420843,1.4531747 31.2495181,0.590150602 31.206253,0.442138554 C31.1910723,0.388246988 29.8134217,0.57876506 29.2350361,0.690343373 C29.1492651,0.587873494 29.0703253,0.507415663 29.002012,0.457319277 C28.5306506,0.109680723 28.1443012,-0.242512048 27.0307952,0.223536145 C25.1271325,1.01748795 25.2265663,2.50140361 25.8573253,3.82364458 C26.1480361,4.43618675 26.6573494,4.82101807 27.2122048,5.01533133 C27.1719759,5.09351205 27.1499639,5.13753614 27.1287108,5.17700602 L27.1810843,5.04493373 C24.1753012,7.75621084 17.1595301,12.3202952 15.3127952,12.4113795 C16.841494,13.0079819 21.2461807,13.0899578 23.0921566,11.9878373 C22.574494,14.0956807 22.5418554,16.1754398 23.4329639,17.2062108 C22.7483133,17.713247 22.0431687,18.259753 21.7023614,18.5914518 C21.4359398,18.8502831 21.5163976,18.9838735 21.7463855,19.2776205 C21.7463855,19.2776205 23.5331566,19.3117771 24.0622048,18.8077771 C24.2041446,18.6726687 24.3271084,18.5504639 24.4402048,18.4366084 L26.9055542,20.1785964 L26.6725301,22.6682349 C26.2543012,22.6712711 25.8337952,22.7092229 25.4132892,22.7942349 C24.4789157,22.9809578 23.6083012,23.3604759 22.828012,23.9214036 C19.8320964,26.0755482 19.1451687,30.2631506 21.2962771,33.2613434 C22.828012,35.3911988 25.4778072,36.4325964 28.0524578,35.919488 C28.9868313,35.732006 29.8566867,35.352488 30.6362169,34.7915602 C33.411253,32.7975723 34.2006506,29.0585602 32.5937711,26.1362711 L33.0833494,25.820512 C33.5744458,26.091488 34.1960964,26.0785843 34.6826386,25.7301867 C35.174494,25.3757169 35.384747,24.7821506 35.2777229,24.2250181 C35.9456747,24.0322229 36.6470241,23.8052711 37.4303494,23.5737651 C38.2425181,23.3331506 38.3616867,23.090259 38.1620602,22.689488 C37.8888072,22.1422229 35.8310602,22.6363554 35.5646386,22.3266687 L34.9953614,21.0135361 L36.1217711,12.7696446 L38.0223976,14.1806928 C36.4678916,16.4418614 36.4033735,19.5265843 38.0914699,21.8795964 C39.6224458,24.0094518 42.2745181,25.0516084 44.8461325,24.5369819 C45.7812651,24.348741 46.6518795,23.9699819 47.4306506,23.4090542 C50.4288434,21.2564277 51.115012,17.0657892 48.9631446,14.0698735 L48.9631446,14.0698735 Z" id="Fill-20" fill="#FFFFFF" mask="url(#mask-2)"></path>
                        </g>
                    </g>
                </g>
                <rect id="Rectangle-Copy-4" fill="#D8D8D8" opacity="0" x="0" y="0" width="158" height="101"></rect>
            </g>
        </g>
    </g>
</svg>