<?xml version="1.0" encoding="UTF-8"?>
<svg width="158px" height="101px" viewBox="0 0 158 101" version="1.1" xmlns="http://www.w3.org/2000/svg" xmlns:xlink="http://www.w3.org/1999/xlink">
    <title>logo-sony-pictures@1x</title>
    <defs>
        <polygon id="path-1" points="0 -6.5032725e-15 6.4479661 -6.5032725e-15 6.4479661 4.84068814 0 4.84068814"></polygon>
        <polygon id="path-3" points="0 -6.5032725e-15 2.8076339 -6.5032725e-15 2.8076339 35.8953559 0 35.8953559"></polygon>
        <polygon id="path-5" points="0 0 1.98783906 0 1.98783906 35.2752712 0 35.2752712"></polygon>
    </defs>
    <g id="back-up" stroke="none" stroke-width="1" fill="none" fill-rule="evenodd">
        <g id="Clients-copy" transform="translate(-641.000000, -1478.000000)">
            <g id="logo-sony-pictures" transform="translate(641.000000, 1478.000000)">
                <g id="logo/SPE" transform="translate(51.625411, 10.000000)">
                    <path d="M1.41370169,67.5291966 C3.48400678,68.6037051 6.6736678,68.8160441 8.76044746,68.0435695 C9.74892203,67.6902814 10.6046847,66.8217051 10.6541085,65.7636712 C10.6339729,64.9271288 10.1937356,64.1207898 9.43682034,63.721739 C7.42875254,62.8678068 4.99417627,63.0453661 2.83875254,62.5282475 C2.70787119,62.4852305 2.43695593,62.3744847 2.43695593,61.993739 C2.49004068,61.0501119 4.45783729,60.9311288 5.68610847,61.0226542 C7.03519322,61.1663492 8.64421017,61.4134678 9.15583729,62.8257051 L10.223939,62.8165525 L10.2184475,60.2437729 L9.12746441,60.2300441 L9.12288814,60.762722 L8.72841356,60.600722 C6.32495593,59.4923492 2.30882034,59.4685525 0.781261017,61.1031966 C0.226616949,61.5919424 -0.0470440678,62.4513661 0.354752542,63.2247559 C1.55831186,65.3609593 4.44868475,64.9271288 6.62424407,65.3106203 C7.26126102,65.4268576 7.9056,65.3408237 8.33485424,65.8881458 C8.46390508,66.1636373 8.44926102,66.583739 8.13624407,66.7777729 C6.81919322,67.6234678 4.82943051,67.4001458 3.39614237,66.9974339 C2.57607458,66.742078 1.53726102,66.0995695 1.40729492,65.1834 L0.346515254,65.1834 L0.354752542,68.2385186 L1.42834576,68.2257051 L1.41370169,67.5291966 Z" id="Fill-1" fill="#FFFFFF"></path>
                    <polygon id="Fill-3" fill="#FFFFFF" points="42.5964814 65.104322 42.6019729 67.0291017 41.2519729 67.0254407 41.2519729 68.0761525 46.5705153 68.0853051 46.5705153 67.0254407 45.169261 67.0300169 45.1656 64.9771017 48.5227525 61.3288983 49.9075322 61.3288983 49.9038712 60.291 45.5957695 60.291 45.590278 61.3288983 46.4323119 61.3288983 44.294278 63.6271017 42.4591932 61.3288983 43.3058034 61.3288983 43.3058034 60.291 37.9771932 60.2827627 37.9771932 61.3288983 39.4635661 61.3288983"></polygon>
                    <path d="M24.9671288,60.2831288 L28.6784847,60.2913661 L33.8341119,64.8200441 L33.8341119,61.3320102 L32.5564169,61.3338407 L32.5564169,60.2913661 L36.9084508,60.2831288 L36.9084508,61.3292644 L35.6234339,61.3320102 L35.6087898,68.0847559 L34.0684169,68.0765186 C32.0155017,66.4034339 30.0641797,64.5601119 27.9957051,62.9236373 L27.9957051,67.0386203 L29.3356373,67.0386203 L29.3219085,68.0765186 L24.9707898,68.0847559 L24.9707898,67.0331288 L26.3098068,67.0386203 L26.2988237,61.3338407 L24.9707898,61.3292644 L24.9671288,60.2831288 Z" id="Fill-5" fill="#FFFFFF"></path>
                    <path d="M18.0759051,61.0642983 C19.954922,61.0642983 21.4797356,62.4646373 21.4797356,64.1908068 C21.4797356,65.9188068 19.954922,67.3145695 18.0759051,67.3145695 C16.1987186,67.3145695 14.6757356,65.9188068 14.6757356,64.1908068 C14.6757356,62.4646373 16.1987186,61.0642983 18.0759051,61.0642983 M17.9953627,68.5034847 C21.3003458,68.5034847 23.9857017,66.5475864 23.9857017,64.1304 C23.9857017,61.7150441 21.3003458,59.7545695 17.9953627,59.7545695 C14.6867186,59.7545695 12.0031932,61.7150441 12.0031932,64.1304 C12.0031932,66.5475864 14.6867186,68.5034847 17.9953627,68.5034847" id="Fill-7" fill="#FFFFFF"></path>
                    <polygon id="Fill-9" fill="#FFFFFF" points="41.8904542 73.0198068 41.7412678 72.9777051 41.8904542 72.9777051"></polygon>
                    <path d="M2.33334915,73.6204881 L3.60280678,73.6204881 C4.27094237,73.6204881 4.47595932,73.6040136 4.82467119,73.5134034 C5.4644339,73.3422508 5.85799322,72.9166576 5.85799322,72.3775729 C5.85799322,71.9986576 5.6703661,71.6691661 5.33538305,71.4220475 C4.9244339,71.1209288 4.59951864,71.056861 3.61104407,71.056861 L0.188908475,71.056861 L0.188908475,71.5611661 L0.564162712,71.5611661 C1.01172203,71.5611661 1.06663729,71.6188271 1.07487458,72.0535729 L1.08494237,72.2677424 L1.08494237,74.5869966 L1.07487458,74.8084881 C1.06663729,75.2359119 1.01172203,75.2926576 0.564162712,75.2926576 L0.188908475,75.2926576 L0.188908475,75.7951322 L3.10948475,75.7951322 L3.10948475,75.2926576 L2.85412881,75.2926576 C2.40931525,75.2926576 2.35165424,75.2414034 2.34158644,74.8084881 L2.33334915,74.5824203 L2.33334915,73.6204881 Z M2.33334915,73.1152678 L2.33334915,71.5611661 L3.12687458,71.5611661 C4.07690847,71.5611661 4.49426441,71.7991322 4.49426441,72.3318102 C4.49426441,72.9001831 4.12358644,73.1152678 3.09575593,73.1152678 L2.33334915,73.1152678 Z" id="Fill-11" fill="#FFFFFF"></path>
                    <path d="M9.57941695,75.2713322 L9.30392542,75.2713322 C8.8563661,75.2713322 8.80053559,75.2145864 8.79321356,74.7853322 L8.78314576,74.5647559 L8.78314576,72.2464169 L8.79321356,72.0313322 C8.80053559,71.5975017 8.8563661,71.5398407 9.30392542,71.5398407 L9.57941695,71.5398407 L9.57941695,71.0346203 L6.72199322,71.0346203 L6.72199322,71.5398407 L7.01212881,71.5398407 C7.46151864,71.5398407 7.5164339,71.5975017 7.52467119,72.0313322 L7.53473898,72.2464169 L7.53473898,74.5647559 L7.52467119,74.7853322 C7.5164339,75.2209932 7.46151864,75.2713322 7.01212881,75.2713322 L6.76409492,75.2713322 L6.76409492,75.7756373 L9.57941695,75.7756373 L9.57941695,75.2713322 Z" id="Fill-13" fill="#FFFFFF"></path>
                    <path d="M15.7252576,71.0347119 L14.9820712,71.0347119 L14.7495966,71.5399322 C14.6260373,71.4484068 14.5152915,71.3706102 14.4100373,71.3001356 C14.0219695,71.0456949 13.6101051,70.9303729 13.0252576,70.9303729 C11.3649864,70.9303729 10.1907153,71.9444746 10.1907153,73.3887458 C10.1907153,74.8989153 11.374139,75.8754915 13.1707831,75.8754915 C13.5460373,75.8754915 13.8892576,75.8315593 14.1867153,75.7601695 C14.5528169,75.6768814 14.8768169,75.5029831 15.1367492,75.2714237 C15.539461,74.9153898 15.6630203,74.6371525 15.7252576,73.9598644 L14.9820712,73.9598644 C14.9051898,74.3332881 14.8685797,74.4357966 14.7203085,74.6728475 C14.459461,75.0792203 13.9441729,75.2988814 13.2943424,75.2988814 C12.2024441,75.2988814 11.644139,74.6884068 11.644139,73.4637966 C11.644139,72.1659661 12.184139,71.5564068 13.3318678,71.5564068 C13.8160373,71.5564068 14.1995288,71.6863729 14.5152915,71.9444746 C14.8136644,72.198 14.9170881,72.3956949 15.0269186,72.8945085 L15.7252576,72.8945085 L15.7252576,71.0347119 Z" id="Fill-15" fill="#FFFFFF"></path>
                    <path d="M16.6654983,71.0347119 L16.6654983,72.9860339 L17.3272271,72.9860339 L17.3272271,72.8368475 C17.3272271,71.9755932 17.848922,71.5509153 18.8950576,71.5399322 L18.8950576,74.7854237 C18.8859051,75.2210847 18.8282441,75.2714237 18.3788542,75.2714237 L18.1482102,75.2714237 L18.1482102,75.7757288 L20.9433966,75.7757288 L20.9433966,75.2714237 L20.6733966,75.2714237 C20.2176,75.2714237 20.1617695,75.2210847 20.1535322,74.7854237 L20.1535322,71.5399322 C21.2710576,71.5701356 21.7378373,71.9902373 21.7479051,72.9860339 L22.4361763,72.9860339 L22.4361763,71.0347119 L16.6654983,71.0347119 Z" id="Fill-17" fill="#FFFFFF"></path>
                    <path d="M23.0874712,71.5396576 L23.1973017,71.5396576 C23.6439458,71.5396576 23.6997763,71.5973186 23.7107593,72.0311492 L23.7171661,72.2462339 L23.7171661,73.9019288 C23.7171661,74.4886068 23.7473695,74.6881322 23.8874034,74.9791831 C24.1464203,75.5557932 24.9866237,75.8752169 26.1901831,75.8752169 C26.8995051,75.8752169 27.4843525,75.7534881 27.9218441,75.5200983 C28.1451661,75.3901322 28.3327932,75.2208102 28.4444542,75.0112169 C28.5350644,74.8510475 28.5854034,74.6551831 28.5963864,74.4519966 L28.5963864,73.9019288 L28.5963864,72.0311492 C28.6027932,71.5973186 28.6586237,71.5396576 29.1070983,71.5396576 L29.3020475,71.5396576 L29.3020475,71.0344373 L26.9104881,71.0344373 L26.9104881,71.5396576 L27.1338102,71.5396576 C27.5767932,71.5396576 27.6362847,71.5973186 27.6436068,72.0311492 L27.6518441,72.2462339 L27.6518441,73.9019288 C27.6518441,74.586539 27.6271322,74.6780644 27.428522,74.8922339 C27.2335729,75.1137254 26.8226237,75.2491831 26.348522,75.2491831 C25.8716746,75.2491831 25.4140475,75.1054881 25.199878,74.8922339 C25.0067593,74.6991153 24.9674034,74.5426068 24.9674034,73.9019288 L24.9674034,72.2462339 L24.9756407,72.0311492 C24.9866237,71.5973186 25.0442847,71.5396576 25.5019119,71.5396576 L25.8808271,71.5396576 L25.8808271,71.0344373 L23.0874712,71.0344373 L23.0874712,71.5396576 Z" id="Fill-19" fill="#FFFFFF"></path>
                    <g id="Group-23" transform="translate(29.956729, 71.034803)">
                        <mask id="mask-2" fill="white">
                            <use xlink:href="#path-1"></use>
                        </mask>
                        <g id="Clip-22"></g>
                        <path d="M2.12155932,2.51145763 L2.95261017,2.51145763 C3.18691525,2.51145763 3.47522034,2.61305085 3.65369492,2.74301695 C3.90538983,2.93430508 3.9520678,3.07616949 3.96854237,3.77359322 C3.99691525,4.50945763 4.38864407,4.84077966 5.25355932,4.84077966 C6.12122034,4.84077966 6.4479661,4.53416949 6.4479661,3.72325424 C6.4479661,3.64271186 6.4479661,3.56949153 6.43881356,3.3800339 L5.83474576,3.3800339 L5.84115254,3.66010169 L5.85305085,3.72874576 C5.85305085,4.07013559 5.76976271,4.20101695 5.55559322,4.20101695 C5.3679661,4.20101695 5.27644068,4.10674576 5.25355932,3.90813559 L5.22701695,3.4340339 C5.19955932,2.98647458 5.02291525,2.69908475 4.66871186,2.53342373 C4.49023729,2.44738983 4.37949153,2.4199322 4.00423729,2.34854237 C4.54789831,2.27166102 4.74010169,2.22132203 5.02291525,2.10966102 C5.51623729,1.91837288 5.75969492,1.61084746 5.75969492,1.19074576 C5.75969492,0.783457627 5.50891525,0.420101695 5.06959322,0.20959322 C4.72454237,0.0302033898 4.5259322,-6.5032725e-15 3.80928814,-6.5032725e-15 L0,-6.5032725e-15 L0,0.505220339 L0.353288136,0.505220339 C0.800847458,0.505220339 0.855762712,0.562881356 0.866745763,0.996711864 L0.874067797,1.21179661 L0.874067797,3.52922034 L0.866745763,3.75071186 C0.855762712,4.17905085 0.800847458,4.23671186 0.353288136,4.23671186 L0,4.23671186 L0,4.74101695 L2.85650847,4.74101695 L2.85650847,4.23671186 L2.64691525,4.23671186 C2.19935593,4.23671186 2.14077966,4.17905085 2.13345763,3.75071186 L2.12155932,3.52922034 L2.12155932,2.51145763 Z M2.12155932,2.00898305 L2.12155932,0.505220339 L3.11277966,0.505220339 C3.97677966,0.505220339 4.37949153,0.747762712 4.37949153,1.27769492 C4.37949153,1.80213559 4.03261017,2.00898305 3.14023729,2.00898305 L2.12155932,2.00898305 Z" id="Fill-21" fill="#FFFFFF" mask="url(#mask-2)"></path>
                    </g>
                    <path d="M42.8110169,71.0347119 L37.0998305,71.0347119 L37.0998305,71.5399322 L37.2956949,71.5399322 C37.6672881,71.5399322 37.7697966,71.6058305 37.8,71.8328136 L37.807322,72.0808475 L37.807322,74.7854237 C37.8,75.2210847 37.7414237,75.2714237 37.2956949,75.2714237 L37.1208814,75.2714237 L37.1208814,75.7757288 L42.8110169,75.7757288 L42.8110169,73.8774915 L42.1053559,73.8774915 C42.1053559,74.0074576 42.0980339,74.1667119 42.0980339,74.2152203 C42.0980339,74.4467797 42.0495254,74.6435593 41.8628136,74.8705424 C41.6028814,75.1853898 41.3292203,75.2714237 40.6098305,75.2659322 L39.0676271,75.2659322 L39.0676271,73.5690508 L39.4584407,73.5690508 C40.1366441,73.5690508 40.3425763,73.8051864 40.3425763,74.5822373 L40.9969831,74.5822373 L40.9969831,72.1604746 L40.3425763,72.1604746 L40.3425763,72.2465085 C40.3425763,72.8505763 40.125661,73.0931186 39.5774237,73.0931186 C39.5499661,73.0931186 39.4392203,73.0931186 39.2515932,73.0839661 L39.0676271,73.0839661 L39.0676271,71.5399322 L40.6208136,71.5399322 C41.3182373,71.5399322 41.6669492,71.6689831 41.8710508,71.9984746 C42.0357966,72.2611525 42.1053559,72.5329831 42.1135932,72.9631525 L42.8110169,72.9631525 L42.8110169,71.0347119 Z" id="Fill-24" fill="#FFFFFF"></path>
                    <path d="M48.9604271,71.0347119 L48.3975458,71.0347119 L48.1275458,71.4657966 C47.9948339,71.3797627 47.8749356,71.3083729 47.7770034,71.2443051 C47.3925966,71.0347119 46.9157492,70.9303729 46.3199186,70.9303729 C44.9415458,70.9303729 44.0729695,71.4932542 44.0729695,72.3883729 C44.0729695,72.6245085 44.1471051,72.8505763 44.2990373,73.0436949 C44.5507322,73.3887458 44.9150034,73.540678 45.8247661,73.6825424 C46.7473424,73.825322 47.3193763,73.9324068 47.6882237,74.026678 C48.1010034,74.1319322 48.3151729,74.3332881 48.3151729,74.6042034 C48.3151729,75.0270508 47.8483932,75.2769153 47.0457153,75.2769153 C46.4681898,75.2769153 45.9199525,75.1194915 45.5090034,74.8430847 C45.097139,74.5602712 44.9616814,74.3332881 44.838122,73.756678 L44.1946983,73.756678 L44.1946983,75.7757288 L44.838122,75.7757288 L45.0724271,75.2714237 C45.201478,75.3693559 45.3049017,75.4480678 45.3973424,75.4974915 C45.7982237,75.7455254 46.3775797,75.8754915 47.0777492,75.8754915 C48.4616136,75.8754915 49.3393424,75.3126102 49.3393424,74.4101695 C49.3393424,73.875661 49.0244949,73.4738644 48.3700881,73.2020339 C47.9417492,73.0217288 47.5783932,72.9356949 46.5432407,72.7874237 C45.4531729,72.6354915 45.1941559,72.5110169 45.1941559,72.1558983 C45.1941559,71.7550169 45.6316475,71.5069831 46.350122,71.5069831 C47.4374441,71.5069831 48.1577492,71.9902373 48.333478,72.846 L48.9604271,72.846 L48.9604271,71.0347119 Z" id="Fill-26" fill="#FFFFFF"></path>
                    <path d="M10.7002373,33.1088644 C9.53145763,35.4894407 9.87833898,35.6615085 10.7002373,36.5731017 C10.7862712,36.689339 10.8201356,36.9263898 10.7972542,37.3702881 L10.7972542,52.1003898 C10.7972542,52.1003898 7.93067797,53.5629661 7.87759322,53.5629661 L7.88766102,19.0157797 L10.7972542,17.6941525 L10.8054915,31.8979831 C10.8292881,32.6530678 10.7487458,33.017339 10.7002373,33.1088644" id="Fill-28" fill="#FFFFFF"></path>
                    <polygon id="Fill-30" fill="#FFFFFF" points="4.05750508 20.7484475 6.76391186 19.5274983 6.76391186 54.1195322 4.04652203 55.3999729"></polygon>
                    <g id="Group-34" transform="translate(-0.000000, 21.387753)">
                        <mask id="mask-4" fill="white">
                            <use xlink:href="#path-3"></use>
                        </mask>
                        <g id="Clip-33"></g>
                        <polygon id="Fill-32" fill="#FFFFFF" mask="url(#mask-4)" points="-0.000366101695 1.24749153 2.8076339 -6.5032725e-15 2.8076339 34.5124068 -0.000366101695 35.8953559"></polygon>
                    </g>
                    <g id="Group-37" transform="translate(46.405312, -0.000000)">
                        <mask id="mask-6" fill="white">
                            <use xlink:href="#path-5"></use>
                        </mask>
                        <g id="Clip-36"></g>
                        <path d="M1.16786441,16.2132712 C1.20538983,20.3282542 2.01722034,34.2135763 1.98701695,34.4597797 L0.253525424,35.2752712 C0.253525424,35.2752712 0.747762712,26.2014407 0.914338983,17.1779492 C1.02966102,13.4180847 0,0.815949153 0,0.815949153 L1.73257627,-0.000457627119 C1.73257627,-0.000457627119 1.14498305,14.6317119 1.16786441,16.2132712" id="Fill-35" fill="#FFFFFF" mask="url(#mask-6)"></path>
                    </g>
                    <path d="M43.6977153,18.0267559 C43.5494441,20.1455695 44.4216814,36.3464847 44.4216814,36.3464847 C43.8688678,36.5807898 42.7431051,37.1336034 42.7431051,37.1336034 C42.7431051,37.1336034 43.2455797,20.0247559 43.2400881,18.7534678 C43.0661898,14.6924847 42.1262237,2.85641695 42.1262237,2.85641695 L44.3676814,1.78282373 C44.3676814,1.78282373 43.8139525,16.3902814 43.6977153,18.0267559" id="Fill-38" fill="#FFFFFF"></path>
                    <path d="M39.4699729,22.6388136 C39.5523458,25.7845424 40.4355661,38.1834915 40.4355661,38.1834915 L38.5565492,39.0978305 C38.5565492,39.0978305 38.9427864,26.0252542 38.9620068,21.6201356 C38.8768881,18.0213559 37.8362441,4.89294915 37.8362441,4.89294915 C38.570278,4.43715254 39.3537356,4.15067797 40.1298712,3.82118644 C40.1298712,3.82118644 39.3647186,19.0537627 39.4699729,22.6388136" id="Fill-40" fill="#FFFFFF"></path>
                    <path d="M35.244061,24.3280983 C35.1873153,26.0249797 36.3039254,40.1162339 36.3039254,40.1162339 C36.3039254,40.1162339 34.1713831,41.1193525 34.1182983,41.1907424 C34.1182983,40.681861 34.6399932,26.4496576 34.6399932,23.783522 C34.6399932,21.4157593 33.5581627,6.87969153 33.5581627,6.87969153 L35.9039593,5.76125085 C35.9039593,5.76125085 35.3044678,20.7549458 35.244061,24.3280983" id="Fill-42" fill="#FFFFFF"></path>
                    <path d="M30.9117966,26.5053966 C30.9410847,29.6026169 31.9744068,42.2102441 31.9744068,42.2102441 L29.6798644,43.2810915 L29.6377627,43.2810915 C29.6377627,43.2810915 30.2766102,27.9652271 30.1887458,25.5919729 C30.3974237,23.2370237 28.9412542,9.11831186 28.9412542,9.11831186 L31.6202034,7.80400678 C31.6202034,8.03648136 30.7598644,21.2353627 30.9117966,26.5053966" id="Fill-44" fill="#FFFFFF"></path>
                    <path d="M26.6224576,26.1523831 C26.5812712,32.6937051 27.8013051,44.1426203 27.8013051,44.1426203 L24.7278814,45.5914678 C24.7278814,45.5914678 26.0339492,31.2951966 25.8573051,27.7806203 C25.9122203,23.6592305 24.4981525,11.6071627 24.4899153,11.2126881 C25.4637458,10.6690271 26.4851695,10.2443492 27.4919492,9.79221356 C27.4919492,9.79221356 26.5812712,22.9947559 26.6224576,26.1523831" id="Fill-46" fill="#FFFFFF"></path>
                    <path d="M22.7005017,19.9028441 C21.9088068,26.9649458 21.7889085,34.5716237 23.1242644,41.4790475 L23.6175864,46.1276237 L20.3574508,47.6588441 L20.3016203,47.7119288 C20.3016203,47.7119288 20.2942983,41.9018949 20.3016203,41.6996237 C21.0823322,35.6214203 21.8209424,27.3996915 20.2174169,20.3284373 L20.2174169,13.1464373 L23.5278915,11.618878 L22.7005017,19.9028441 Z" id="Fill-48" fill="#FFFFFF"></path>
                    <path d="M19.2432203,20.4498915 C17.8831525,28.6972475 17.4932542,34.9722305 19.2432203,41.6618237 L19.2432203,48.207722 L16.0544746,49.6849424 L16.0764407,38.8217898 C17.3193559,33.6304678 17.1930508,30.6860949 16.2137288,25.3648068 L16.2137288,15.051722 L19.2578644,13.6825017 L19.2432203,20.4498915 Z" id="Fill-50" fill="#FFFFFF"></path>
                    <path d="M14.9422576,25.9038915 C14.0343254,30.5131119 13.3396475,34.6244339 14.8543932,38.8666373 L14.8489017,50.3219593 L11.7818847,51.7534169 L11.7763932,37.0919593 C11.7544271,36.6389085 11.8267322,36.208739 11.8670034,36.1812814 C13.0019186,34.6473153 13.1346305,33.8904 12.0985627,32.6429085 C11.9264949,32.4168407 11.7672407,32.3509424 11.7818847,32.0717898 L11.7818847,17.1650441 L14.8974102,15.7033831 L14.9495797,15.7033831 L14.9422576,25.9038915 Z" id="Fill-52" fill="#FFFFFF"></path>
                    <path d="M51.7615627,71.0900847 L51.7615627,73.0157797 L52.2210203,73.0157797 L52.2210203,72.0254746 C52.2210203,71.8991695 52.2027153,71.6639492 52.1834949,71.4598475 L52.1834949,71.4177458 L52.1999695,71.4177458 L52.2063763,71.4516102 L52.2777661,71.7335085 L52.3766136,72.0721525 L52.6621729,73.0157797 L53.0392576,73.0157797 L53.3211559,72.0483559 L53.3504441,71.9504237 C53.3595966,71.9092373 53.3898,71.8131356 53.4309864,71.6639492 C53.4703424,71.5129322 53.4758339,71.4982881 53.4923085,71.4177458 L53.5115288,71.4177458 L53.5096983,71.4516102 L53.490478,71.6474746 L53.4758339,71.8909322 L53.4758339,73.0157797 L53.933461,73.0157797 L53.933461,71.0900847 L53.2131559,71.0900847 L53.0172915,71.7829322 L52.9989864,71.8378475 C52.9678678,71.9504237 52.9129525,72.2021186 52.8854949,72.383339 C52.8681051,72.4556441 52.8681051,72.4702881 52.8662746,72.5242881 L52.8488847,72.5242881 C52.8470542,72.4721186 52.8470542,72.4593051 52.8351559,72.4117119 C52.8305797,72.3567966 52.8122746,72.2680169 52.788478,72.1609322 C52.7500373,71.9861186 52.7161729,71.8552373 52.6896305,71.7573051 L52.6621729,71.6694407 L52.4928508,71.0900847 L51.7615627,71.0900847 Z M49.9932915,71.0900847 L49.9932915,71.4067627 L50.5387831,71.4067627 L50.5387831,73.0157797 L51.0275288,73.0157797 L51.0275288,71.4067627 L51.5602068,71.4067627 L51.5602068,71.0900847 L49.9932915,71.0900847 Z" id="Fill-54" fill="#FFFFFF"></path>
                </g>
                <rect id="Rectangle-Copy-5" fill="#D8D8D8" opacity="0" x="0" y="0" width="158" height="101"></rect>
            </g>
        </g>
    </g>
</svg>