<?xml version="1.0" encoding="UTF-8"?>
<svg width="158px" height="101px" viewBox="0 0 158 101" version="1.1" xmlns="http://www.w3.org/2000/svg" xmlns:xlink="http://www.w3.org/1999/xlink">
    <title>logo-general-mills@1x</title>
    <defs>
        <polygon id="path-1" points="1.3937569e-14 0 3.87972692 0 3.87972692 11.3102308 1.3937569e-14 11.3102308"></polygon>
    </defs>
    <g id="back-up" stroke="none" stroke-width="1" fill="none" fill-rule="evenodd">
        <g id="Clients-copy" transform="translate(-233.000000, -1478.000000)">
            <g id="logo-general-mills" transform="translate(233.000000, 1478.000000)">
                <g id="logo/general-Mills" transform="translate(27.000000, 21.000000)">
                    <path d="M63.1886416,32.3039881 C62.4324686,32.2990843 61.7380839,32.1490266 61.9567955,31.454642 C62.1696224,30.7779112 62.9101032,30.6288343 64.0183724,30.795565 C64.6078147,30.884815 64.4852186,31.6910073 64.1939301,31.9440458 C63.9251993,32.1764881 63.7829878,32.3069304 63.1886416,32.3039881" id="Fill-1" fill="#FFFFFF"></path>
                    <path d="M73.8448955,42.3961035 C71.972607,42.4284689 71.0330301,41.531065 71.0330301,41.531065 L71.322357,39.8578727 C71.322357,39.8578727 72.444357,41.0534304 74.0341839,40.804315 C74.8060493,40.6846612 75.7927032,39.5312766 74.9708186,38.8839689 C73.5712609,37.7884496 70.8849339,37.5805266 72.1579724,34.4960073 C72.8513762,32.8120266 75.1571647,32.4560073 76.4625686,32.7521996 C77.5423955,32.9983727 77.9582416,33.5819304 77.9582416,33.5819304 C77.9582416,33.5819304 77.7218762,34.7519881 77.620857,35.2100073 C76.7509147,34.718642 75.8387993,34.1596035 74.9080493,34.4106804 C73.9253186,34.6764689 73.5388955,35.8259304 74.038107,36.3006227 C75.0267224,37.2392189 76.4409916,37.2529496 76.9343186,38.5779689 C77.3442801,39.6832958 76.8077993,41.0132189 75.9398186,41.6399304 C75.3278186,42.0832381 74.6569724,42.3823727 73.8448955,42.3961035" id="Fill-3" fill="#FFFFFF"></path>
                    <polygon id="Fill-5" fill="#FFFFFF" points="64.1099762 42.2467323 66.0754378 42.2467323 67.9889186 30.9355208 65.9695147 30.9355208"></polygon>
                    <path d="M60.3612801,42.2467323 L62.4316839,42.2467323 L64.1225301,33.0843862 C64.1225301,33.0843862 63.5409339,33.24229 62.9642416,33.24229 C62.5474147,33.24229 62.0011262,33.0843862 62.0011262,33.0843862 L60.3612801,42.2467323 Z" id="Fill-7" fill="#FFFFFF"></path>
                    <polygon id="Fill-9" fill="#FFFFFF" points="67.7074378 42.2467323 69.6738801 42.2467323 71.5863801 30.9355208 69.567957 30.9355208"></polygon>
                    <polygon id="Fill-11" fill="#FFFFFF" points="48.3314589 42.2716439 50.375382 31.132067 53.3647666 31.1467785 53.9532282 39.3901439 57.7144782 31.1605093 60.7548628 31.1605093 58.8090166 42.2981246 56.8366897 42.2588939 58.2117282 34.3048554 54.4357666 42.2716439 52.6301705 42.2716439 51.5689782 34.5392593 50.1929589 42.2716439"></polygon>
                    <g id="Group-15" transform="translate(98.155320, 17.326367)">
                        <mask id="mask-2" fill="white">
                            <use xlink:href="#path-1"></use>
                        </mask>
                        <g id="Clip-14"></g>
                        <polygon id="Fill-13" fill="#FFFFFF" mask="url(#mask-2)" points="1.3937569e-14 11.3102308 1.96644231 11.3102308 3.87992308 0 1.8615 0"></polygon>
                    </g>
                    <path d="M72.302832,20.9992496 C70.4374089,21.1071343 69.7714666,22.9284227 69.7057551,23.0353266 L68.6043512,28.6423843 L66.5869089,28.6423843 L68.2650051,19.1809035 L70.1510243,19.1809035 L70.1382743,20.568692 C70.1382743,20.568692 71.5976589,18.6640381 73.5464474,18.9582689 C75.8904859,19.3113458 75.5766397,21.630865 75.4981782,22.4439227 C75.4305051,23.1383073 74.4360051,28.6423843 74.4360051,28.6423843 L72.417582,28.6423843 L73.5189859,22.4311727 C73.5189859,22.4311727 73.6111782,20.9237304 72.302832,20.9992496" id="Fill-16" fill="#FFFFFF"></path>
                    <path d="M78.285132,23.0642593 C78.3596705,22.84849 78.9540166,21.301817 80.5879782,21.1566631 C81.9728243,21.034067 82.6279782,21.4793362 82.4435936,23.0642593 L78.285132,23.0642593 Z M77.9575551,24.6756631 L83.7539012,24.6756631 C83.7539012,24.6756631 85.2995936,19.77574 81.8404205,19.2255285 C78.1507666,18.6390285 76.1696128,21.8265285 75.9695359,24.6109323 C75.6292089,29.3696246 79.2296128,29.2254516 81.1068051,28.7664516 C82.0758051,28.5300862 82.7064397,27.9524131 82.7064397,27.9524131 L83.1262089,25.93399 C83.1262089,25.93399 80.7527474,28.1505285 78.6813628,27.1275862 C77.5956512,26.5911054 77.9575551,24.6756631 77.9575551,24.6756631 L77.9575551,24.6756631 Z" id="Fill-18" fill="#FFFFFF"></path>
                    <path d="M60.7903666,23.0642593 C60.8649051,22.84849 61.4592512,21.301817 63.0951743,21.1566631 C64.4770782,21.034067 65.132232,21.4793362 64.9478474,23.0642593 L60.7903666,23.0642593 Z M60.4618089,24.6756631 L66.2591359,24.6756631 C66.2591359,24.6756631 67.8048282,19.77574 64.3456551,19.2255285 C60.6560012,18.6390285 58.6738666,21.8265285 58.4747705,24.6109323 C58.1334628,29.3696246 61.7348474,29.2254516 63.6120397,28.7664516 C64.5810397,28.5300862 65.2116743,27.9524131 65.2116743,27.9524131 L65.6304628,25.93399 C65.6304628,25.93399 63.2589628,28.1505285 61.1865974,27.1275862 C60.0989243,26.5911054 60.4618089,24.6756631 60.4618089,24.6756631 L60.4618089,24.6756631 Z" id="Fill-20" fill="#FFFFFF"></path>
                    <path d="M89.1502897,21.021317 C87.5938089,21.2517977 87.2270012,22.5630862 87.1681551,22.89949 L86.093232,28.6389516 L83.9835974,28.6389516 L85.6999436,19.006817 L87.4692512,19.006817 L87.4692512,20.5397593 C87.4692512,20.5397593 88.2872128,18.78124 89.6710782,18.9283554 C90.3183859,18.99799 90.6596936,19.2068939 90.6596936,19.2068939 L90.2536551,21.2517977 C90.2536551,21.2517977 89.8299628,20.9212785 89.1502897,21.021317" id="Fill-22" fill="#FFFFFF"></path>
                    <path d="M94.5521705,27.9081804 L94.6953628,28.6427766 L96.6098243,28.6427766 L97.8416705,22.2736612 C97.8416705,22.2736612 98.5762666,19.0969496 95.0111705,18.8919689 C92.284632,18.7350458 91.2626705,20.4121612 91.2626705,20.4121612 L90.9488243,22.5894689 C90.9488243,22.5894689 92.3111128,20.8034881 94.146132,20.8329112 C95.8487474,20.8584112 95.7977474,21.539065 95.8487474,21.853892 C95.9026897,22.1687189 95.7565551,23.1396804 93.8048243,23.5045266 C92.1286897,23.8203343 89.2972089,24.8619112 89.8474205,27.3059881 C90.5025743,30.2149496 94.3285551,28.2504689 94.5521705,27.9081804 M95.3259974,24.5019689 C95.3259974,24.5019689 94.9327089,27.3589496 92.6524205,27.3059881 C91.4892282,27.2785266 91.672632,26.116315 92.3091512,25.5984689 C93.5566897,24.5804304 95.3259974,24.5019689 95.3259974,24.5019689" id="Fill-24" fill="#FFFFFF"></path>
                    <path d="M36.7882955,38.949092 C35.4191416,46.8423227 28.3683916,52.3287458 19.3149109,50.7575535 C12.7015839,49.6100535 6.58452625,44.1540343 7.75360317,37.4171304 C8.31068009,34.2109958 11.9218724,28.9168035 19.6199301,30.2526112 C19.7778339,30.279092 19.9337762,30.3075343 20.0906993,30.3379381 L17.0924878,37.5642458 L24.8160455,37.8643612 C24.8160455,37.8643612 25.825257,35.4546112 27.1983339,32.1817843 C29.1814493,32.8702843 30.2504878,33.4175535 30.2504878,33.4175535 L32.9613339,26.8758227 C32.9613339,26.8758227 31.8265839,26.215765 30.0307955,25.4223227 C30.4378147,24.4543035 30.8409109,23.4911881 31.231257,22.5623996 C34.6374686,22.5810343 37.1756993,21.5590727 37.1756993,21.5590727 C36.152757,27.4534958 37.7769109,33.2508227 36.7882955,38.949092 M24.8081993,10.010515 C25.1857955,7.83909195 26.7913147,6.78378426 28.0133532,6.99661118 C28.7528532,7.12509195 29.1667378,7.74101503 29.0362955,8.4942458 C28.9529301,8.97580349 27.6514493,12.0799381 27.1208532,13.3843612 L26.8540839,14.0257843 C25.1593147,13.1734958 24.4825839,11.8926112 24.8081993,10.010515 M44.2382186,22.378015 C45.4396609,15.4449573 48.9311993,11.5777843 48.9311993,11.5777843 L42.0618916,11.4787266 C40.322007,12.7066496 38.0848724,14.7074189 34.3471609,15.1507266 C34.5276224,14.724092 34.6413916,14.4553612 34.6708147,14.3886689 C34.9817186,13.6933035 36.0831224,11.3816304 36.4028532,9.53288041 C37.2767186,4.49957272 34.0450839,0.862880412 29.9248724,0.147899643 C23.3870647,-0.985869588 18.6538724,4.62216887 17.8359109,9.33378426 C17.1719301,13.1607458 18.8343339,18.1979766 24.0255455,20.8460535 L23.0663532,23.1587073 C22.8692186,23.1184958 22.6701224,23.0822073 22.4700455,23.0468996 C9.71514163,20.8333035 1.67773779,28.0547073 0.228160863,36.4177266 C-1.39501221,45.7664189 5.74498779,56.0272266 18.3753339,58.218265 C30.2406801,60.2778804 41.6362378,53.1829958 43.9145647,40.0593227 C45.1209109,33.1017458 42.8837762,30.1731689 44.2382186,22.378015" id="Fill-26" fill="#FFFFFF"></path>
                    <path d="M56.7369455,27.3455131 C55.9533109,28.2576285 54.456657,29.13934 53.0747532,29.13934 C50.1128301,29.13934 49.3546955,26.7266477 49.3909839,24.5591477 C49.4517916,20.8204554 51.3544839,17.1710131 54.7489262,17.1710131 C55.9631186,17.1710131 57.1625993,17.3622631 58.1855416,18.78634 L57.8000993,20.9479554 C57.0674647,19.7435708 56.0562916,19.3630323 54.8823109,19.3502823 C52.2626762,19.3247823 51.2956378,22.4495131 51.3191762,24.609167 C51.3387916,26.3922054 52.0900609,27.2631285 53.3179839,27.2631285 C54.1428109,27.2631285 54.6773301,26.9492823 55.1471186,26.4843977 L55.4570416,24.7337246 L54.1781186,24.7307823 L54.5066762,23.0752439 L57.5156762,23.0752439 L56.7369455,27.3455131 Z" id="Fill-28" fill="#FFFFFF"></path>
                </g>
                <rect id="Rectangle-Copy-7" fill="#D8D8D8" opacity="0" x="0" y="0" width="158" height="101"></rect>
            </g>
        </g>
    </g>
</svg>