<?xml version="1.0" encoding="UTF-8"?>
<svg width="28px" height="29px" viewBox="0 0 28 29" version="1.1" xmlns="http://www.w3.org/2000/svg" xmlns:xlink="http://www.w3.org/1999/xlink">
    <title>logo</title>
    <defs>
        <polygon id="path-1" points="0 0 28 0 28 27.9998526 0 27.9998526"></polygon>
    </defs>
    <g id="Symbols" stroke="none" stroke-width="1" fill="none" fill-rule="evenodd">
        <g id="logo" transform="translate(0.000000, 0.500000)">
            <mask id="mask-2" fill="white">
                <use xlink:href="#path-1"></use>
            </mask>
            <g id="Clip-2"></g>
            <path d="M20.4326316,16.8440632 C20.4326316,17.6840632 19.8947368,18.2366947 19.04,18.2366947 L9.07052632,18.2366947 C8.22315789,18.2366947 7.67789474,17.6840632 7.67789474,16.8440632 L7.67789474,13.9040632 C7.67789474,13.7198526 7.80315789,13.5945895 7.98736842,13.5945895 L13.5136842,13.5945895 C13.5357895,13.5945895 13.5578947,13.5945895 13.5726316,13.6019579 L13.5726316,17.1535368 L14.2873684,17.1535368 L14.2873684,9.26195789 C14.2873684,9.21774737 14.2947368,9.17353684 14.3094737,9.13669474 C14.3536842,9.02616842 14.4568421,8.95248421 14.5968421,8.95248421 L20.1231579,8.95248421 C20.3147368,8.95248421 20.4326316,9.07774737 20.4326316,9.26195789 L20.4326316,16.8440632 Z M14,-0.000147368421 C6.27052632,-0.000147368421 0,6.27037895 0,13.9998526 C0,21.7293263 6.27052632,27.9998526 14,27.9998526 C21.7294737,27.9998526 28,21.7293263 28,13.9998526 C28,6.27037895 21.7294737,-0.000147368421 14,-0.000147368421 L14,-0.000147368421 Z" id="Fill-1" fill="#FFFFFF" mask="url(#mask-2)"></path>
        </g>
    </g>
</svg>