<?xml version="1.0" encoding="UTF-8"?>
<svg width="78px" height="72px" viewBox="0 0 78 72" version="1.1" xmlns="http://www.w3.org/2000/svg" xmlns:xlink="http://www.w3.org/1999/xlink">
    <title>FC-logo</title>
    <defs>
        <polygon id="path-1" points="0 0 77.5146 0 77.5146 72 0 72"></polygon>
    </defs>
    <g id="FC-logo" stroke="none" stroke-width="1" fill="none" fill-rule="evenodd">
        <g id="Group-3">
            <mask id="mask-2" fill="white">
                <use xlink:href="#path-1"></use>
            </mask>
            <g id="Clip-2"></g>
            <path d="M12.7786,58.63 L34.5356,69.928 L63.4376,59.874 L69.8486,48.909 L73.0366,43.594 L75.5516,24.316 L70.2416,12.878 C68.0696,11.957 56.1176,6.884 53.4036,5.721 C51.0756,4.723 36.8136,2.702 31.1646,1.961 L21.4146,6.191 L12.8296,8.644 L1.9496,33.335 L3.1856,45.281 L12.7786,58.63 Z M34.3856,72 L11.4946,60.113 L1.3396,45.983 L-0.0004,33.028 L0.1016,32.797 L11.4446,7.055 L20.8296,4.374 L30.8886,0 L31.1506,0.034 C33.1846,0.299 51.1166,2.665 54.1556,3.967 C57.1246,5.24 71.1836,11.205 71.3246,11.265 L71.6626,11.408 L77.5146,24.014 L74.8776,44.235 L71.4896,49.882 L64.7296,61.444 L34.3856,72 Z" id="Fill-1" fill="#FFFFFF" mask="url(#mask-2)"></path>
        </g>
        <path d="M16.324,54.5324 L34.949,64.2034 L59.869,55.5344 L65.331,46.1954 L67.953,41.8244 L70.128,25.1494 L66.316,16.9374 C62.252,15.2134 53.782,11.6164 51.404,10.5984 C49.582,9.9734 40.131,8.4804 31.924,7.3774 L23.211,11.1584 L16.655,13.0324 L7.336,34.1814 L8.284,43.3444 L16.324,54.5324 Z M34.835,65.7864 L15.344,55.6654 L6.874,43.8804 L5.847,33.9474 L15.597,11.8184 L22.764,9.7704 L31.715,5.8794 L31.916,5.9064 C40.367,7.0374 49.948,8.5424 51.908,9.2304 L51.954,9.2484 C54.349,10.2744 63.18,14.0234 67.143,15.7044 L67.401,15.8144 L71.628,24.9184 L69.359,42.3134 L66.585,46.9384 L60.856,56.7344 L34.835,65.7864 Z" id="Fill-4" fill="#FFFFFF"></path>
        <path d="M19.242,51.1603 L35.289,59.4933 L56.934,51.9643 L61.614,43.9623 L63.77,40.3673 L65.665,25.8353 L63.085,20.2773 C58.843,18.4773 52.219,15.6633 49.899,14.6723 C48.396,14.2433 41.381,13.0463 32.542,11.8383 L24.693,15.2453 L19.803,16.6433 L11.768,34.8783 L12.479,41.7503 L19.242,51.1603 Z M35.213,60.5483 L18.588,51.9153 L11.539,42.1073 L10.775,34.7233 L19.097,15.8343 L24.395,14.3203 L32.404,10.8383 L32.538,10.8573 C41.661,12.1013 48.681,13.3033 50.199,13.7463 L50.253,13.7663 C52.578,14.7613 59.388,17.6533 63.637,19.4563 L63.809,19.5293 L66.665,25.6813 L64.707,40.6933 L62.45,44.4573 L57.591,52.7643 L35.213,60.5483 Z" id="Fill-6" fill="#FFFFFF"></path>
        <path d="M21.3162,48.7619 L35.5312,56.1429 L54.8452,49.4239 L58.9692,42.3739 L60.7942,39.3319 L62.4912,26.3229 L60.7882,22.6539 C56.6992,20.9179 51.1582,18.5639 48.8872,17.5939 C47.4692,17.2379 41.6442,16.2109 32.9782,15.0119 L25.7882,18.1369 L22.0422,19.2119 L14.9202,35.3749 L15.4622,40.6159 L21.3162,48.7619 Z M35.4742,56.9349 L20.8262,49.3279 L14.7572,40.8849 L14.1752,35.2579 L21.5122,18.6049 L25.5432,17.4529 L32.8752,14.2619 L32.9762,14.2759 C41.7822,15.4919 47.7022,16.5389 49.0942,16.8939 L49.1472,16.9119 C51.4252,17.8859 57.0872,20.2909 61.2012,22.0369 L61.3302,22.0919 L63.2412,26.2079 L61.4972,39.5759 L59.5962,42.7449 L55.3392,50.0249 L35.4742,56.9349 Z" id="Fill-8" fill="#FFFFFF"></path>
        <path d="M23.2679,46.506 L35.7589,52.992 L52.8819,47.036 L56.4819,40.881 L57.9959,38.358 L59.5059,26.782 L58.6259,24.888 C54.8059,23.266 50.1409,21.283 47.9529,20.35 C46.6099,20.046 41.4239,19.123 33.3869,17.998 L26.7629,20.878 L24.1469,21.627 L17.8849,35.841 L18.2679,39.55 L23.2679,46.506 Z M35.7209,53.52 L22.9409,46.884 L17.7979,39.729 L17.3889,35.763 L23.7949,21.222 L26.5989,20.422 L33.3179,17.498 L33.3859,17.507 C40.5999,18.516 46.3519,19.488 48.1029,19.89 C50.3479,20.843 55.0659,22.849 58.9019,24.477 L58.9879,24.514 L60.0059,26.705 L59.9969,26.775 L58.4649,38.521 L56.8999,41.128 L53.2109,47.436 L35.7209,53.52 Z" id="Fill-10" fill="#FFFFFF"></path>
        <path d="M25.927,44.049 L21.932,38.49 L21.685,36.103 L26.825,24.437 L28.467,23.968 L34.131,21.505 C40.779,22.444 45.14,23.209 46.554,23.514 C48.477,24.334 52.188,25.911 55.421,27.284 L55.691,27.866 L54.439,37.466 L53.264,39.424 L50.327,44.445 L36.172,49.369 L25.927,44.049 Z" id="Fill-12" fill="#FFFFFF"></path>
    </g>
</svg>